%TF.GenerationSoftware,KiCad,Pcbnew,10.0.0-rc1*%
%TF.CreationDate,2026-09-20T17:05:06+01:00*%
%TF.ProjectId,nano-w,6e616e6f-2d77-42e6-9b69-6361645f7063,rev?*%
%TF.SameCoordinates,Original*%
%TF.FileFunction,Paste,Top*%
%TF.FilePolarity,Positive*%
%FSLAX46Y46*%
G04 Gerber Fmt 4.6, Leading zero omitted, Abs format (unit mm)*
G04 Created by KiCad (PCBNEW 10.0.0-rc1) date 2026-09-20 17:05:06*
%MOMM*%
%LPD*%
G01*
G04 APERTURE LIST*
G04 Aperture macros list*
%AMRotRect*
0 Rectangle, with rotation*
0 The origin of the aperture is its center*
0 $1 length*
0 $2 width*
0 $3 Rotation angle, in degrees counterclockwise*
0 Add horizontal line*
21,1,$1,$2,0,0,$3*%
%AMFreePoly0*
4,1,13,0.165355,0.285355,0.180000,0.250000,0.180000,-0.250000,0.165355,-0.285355,0.130000,-0.300000,-0.120000,-0.300000,-0.155355,-0.285355,-0.170000,-0.250000,-0.170000,0.250000,-0.155355,0.285355,-0.120000,0.300000,0.130000,0.300000,0.165355,0.285355,0.165355,0.285355,$1*%
%AMFreePoly1*
4,1,13,0.165355,0.285355,0.180000,0.250000,0.180000,-0.250000,0.165355,-0.285355,0.130000,-0.300000,-0.130000,-0.300000,-0.165355,-0.285355,-0.180000,-0.250000,-0.180000,0.250000,-0.165355,0.285355,-0.130000,0.300000,0.130000,0.300000,0.165355,0.285355,0.165355,0.285355,$1*%
%AMFreePoly2*
4,1,13,0.155355,0.285355,0.170000,0.250000,0.170000,-0.250000,0.155355,-0.285355,0.120000,-0.300000,-0.120000,-0.300000,-0.155355,-0.285355,-0.170000,-0.250000,-0.170000,0.250000,-0.155355,0.285355,-0.120000,0.300000,0.120000,0.300000,0.155355,0.285355,0.155355,0.285355,$1*%
%AMFreePoly3*
4,1,13,0.155355,0.285355,0.170000,0.250000,0.170000,-0.250000,0.155355,-0.285355,0.120000,-0.300000,-0.130000,-0.300000,-0.165355,-0.285355,-0.180000,-0.250000,-0.180000,0.250000,-0.165355,0.285355,-0.130000,0.300000,0.120000,0.300000,0.155355,0.285355,0.155355,0.285355,$1*%
%AMFreePoly4*
4,1,13,0.335355,0.685355,0.350000,0.650000,0.350000,-0.650000,0.335355,-0.685355,0.300000,-0.700000,-0.300000,-0.700000,-0.335355,-0.685355,-0.350000,-0.650000,-0.350000,0.650000,-0.335355,0.685355,-0.300000,0.700000,0.300000,0.700000,0.335355,0.685355,0.335355,0.685355,$1*%
G04 Aperture macros list end*
%ADD10R,0.500000X0.540000*%
%ADD11R,1.400000X1.200000*%
%ADD12R,0.500000X0.500000*%
%ADD13FreePoly0,90.000000*%
%ADD14FreePoly1,90.000000*%
%ADD15FreePoly2,90.000000*%
%ADD16FreePoly3,90.000000*%
%ADD17R,0.370000X0.500000*%
%ADD18R,0.250000X0.500000*%
%ADD19R,1.000000X1.000000*%
%ADD20R,0.540000X0.570000*%
%ADD21RotRect,0.500000X0.540000X135.000000*%
%ADD22R,0.570000X0.540000*%
%ADD23R,0.720000X0.250000*%
%ADD24R,0.520000X0.250000*%
%ADD25R,0.850000X0.300000*%
%ADD26R,0.880000X0.200000*%
%ADD27R,0.200000X0.880000*%
%ADD28R,3.400000X3.400000*%
%ADD29RotRect,0.570000X0.540000X225.000000*%
%ADD30R,0.540000X0.500000*%
%ADD31R,0.870000X0.870000*%
%ADD32R,0.900000X0.800000*%
%ADD33R,0.800000X0.900000*%
%ADD34R,1.230000X1.860000*%
%ADD35R,1.000000X1.600000*%
%ADD36FreePoly4,180.000000*%
%ADD37R,0.300000X1.300000*%
%ADD38R,0.470000X0.530000*%
%ADD39O,0.610000X0.360000*%
%ADD40R,1.860000X1.230000*%
%ADD41R,1.550000X0.600000*%
%ADD42R,1.800000X1.200000*%
%ADD43RotRect,0.800000X0.860000X135.000000*%
G04 APERTURE END LIST*
D10*
%TO.C,C21*%
X16130000Y5825000D03*
X16970000Y5825000D03*
%TD*%
%TO.C,C14*%
X7699530Y5614794D03*
X8539530Y5614794D03*
%TD*%
D11*
%TO.C,U2*%
X8400000Y3794794D03*
X6200000Y3794794D03*
X6200000Y2094794D03*
X8400000Y2094794D03*
%TD*%
D12*
%TO.C,L4*%
X16800000Y3675000D03*
X16800000Y4575000D03*
%TD*%
D13*
%TO.C,U5*%
X19289530Y7534794D03*
D14*
X19289530Y7984794D03*
D15*
X19289530Y8434794D03*
D13*
X19289530Y8884794D03*
D16*
X19289530Y9334794D03*
D15*
X19289530Y9784794D03*
D13*
X19289530Y10234794D03*
D16*
X19289530Y10684794D03*
D15*
X19289530Y11134794D03*
D14*
X19289530Y11584794D03*
D16*
X19289530Y12034794D03*
D17*
X19349530Y12714794D03*
D18*
X18839530Y12714794D03*
X18389530Y12714794D03*
X17939530Y12714793D03*
X17489530Y12714793D03*
X17039530Y12714793D03*
X16589530Y12714793D03*
X16139530Y12714793D03*
X15689530Y12714794D03*
D17*
X15169530Y12714794D03*
D16*
X15239530Y12034794D03*
D14*
X15239530Y11584794D03*
D15*
X15239530Y11134794D03*
D16*
X15239530Y10684794D03*
D13*
X15239530Y10234794D03*
D15*
X15239530Y9784794D03*
D16*
X15239530Y9334794D03*
D13*
X15239530Y8884794D03*
D15*
X15239530Y8434794D03*
D14*
X15239530Y7984794D03*
D13*
X15239530Y7534794D03*
D17*
X15169530Y6854794D03*
D18*
X15689530Y6854794D03*
X16139530Y6854795D03*
X16589530Y6854795D03*
X17039530Y6854795D03*
X17489530Y6854795D03*
X17939530Y6854795D03*
X18389530Y6854794D03*
X18839530Y6854794D03*
D17*
X19349530Y6854794D03*
D19*
X18009530Y8784794D03*
X18009530Y10784794D03*
X16509530Y8784794D03*
X16509530Y10784794D03*
%TD*%
D20*
%TO.C,LED3*%
X16650000Y25820000D03*
X16650000Y24960000D03*
%TD*%
D10*
%TO.C,C9*%
X13629530Y12124794D03*
X12789530Y12124794D03*
%TD*%
D12*
%TO.C,L3*%
X18840000Y5825000D03*
X17940000Y5825000D03*
%TD*%
D10*
%TO.C,C3*%
X2099530Y13114794D03*
X2939530Y13114794D03*
%TD*%
D21*
%TO.C,C7*%
X11946985Y6853015D03*
X11353015Y7446985D03*
%TD*%
D22*
%TO.C,R10*%
X14024530Y10184794D03*
X13164530Y10184794D03*
%TD*%
D23*
%TO.C,J1*%
X560000Y7945008D03*
D24*
X2990000Y7650002D03*
D23*
X560000Y7345008D03*
D24*
X2990000Y7050002D03*
D23*
X560000Y6745008D03*
D24*
X2990000Y6450013D03*
D23*
X560000Y6145008D03*
D24*
X2990000Y5850002D03*
D23*
X560000Y5545008D03*
D24*
X2990000Y5250001D03*
D23*
X560000Y4945008D03*
D25*
X626040Y8654929D03*
X626040Y4234937D03*
%TD*%
D26*
%TO.C,U1*%
X4309530Y15114794D03*
X4309530Y14714794D03*
X4309530Y14314794D03*
X4309530Y13914794D03*
X4309530Y13514794D03*
X4309530Y13114794D03*
X4309530Y12714794D03*
X4309530Y12314794D03*
X4309530Y11914794D03*
X4309530Y11514794D03*
X4309530Y11114794D03*
X4309530Y10714794D03*
X4309530Y10314794D03*
X4309530Y9914794D03*
X4309530Y9514794D03*
D27*
X5089530Y8744794D03*
X5489530Y8744794D03*
X5889530Y8744794D03*
X6289530Y8744794D03*
X6689530Y8744794D03*
X7089530Y8744794D03*
X7489530Y8744794D03*
X7889530Y8744794D03*
X8289530Y8744794D03*
X8689530Y8744794D03*
X9089530Y8744794D03*
X9489530Y8744794D03*
X9889530Y8744794D03*
X10289530Y8744794D03*
X10689530Y8744794D03*
D26*
X11469530Y9514794D03*
X11469530Y9914794D03*
X11469530Y10314794D03*
X11469530Y10714794D03*
X11469530Y11114794D03*
X11469530Y11514794D03*
X11469530Y11914794D03*
X11469530Y12314794D03*
X11469530Y12714794D03*
X11469530Y13114794D03*
X11469530Y13514794D03*
X11469530Y13914794D03*
X11469530Y14314794D03*
X11469530Y14714794D03*
X11469530Y15114794D03*
D27*
X10689530Y15884794D03*
X10289530Y15884794D03*
X9889530Y15884794D03*
X9489530Y15884794D03*
X9089530Y15884794D03*
X8689530Y15884794D03*
X8289530Y15884794D03*
X7889530Y15884794D03*
X7489530Y15884794D03*
X7089530Y15884794D03*
X6689530Y15884794D03*
X6289530Y15884794D03*
X5889530Y15884794D03*
X5489530Y15884794D03*
X5089530Y15884794D03*
D28*
X7889530Y12314794D03*
%TD*%
D29*
%TO.C,R9*%
X18454056Y4804056D03*
X17845944Y4195944D03*
%TD*%
D30*
%TO.C,C10*%
X6469530Y6444794D03*
X6469530Y7284794D03*
%TD*%
D31*
%TO.C,AE1*%
X13580000Y1730000D03*
X15520000Y1730000D03*
X15520000Y3670000D03*
X13580000Y3670000D03*
%TD*%
D20*
%TO.C,LED1*%
X19175000Y24945000D03*
X19175000Y25805000D03*
%TD*%
%TO.C,R5*%
X7879530Y18664794D03*
X7879530Y19524794D03*
%TD*%
%TO.C,R4*%
X7099530Y18664794D03*
X7099530Y19524794D03*
%TD*%
D32*
%TO.C,C16*%
X6790000Y21240000D03*
X6790000Y22640000D03*
%TD*%
D22*
%TO.C,R6*%
X6499530Y16984794D03*
X5639530Y16984794D03*
%TD*%
D20*
%TO.C,R13*%
X17900000Y23190000D03*
X17900000Y24050000D03*
%TD*%
D22*
%TO.C,R11*%
X14024530Y10934794D03*
X13164530Y10934794D03*
%TD*%
D20*
%TO.C,R2*%
X7719530Y6414794D03*
X7719530Y7274794D03*
%TD*%
D10*
%TO.C,C5*%
X2099530Y15494794D03*
X2939530Y15494794D03*
%TD*%
D30*
%TO.C,C4*%
X6269530Y19524794D03*
X6269530Y18684794D03*
%TD*%
D20*
%TO.C,R14*%
X16650000Y23210000D03*
X16650000Y24070000D03*
%TD*%
D10*
%TO.C,C2*%
X13629530Y12904794D03*
X12789530Y12904794D03*
%TD*%
%TO.C,C6*%
X2099530Y11114794D03*
X2939530Y11114794D03*
%TD*%
D33*
%TO.C,C18*%
X17850000Y21550000D03*
X16450000Y21550000D03*
%TD*%
D34*
%TO.C,SW1*%
X820000Y19034794D03*
X5180000Y19034794D03*
%TD*%
D10*
%TO.C,C15*%
X6979530Y5154794D03*
X6139530Y5154794D03*
%TD*%
D35*
%TO.C,L1*%
X8889530Y19279794D03*
X10889530Y19279794D03*
%TD*%
D36*
%TO.C,USBC1*%
X13200000Y23960000D03*
X12400000Y23960000D03*
D37*
X11250000Y23960000D03*
X10250000Y23960000D03*
X9750000Y23960000D03*
X8750000Y23960000D03*
D36*
X6800000Y23960000D03*
X7600000Y23960000D03*
D37*
X8250000Y23960000D03*
X9250000Y23960000D03*
X10750000Y23960000D03*
X11750000Y23960000D03*
%TD*%
D38*
%TO.C,C12*%
X10404530Y17054794D03*
X9374530Y17054794D03*
%TD*%
D39*
%TO.C,U3*%
X15530000Y21150000D03*
X15530000Y21800000D03*
X15530000Y22450000D03*
X13470000Y22450000D03*
X13470000Y21800000D03*
X13470000Y21150000D03*
D35*
X14500000Y21800000D03*
%TD*%
D20*
%TO.C,R7*%
X11250000Y21800000D03*
X11250000Y22660000D03*
%TD*%
%TO.C,R1*%
X12509530Y19594794D03*
X12509530Y18734794D03*
%TD*%
D38*
%TO.C,C13*%
X10404530Y17844794D03*
X9374530Y17844794D03*
%TD*%
D32*
%TO.C,C17*%
X12400000Y21150000D03*
X12400000Y22550000D03*
%TD*%
D10*
%TO.C,C8*%
X13629530Y15114794D03*
X12789530Y15114794D03*
%TD*%
D30*
%TO.C,C1*%
X8519530Y6444794D03*
X8519530Y7284794D03*
%TD*%
D40*
%TO.C,SW2*%
X11100000Y904794D03*
X11100000Y5264794D03*
%TD*%
D20*
%TO.C,R8*%
X8250000Y21800000D03*
X8250000Y22660000D03*
%TD*%
D41*
%TO.C,CN1*%
X15010000Y15300000D03*
X15010000Y16300000D03*
X15010000Y17300000D03*
X15010000Y18300000D03*
D42*
X18890000Y19600000D03*
X18890000Y14000000D03*
%TD*%
D20*
%TO.C,R12*%
X19175000Y23190000D03*
X19175000Y24050000D03*
%TD*%
%TO.C,R3*%
X9300000Y6430000D03*
X9300000Y5570000D03*
%TD*%
D43*
%TO.C,L2*%
X13655025Y6344975D03*
X14644975Y5355025D03*
%TD*%
D30*
%TO.C,C11*%
X12509530Y17124794D03*
X12509530Y17964794D03*
%TD*%
D10*
%TO.C,C22*%
X13374530Y7984794D03*
X14214530Y7984794D03*
%TD*%
D20*
%TO.C,LED2*%
X17900000Y25800000D03*
X17900000Y24940000D03*
%TD*%
M02*
