M48
; DRILL file KiCad 10.0.0-rc1 date 2026-09-20T17:05:06
; FORMAT={-:-/ absolute / inch / decimal}
; #@! TF.CreationDate,2026-09-20T17:05:06+01:00
; #@! TF.GenerationSoftware,Kicad,Pcbnew,10.0.0-rc1
; #@! TF.FileFunction,Plated,1,4,PTH
FMAT,2
INCH
; #@! TA.AperFunction,Plated,PTH,ViaDrill
T1C0.0079
; #@! TA.AperFunction,Plated,PTH,ViaDrill
T2C0.0118
; #@! TA.AperFunction,Plated,PTH,ViaDrill
T3C0.0120
; #@! TA.AperFunction,Plated,PTH,ComponentDrill
T4C0.0315
; #@! TA.AperFunction,Plated,PTH,ComponentDrill
T5C0.0787
%
G90
G05
T1
X0.0827Y0.4929
X0.0827Y0.4656
X0.1043Y0.4823
X0.1388Y0.4547
T2
X0.0491Y0.1948
X0.0551Y0.2421
X0.0591Y0.5669
X0.0674Y0.1768
X0.0827Y0.4104
X0.0886Y0.3012
X0.0984Y0.5827
X0.0997Y0.3913
X0.248Y0.378
X0.3362Y0.1987
X0.378Y0.2953
X0.3924Y0.2537
X0.4035Y0.2953
X0.4173Y0.4311
X0.4252Y0.2766
X0.4724Y0.3504
X0.501Y0.314
X0.5071Y0.5566
X0.5157Y0.3504
X0.5197Y0.7402
X0.5266Y0.2884
X0.5433Y0.3504
X0.5547Y0.5564
X0.5707Y0.4679
X0.5738Y0.5394
X0.5768Y0.252
X0.5778Y0.1575
X0.5778Y0.1319
X0.5886Y0.1772
X0.5984Y0.1112
X0.6024Y0.8071
X0.6112Y0.1781
X0.624Y0.1112
X0.6258Y0.2966
X0.6268Y0.3842
X0.6297Y0.4679
X0.6348Y0.2037
X0.6348Y0.1781
X0.6437Y0.1211
X0.6457Y0.7205
X0.6457Y0.6811
X0.6514Y0.2957
X0.6555Y0.8888
X0.6614Y0.2037
X0.686Y0.186
X0.7047Y0.8878
X0.7047Y0.2047
X0.7244Y0.4718
X0.7283Y0.1506
X0.75Y0.1713
X0.7628Y0.1998
X0.7697Y0.2293
T3
X0.0575Y0.6104
X0.0575Y0.5163
X0.0575Y0.4376
X0.1386Y0.5163
X0.1732Y0.0187
X0.2295Y0.5163
X0.2343Y0.8362
X0.2468Y0.7943
X0.2547Y0.2285
X0.2571Y0.4305
X0.2575Y0.54
X0.2575Y0.4848
X0.2667Y0.018
X0.2988Y0.8583
X0.3106Y0.54
X0.3106Y0.4848
X0.3106Y0.4305
X0.3106Y0.4029
X0.3354Y0.3089
X0.3386Y0.7049
X0.3386Y0.6829
X0.3455Y1.0049
X0.3543Y0.018
X0.3583Y0.5677
X0.3653Y0.54
X0.3653Y0.4848
X0.3653Y0.4305
X0.3925Y0.5006
X0.4323Y0.6714
X0.4327Y0.6986
X0.4393Y1.005
X0.4429Y0.8287
X0.4528Y0.252
X0.4642Y0.6463
X0.4645Y0.7726
X0.4646Y0.8002
X0.4646Y0.7402
X0.4823Y0.5026
X0.4941Y0.8002
X0.5295Y0.0217
X0.5366Y0.6234
X0.5531Y0.9144
X0.5628Y0.4935
X0.563Y0.5157
X0.5697Y0.3498
X0.5709Y0.8937
X0.5866Y0.9154
X0.5965Y0.5256
X0.6024Y0.94
X0.6181Y0.9154
X0.624Y0.0217
X0.6299Y1.0167
X0.6358Y0.5256
X0.6437Y0.6024
X0.6769Y0.3852
X0.6801Y1.0163
X0.7045Y0.3006
X0.7065Y0.3852
X0.7291Y0.3006
X0.7303Y1.0157
X0.7596Y0.525
T5
X0.0787Y1.1024
X0.0787Y0.0787
X0.7087Y1.1024
X0.7087Y0.0787
T4
G00X0.2232Y1.126
M15
G01X0.2232Y1.1496
M16
G05
G00X0.2232Y0.9575
M15
G01X0.2232Y0.989
M16
G05
G00X0.5642Y1.126
M15
G01X0.5642Y1.1496
M16
G05
G00X0.5642Y0.9575
M15
G01X0.5642Y0.989
M16
G05
M30
