%TF.GenerationSoftware,KiCad,Pcbnew,10.0.0-rc1*%
%TF.CreationDate,2026-09-20T17:05:06+01:00*%
%TF.ProjectId,nano-w,6e616e6f-2d77-42e6-9b69-6361645f7063,rev?*%
%TF.SameCoordinates,Original*%
%TF.FileFunction,Soldermask,Bot*%
%TF.FilePolarity,Negative*%
%FSLAX46Y46*%
G04 Gerber Fmt 4.6, Leading zero omitted, Abs format (unit mm)*
G04 Created by KiCad (PCBNEW 10.0.0-rc1) date 2026-09-20 17:05:06*
%MOMM*%
%LPD*%
G01*
G04 APERTURE LIST*
%ADD10C,0.150000*%
%ADD11C,0.000000*%
%ADD12C,3.000000*%
%ADD13C,0.750000*%
%ADD14O,1.200000X2.000000*%
%ADD15O,1.200000X1.800000*%
%ADD16C,2.000000*%
G04 APERTURE END LIST*
D10*
G36*
X7320106Y28691410D02*
G01*
X7289224Y28693473D01*
X7264269Y28700098D01*
X7249255Y28708447D01*
X7237247Y28720000D01*
X7222308Y28751413D01*
X7216486Y28806265D01*
X7216486Y29430000D01*
X7364864Y29430000D01*
X7364864Y28855236D01*
X7366871Y28843376D01*
X7373104Y28836373D01*
X7383060Y28834231D01*
X7625288Y28834231D01*
X7669530Y28836172D01*
X7708542Y28841944D01*
X7739598Y28850457D01*
X7766530Y28862017D01*
X7787961Y28875453D01*
X7805987Y28891428D01*
X7831598Y28929611D01*
X7845421Y28978486D01*
X7847854Y29014666D01*
X7847854Y29430000D01*
X7997697Y29430000D01*
X7997697Y29014666D01*
X7995740Y28971241D01*
X7989859Y28930631D01*
X7980750Y28895130D01*
X7968153Y28862245D01*
X7952879Y28833384D01*
X7934409Y28807018D01*
X7913281Y28783738D01*
X7889084Y28762943D01*
X7831249Y28728939D01*
X7758866Y28705103D01*
X7669183Y28692699D01*
X7625288Y28691410D01*
X7320106Y28691410D01*
G37*
G36*
X8826559Y29428003D02*
G01*
X8860570Y29421836D01*
X8882185Y29413831D01*
X8899558Y29402924D01*
X8921484Y29375397D01*
X8933566Y29334608D01*
X8936933Y29281623D01*
X8936933Y28934737D01*
X8934946Y28896116D01*
X8928852Y28859775D01*
X8919652Y28829198D01*
X8906794Y28801014D01*
X8891591Y28777395D01*
X8873047Y28756217D01*
X8852161Y28738487D01*
X8828038Y28723323D01*
X8800876Y28711008D01*
X8770348Y28701540D01*
X8697238Y28691744D01*
X8679379Y28691410D01*
X8235528Y28691410D01*
X8235528Y28834231D01*
X8677974Y28834231D01*
X8705253Y28836128D01*
X8728432Y28841594D01*
X8746848Y28849802D01*
X8761860Y28860642D01*
X8782261Y28889014D01*
X8791089Y28927147D01*
X8791364Y28936141D01*
X8791364Y28992012D01*
X8439960Y28992012D01*
X8393015Y28993949D01*
X8351578Y28999691D01*
X8318258Y29008208D01*
X8289215Y29019755D01*
X8265725Y29033262D01*
X8245709Y29049299D01*
X8216071Y29087748D01*
X8197761Y29136938D01*
X8191278Y29196321D01*
X8336340Y29196321D01*
X8338373Y29172953D01*
X8344789Y29152918D01*
X8353565Y29139226D01*
X8365809Y29127987D01*
X8399948Y29113695D01*
X8442769Y29109554D01*
X8791364Y29109554D01*
X8791364Y29248040D01*
X8789314Y29264642D01*
X8782778Y29276230D01*
X8763167Y29285010D01*
X8750759Y29285836D01*
X8439960Y29285836D01*
X8412054Y29283921D01*
X8388913Y29278334D01*
X8371847Y29270286D01*
X8358336Y29259585D01*
X8341604Y29231893D01*
X8336340Y29196321D01*
X8191278Y29196321D01*
X8190790Y29200791D01*
X8190771Y29204686D01*
X8192750Y29242912D01*
X8198786Y29278050D01*
X8207781Y29306829D01*
X8220273Y29332882D01*
X8235080Y29354513D01*
X8253076Y29373611D01*
X8273687Y29389652D01*
X8297467Y29403135D01*
X8355888Y29422317D01*
X8432310Y29429964D01*
X8438555Y29430000D01*
X8784342Y29430000D01*
X8826559Y29428003D01*
G37*
G36*
X9250602Y28691410D02*
G01*
X9219719Y28693473D01*
X9194764Y28700098D01*
X9179750Y28708447D01*
X9167742Y28720000D01*
X9152804Y28751413D01*
X9146982Y28806265D01*
X9146982Y29430000D01*
X9295359Y29430000D01*
X9295359Y28855236D01*
X9297366Y28843376D01*
X9303599Y28836373D01*
X9313555Y28834231D01*
X9555783Y28834231D01*
X9600025Y28836172D01*
X9639038Y28841944D01*
X9670094Y28850457D01*
X9697026Y28862017D01*
X9718457Y28875453D01*
X9736483Y28891428D01*
X9762093Y28929611D01*
X9775916Y28978486D01*
X9778349Y29014666D01*
X9778349Y29430000D01*
X9928192Y29430000D01*
X9928192Y29014666D01*
X9926236Y28971241D01*
X9920355Y28930631D01*
X9911246Y28895130D01*
X9898648Y28862245D01*
X9883374Y28833384D01*
X9864905Y28807018D01*
X9843777Y28783738D01*
X9819580Y28762943D01*
X9761744Y28728939D01*
X9689361Y28705103D01*
X9599678Y28692699D01*
X9555783Y28691410D01*
X9250602Y28691410D01*
G37*
G36*
X10619711Y29428043D02*
G01*
X10659344Y29422158D01*
X10694408Y29412979D01*
X10727071Y29400263D01*
X10755954Y29384786D01*
X10782451Y29366048D01*
X10805914Y29344610D01*
X10826931Y29320041D01*
X10861245Y29261532D01*
X10885111Y29188828D01*
X10897197Y29099652D01*
X10898264Y29060705D01*
X10896330Y29008739D01*
X10890609Y28960784D01*
X10881699Y28918628D01*
X10869537Y28880112D01*
X10854857Y28846463D01*
X10837357Y28816157D01*
X10817662Y28789807D01*
X10795462Y28766611D01*
X10744176Y28729778D01*
X10682845Y28704947D01*
X10610176Y28692566D01*
X10577634Y28691410D01*
X10422235Y28691410D01*
X10379903Y28693367D01*
X10340097Y28699252D01*
X10304982Y28708415D01*
X10272315Y28721103D01*
X10243482Y28736533D01*
X10217058Y28755210D01*
X10193677Y28776577D01*
X10172752Y28801063D01*
X10138585Y28859430D01*
X10114807Y28932087D01*
X10102741Y29021420D01*
X10101666Y29060705D01*
X10251448Y29060705D01*
X10253423Y29012329D01*
X10259433Y28970202D01*
X10267908Y28938876D01*
X10279531Y28911898D01*
X10292733Y28891258D01*
X10308601Y28873947D01*
X10346800Y28849707D01*
X10397450Y28836561D01*
X10436279Y28834231D01*
X10563651Y28834231D01*
X10599271Y28836209D01*
X10630888Y28842239D01*
X10655371Y28850973D01*
X10676880Y28863030D01*
X10694339Y28877387D01*
X10709284Y28894811D01*
X10731928Y28939574D01*
X10745415Y29002561D01*
X10748421Y29060705D01*
X10746452Y29108498D01*
X10740484Y29150112D01*
X10732020Y29181296D01*
X10720434Y29208137D01*
X10707233Y29228760D01*
X10691392Y29246043D01*
X10653235Y29270298D01*
X10602697Y29283475D01*
X10563651Y29285836D01*
X10436279Y29285836D01*
X10399945Y29283855D01*
X10367844Y29277799D01*
X10343308Y29269099D01*
X10321828Y29257089D01*
X10304525Y29242840D01*
X10289759Y29225542D01*
X10267493Y29181048D01*
X10254309Y29118056D01*
X10251448Y29060705D01*
X10101666Y29060705D01*
X10103601Y29112979D01*
X10109331Y29161191D01*
X10118237Y29203441D01*
X10130401Y29242025D01*
X10145055Y29275639D01*
X10162535Y29305903D01*
X10182183Y29332159D01*
X10204347Y29355267D01*
X10255559Y29391905D01*
X10316913Y29416585D01*
X10389837Y29428871D01*
X10422235Y29430000D01*
X10577634Y29430000D01*
X10619711Y29428043D01*
G37*
G36*
X11009700Y28914160D02*
G01*
X11009700Y29056981D01*
X11509543Y29056981D01*
X11509543Y28914160D01*
X11009700Y28914160D01*
G37*
G36*
X11564070Y28689823D02*
G01*
X11641068Y29274845D01*
X11648356Y29312629D01*
X11659813Y29346607D01*
X11672399Y29370682D01*
X11688421Y29391822D01*
X11705865Y29407994D01*
X11726557Y29421497D01*
X11776895Y29439481D01*
X11841286Y29445632D01*
X11879308Y29443676D01*
X11913230Y29437799D01*
X11940524Y29429084D01*
X11964667Y29417134D01*
X11984730Y29402815D01*
X12002139Y29385575D01*
X12029483Y29341978D01*
X12045656Y29293041D01*
X12150680Y28843818D01*
X12155612Y28830499D01*
X12163620Y28820333D01*
X12187131Y28809123D01*
X12205269Y28807425D01*
X12224222Y28809420D01*
X12240007Y28815564D01*
X12250130Y28823916D01*
X12257222Y28835384D01*
X12259857Y28843818D01*
X12359264Y29293041D01*
X12368555Y29326206D01*
X12381076Y29355282D01*
X12395146Y29377880D01*
X12412004Y29397214D01*
X12430659Y29412549D01*
X12451985Y29424963D01*
X12503616Y29441176D01*
X12558077Y29445632D01*
X12595246Y29443710D01*
X12628277Y29438075D01*
X12655931Y29429477D01*
X12680165Y29417881D01*
X12700683Y29403808D01*
X12718210Y29387184D01*
X12745344Y29345818D01*
X12762503Y29291575D01*
X12765256Y29274845D01*
X12847871Y28689823D01*
X12686854Y28689823D01*
X12609857Y29266480D01*
X12605004Y29287364D01*
X12595869Y29302167D01*
X12586360Y29308956D01*
X12573828Y29312898D01*
X12559482Y29314046D01*
X12540028Y29312106D01*
X12524927Y29306343D01*
X12515143Y29298370D01*
X12508127Y29287671D01*
X12503489Y29273502D01*
X12404082Y28825622D01*
X12394355Y28792053D01*
X12381279Y28762608D01*
X12366988Y28740416D01*
X12349788Y28721423D01*
X12330926Y28706599D01*
X12309224Y28694638D01*
X12256435Y28679386D01*
X12206673Y28675779D01*
X12169165Y28677725D01*
X12135655Y28683530D01*
X12108276Y28692231D01*
X12084084Y28704115D01*
X12063877Y28718399D01*
X12046411Y28735518D01*
X12019224Y28778502D01*
X12003707Y28825622D01*
X11898683Y29273502D01*
X11891712Y29291400D01*
X11880735Y29304213D01*
X11854930Y29313493D01*
X11844094Y29314046D01*
X11825063Y29312080D01*
X11810773Y29306133D01*
X11795967Y29287279D01*
X11790911Y29266480D01*
X11725087Y28689823D01*
X11564070Y28689823D01*
G37*
D11*
%TO.C,ART1*%
G36*
X12230515Y26989745D02*
G01*
X12230741Y26982386D01*
X12231010Y26978893D01*
X12231398Y26975518D01*
X12231899Y26972272D01*
X12232500Y26969148D01*
X12233224Y26966136D01*
X12234058Y26963260D01*
X12235013Y26960500D01*
X12236082Y26957864D01*
X12237261Y26955344D01*
X12238560Y26952944D01*
X12239979Y26950671D01*
X12241520Y26948514D01*
X12243186Y26946472D01*
X12244958Y26944551D01*
X12246858Y26942749D01*
X12248875Y26941067D01*
X12251029Y26939505D01*
X12253296Y26938057D01*
X12255690Y26936723D01*
X12258209Y26935518D01*
X12260857Y26934421D01*
X12263623Y26933444D01*
X12266527Y26932582D01*
X12269562Y26931840D01*
X12272717Y26931210D01*
X12276004Y26930700D01*
X12279427Y26930291D01*
X12282983Y26930004D01*
X12290483Y26929780D01*
X12454503Y26929780D01*
X12454503Y26839831D01*
X12263145Y26839831D01*
X12254713Y26839955D01*
X12246619Y26840328D01*
X12238842Y26840956D01*
X12231399Y26841832D01*
X12224266Y26842962D01*
X12217461Y26844354D01*
X12210952Y26845999D01*
X12204760Y26847903D01*
X12198859Y26850072D01*
X12193262Y26852496D01*
X12187961Y26855198D01*
X12182941Y26858153D01*
X12178211Y26861381D01*
X12173763Y26864876D01*
X12169607Y26868639D01*
X12165694Y26872678D01*
X12162075Y26876995D01*
X12158713Y26881580D01*
X12155607Y26886443D01*
X12152759Y26891587D01*
X12150165Y26897012D01*
X12147822Y26902719D01*
X12145714Y26908705D01*
X12143849Y26914979D01*
X12142223Y26921540D01*
X12140821Y26928389D01*
X12139648Y26935530D01*
X12138699Y26942958D01*
X12137454Y26958705D01*
X12137044Y26975635D01*
X12137044Y27305442D01*
X12230514Y27305442D01*
X12230515Y26989745D01*
G37*
G36*
X12639693Y27111440D02*
G01*
X12682897Y27111440D01*
X12697548Y27111541D01*
X12710819Y27111877D01*
X12722812Y27112489D01*
X12733633Y27113437D01*
X12743388Y27114755D01*
X12752189Y27116510D01*
X12760132Y27118727D01*
X12767338Y27121466D01*
X12773896Y27124778D01*
X12779920Y27128710D01*
X12785512Y27133294D01*
X12790787Y27138599D01*
X12795844Y27144656D01*
X12800791Y27151524D01*
X12805731Y27159246D01*
X12810765Y27167878D01*
X12888371Y27305442D01*
X12993305Y27305442D01*
X12909527Y27159050D01*
X12904295Y27150188D01*
X12899148Y27141777D01*
X12894044Y27133805D01*
X12888942Y27126278D01*
X12883819Y27119189D01*
X12878626Y27112541D01*
X12873319Y27106323D01*
X12867862Y27100522D01*
X12862225Y27095158D01*
X12856363Y27090208D01*
X12850244Y27085667D01*
X12843805Y27081551D01*
X12837042Y27077839D01*
X12829888Y27074530D01*
X12822314Y27071625D01*
X12814297Y27069110D01*
X12821218Y27066014D01*
X12827797Y27062687D01*
X12834046Y27059122D01*
X12840025Y27055285D01*
X12845711Y27051199D01*
X12851143Y27046833D01*
X12856350Y27042193D01*
X12861356Y27037255D01*
X12866190Y27032021D01*
X12870883Y27026473D01*
X12875443Y27020608D01*
X12879895Y27014424D01*
X12884277Y27007893D01*
X12888594Y27001026D01*
X12892895Y26993801D01*
X12897185Y26986220D01*
X12978311Y26839831D01*
X12876908Y26839831D01*
X12799304Y26980041D01*
X12794304Y26988773D01*
X12789490Y26996494D01*
X12787125Y26999992D01*
X12784757Y27003267D01*
X12782388Y27006310D01*
X12779995Y27009143D01*
X12777584Y27011772D01*
X12775115Y27014196D01*
X12772591Y27016437D01*
X12769992Y27018482D01*
X12767307Y27020359D01*
X12764532Y27022072D01*
X12761646Y27023616D01*
X12758626Y27025017D01*
X12755481Y27026265D01*
X12752183Y27027383D01*
X12748711Y27028368D01*
X12745069Y27029234D01*
X12741251Y27029982D01*
X12737218Y27030626D01*
X12732969Y27031174D01*
X12728490Y27031632D01*
X12718812Y27032302D01*
X12708046Y27032706D01*
X12696113Y27032902D01*
X12682897Y27032950D01*
X12639693Y27032950D01*
X12639693Y26637888D01*
X12546210Y26637888D01*
X12546210Y27305442D01*
X12639693Y27305442D01*
X12639693Y27111440D01*
G37*
G36*
X7341250Y27214531D02*
G01*
X7342823Y27214423D01*
X7344329Y27214273D01*
X7345771Y27214084D01*
X7347150Y27213853D01*
X7348465Y27213571D01*
X7349720Y27213249D01*
X7350908Y27212878D01*
X7352048Y27212462D01*
X7353125Y27212007D01*
X7354139Y27211495D01*
X7355108Y27210939D01*
X7356004Y27210340D01*
X7356849Y27209691D01*
X7357648Y27208991D01*
X7358380Y27208245D01*
X7359062Y27207445D01*
X7359692Y27206596D01*
X7360277Y27205695D01*
X7360804Y27204753D01*
X7361282Y27203747D01*
X7361708Y27202700D01*
X7362095Y27201592D01*
X7362424Y27200432D01*
X7362713Y27199223D01*
X7362954Y27197957D01*
X7363144Y27196637D01*
X7363295Y27195252D01*
X7363405Y27193831D01*
X7363485Y27190803D01*
X7363484Y27103503D01*
X7143907Y27103503D01*
X7139364Y27103558D01*
X7135021Y27103734D01*
X7130842Y27104031D01*
X7126848Y27104442D01*
X7123029Y27104961D01*
X7119379Y27105601D01*
X7115910Y27106351D01*
X7112604Y27107209D01*
X7109456Y27108177D01*
X7106480Y27109255D01*
X7103664Y27110434D01*
X7100998Y27111731D01*
X7098493Y27113128D01*
X7096142Y27114630D01*
X7093935Y27116238D01*
X7091876Y27117939D01*
X7089964Y27119746D01*
X7088194Y27121655D01*
X7086567Y27123656D01*
X7085069Y27125759D01*
X7083712Y27127965D01*
X7082485Y27130259D01*
X7081386Y27132640D01*
X7080413Y27135122D01*
X7079566Y27137694D01*
X7078840Y27140355D01*
X7078233Y27143108D01*
X7077739Y27145950D01*
X7077360Y27148875D01*
X7077100Y27151892D01*
X7076891Y27158180D01*
X7077108Y27164476D01*
X7077773Y27170472D01*
X7078285Y27173357D01*
X7078903Y27176158D01*
X7079650Y27178872D01*
X7080517Y27181506D01*
X7081504Y27184044D01*
X7082611Y27186501D01*
X7083848Y27188873D01*
X7085215Y27191147D01*
X7086707Y27193329D01*
X7088326Y27195418D01*
X7090096Y27197399D01*
X7091991Y27199291D01*
X7094021Y27201082D01*
X7096192Y27202756D01*
X7098503Y27204350D01*
X7100953Y27205822D01*
X7103557Y27207188D01*
X7106302Y27208448D01*
X7109191Y27209595D01*
X7112231Y27210631D01*
X7115424Y27211552D01*
X7118762Y27212351D01*
X7122269Y27213037D01*
X7125917Y27213597D01*
X7129736Y27214042D01*
X7133710Y27214356D01*
X7137846Y27214546D01*
X7142142Y27214614D01*
X7337910Y27214614D01*
X7341250Y27214531D01*
G37*
G36*
X8711623Y27214531D02*
G01*
X8713198Y27214423D01*
X8714706Y27214273D01*
X8716147Y27214084D01*
X8717528Y27213853D01*
X8718843Y27213571D01*
X8720094Y27213249D01*
X8721291Y27212878D01*
X8722427Y27212462D01*
X8723500Y27212007D01*
X8724519Y27211495D01*
X8725478Y27210939D01*
X8726382Y27210340D01*
X8727230Y27209691D01*
X8728025Y27208991D01*
X8728752Y27208245D01*
X8729438Y27207445D01*
X8730068Y27206596D01*
X8730659Y27205695D01*
X8731182Y27204753D01*
X8731660Y27203747D01*
X8732090Y27202700D01*
X8732472Y27201592D01*
X8732797Y27200432D01*
X8733094Y27199224D01*
X8733330Y27197957D01*
X8733525Y27196637D01*
X8733672Y27195252D01*
X8733778Y27193831D01*
X8733865Y27190803D01*
X8733864Y27103503D01*
X8514282Y27103503D01*
X8509744Y27103558D01*
X8505396Y27103734D01*
X8501218Y27104031D01*
X8497226Y27104442D01*
X8493405Y27104960D01*
X8489759Y27105601D01*
X8486284Y27106351D01*
X8482975Y27107209D01*
X8479836Y27108177D01*
X8476854Y27109255D01*
X8474040Y27110434D01*
X8471382Y27111731D01*
X8468870Y27113127D01*
X8466516Y27114630D01*
X8464313Y27116238D01*
X8462254Y27117939D01*
X8460340Y27119747D01*
X8458574Y27121655D01*
X8456946Y27123656D01*
X8455451Y27125758D01*
X8454090Y27127964D01*
X8452861Y27130259D01*
X8451770Y27132640D01*
X8450796Y27135122D01*
X8449948Y27137694D01*
X8449218Y27140355D01*
X8448606Y27143108D01*
X8448117Y27145951D01*
X8447740Y27148875D01*
X8447476Y27151893D01*
X8447265Y27158180D01*
X8447487Y27164476D01*
X8448151Y27170473D01*
X8448654Y27173357D01*
X8449283Y27176158D01*
X8450029Y27178872D01*
X8450887Y27181506D01*
X8451877Y27184044D01*
X8452979Y27186500D01*
X8454227Y27188873D01*
X8455588Y27191147D01*
X8457089Y27193329D01*
X8458713Y27195418D01*
X8460469Y27197399D01*
X8462368Y27199291D01*
X8464397Y27201081D01*
X8466573Y27202756D01*
X8468883Y27204350D01*
X8471331Y27205822D01*
X8473935Y27207187D01*
X8476674Y27208448D01*
X8479572Y27209594D01*
X8482605Y27210631D01*
X8485797Y27211552D01*
X8489145Y27212351D01*
X8492638Y27213037D01*
X8496304Y27213597D01*
X8500112Y27214042D01*
X8504087Y27214356D01*
X8508215Y27214547D01*
X8512528Y27214614D01*
X8708289Y27214614D01*
X8711623Y27214531D01*
G37*
G36*
X13331050Y27305441D02*
G01*
X13341109Y27305272D01*
X13350786Y27304768D01*
X13360076Y27303937D01*
X13368998Y27302783D01*
X13377558Y27301309D01*
X13385737Y27299524D01*
X13393557Y27297440D01*
X13401021Y27295048D01*
X13408127Y27292374D01*
X13414892Y27289416D01*
X13421304Y27286172D01*
X13427378Y27282650D01*
X13433114Y27278873D01*
X13438514Y27274829D01*
X13443590Y27270530D01*
X13448343Y27265981D01*
X13452764Y27261187D01*
X13456875Y27256162D01*
X13460674Y27250901D01*
X13464176Y27245417D01*
X13467367Y27239714D01*
X13470255Y27233806D01*
X13472844Y27227683D01*
X13475150Y27221366D01*
X13477159Y27214854D01*
X13478900Y27208152D01*
X13481540Y27194210D01*
X13483105Y27179592D01*
X13483607Y27164348D01*
X13483210Y27150955D01*
X13481954Y27137942D01*
X13480977Y27131597D01*
X13479749Y27125367D01*
X13478267Y27119268D01*
X13476503Y27113313D01*
X13474458Y27107493D01*
X13472111Y27101830D01*
X13469465Y27096330D01*
X13466497Y27090998D01*
X13463198Y27085849D01*
X13459557Y27080873D01*
X13455564Y27076104D01*
X13451202Y27071541D01*
X13446460Y27067173D01*
X13441344Y27063041D01*
X13435809Y27059132D01*
X13429871Y27055465D01*
X13423513Y27052033D01*
X13416705Y27048865D01*
X13409471Y27045952D01*
X13401765Y27043313D01*
X13393591Y27040953D01*
X13384934Y27038883D01*
X13375786Y27037106D01*
X13366131Y27035633D01*
X13355964Y27034479D01*
X13345263Y27033637D01*
X13334022Y27033124D01*
X13322232Y27032950D01*
X13212886Y27032950D01*
X13203569Y27032749D01*
X13195109Y27032129D01*
X13187463Y27031113D01*
X13183938Y27030447D01*
X13180606Y27029688D01*
X13177458Y27028827D01*
X13174489Y27027866D01*
X13171708Y27026814D01*
X13169098Y27025647D01*
X13166658Y27024397D01*
X13164379Y27023052D01*
X13162261Y27021599D01*
X13160306Y27020054D01*
X13158502Y27018419D01*
X13156841Y27016682D01*
X13155337Y27014861D01*
X13153962Y27012930D01*
X13152716Y27010916D01*
X13151609Y27008809D01*
X13150629Y27006603D01*
X13149769Y27004311D01*
X13149024Y27001917D01*
X13148394Y26999443D01*
X13147457Y26994218D01*
X13146925Y26988629D01*
X13146750Y26982685D01*
X13146800Y26979433D01*
X13146952Y26976280D01*
X13147218Y26973229D01*
X13147590Y26970289D01*
X13148072Y26967449D01*
X13148657Y26964707D01*
X13149363Y26962076D01*
X13150177Y26959542D01*
X13151108Y26957112D01*
X13152160Y26954790D01*
X13153320Y26952565D01*
X13154606Y26950445D01*
X13156017Y26948430D01*
X13157543Y26946522D01*
X13159193Y26944711D01*
X13160970Y26943009D01*
X13162870Y26941404D01*
X13164900Y26939904D01*
X13167061Y26938514D01*
X13169356Y26937228D01*
X13171778Y26936030D01*
X13174335Y26934949D01*
X13177029Y26933964D01*
X13179856Y26933086D01*
X13182827Y26932310D01*
X13185935Y26931638D01*
X13189184Y26931074D01*
X13192580Y26930610D01*
X13196116Y26930244D01*
X13199794Y26929985D01*
X13203621Y26929831D01*
X13207592Y26929780D01*
X13465097Y26929780D01*
X13465097Y26839831D01*
X13206710Y26839831D01*
X13196736Y26839987D01*
X13187136Y26840436D01*
X13177911Y26841188D01*
X13169053Y26842230D01*
X13160564Y26843562D01*
X13152437Y26845188D01*
X13144664Y26847084D01*
X13137256Y26849268D01*
X13130189Y26851723D01*
X13123471Y26854456D01*
X13117094Y26857445D01*
X13111051Y26860708D01*
X13105354Y26864235D01*
X13099979Y26868009D01*
X13094926Y26872038D01*
X13090202Y26876315D01*
X13085787Y26880839D01*
X13081693Y26885607D01*
X13077917Y26890612D01*
X13074425Y26895850D01*
X13071252Y26901317D01*
X13068365Y26907015D01*
X13065783Y26912936D01*
X13063485Y26919075D01*
X13061468Y26925427D01*
X13059741Y26931991D01*
X13058291Y26938769D01*
X13057102Y26945743D01*
X13055547Y26960307D01*
X13055040Y26975635D01*
X13055419Y26988926D01*
X13056654Y27001978D01*
X13058816Y27014690D01*
X13060275Y27020901D01*
X13062005Y27026988D01*
X13064022Y27032950D01*
X13066331Y27038779D01*
X13068941Y27044469D01*
X13071869Y27049991D01*
X13075126Y27055355D01*
X13078727Y27060530D01*
X13082682Y27065530D01*
X13087000Y27070325D01*
X13091699Y27074912D01*
X13096784Y27079270D01*
X13102277Y27083408D01*
X13108176Y27087305D01*
X13114492Y27090945D01*
X13121261Y27094327D01*
X13128471Y27097436D01*
X13136136Y27100259D01*
X13144283Y27102793D01*
X13152917Y27105030D01*
X13162032Y27106938D01*
X13171674Y27108532D01*
X13181827Y27109783D01*
X13192503Y27110698D01*
X13203742Y27111249D01*
X13215527Y27111440D01*
X13325756Y27111440D01*
X13334211Y27111618D01*
X13342018Y27112153D01*
X13349216Y27113064D01*
X13355809Y27114360D01*
X13358885Y27115155D01*
X13361809Y27116044D01*
X13364587Y27117041D01*
X13367228Y27118132D01*
X13369726Y27119329D01*
X13372071Y27120643D01*
X13374285Y27122041D01*
X13376354Y27123564D01*
X13378298Y27125195D01*
X13380097Y27126922D01*
X13381759Y27128775D01*
X13383303Y27130727D01*
X13384701Y27132800D01*
X13385971Y27134988D01*
X13387122Y27137289D01*
X13388134Y27139713D01*
X13389035Y27142246D01*
X13389802Y27144910D01*
X13390447Y27147692D01*
X13390972Y27150596D01*
X13391669Y27156781D01*
X13391896Y27163464D01*
X13391850Y27166795D01*
X13391688Y27170000D01*
X13391429Y27173076D01*
X13391062Y27176049D01*
X13390577Y27178886D01*
X13389981Y27181612D01*
X13389279Y27184217D01*
X13388468Y27186710D01*
X13387540Y27189088D01*
X13386487Y27191351D01*
X13385313Y27193498D01*
X13384041Y27195541D01*
X13382638Y27197462D01*
X13381105Y27199282D01*
X13379459Y27200993D01*
X13377676Y27202602D01*
X13375780Y27204093D01*
X13373747Y27205491D01*
X13371587Y27206773D01*
X13369299Y27207962D01*
X13366874Y27209048D01*
X13364314Y27210026D01*
X13361620Y27210914D01*
X13358790Y27211702D01*
X13355825Y27212397D01*
X13352712Y27212992D01*
X13349464Y27213493D01*
X13346071Y27213897D01*
X13338857Y27214440D01*
X13331050Y27214614D01*
X13060323Y27214614D01*
X13060324Y27305442D01*
X13331050Y27305441D01*
G37*
G36*
X11835434Y27305220D02*
G01*
X11846603Y27304548D01*
X11857495Y27303438D01*
X11868113Y27301873D01*
X11878435Y27299865D01*
X11888471Y27297406D01*
X11898200Y27294498D01*
X11907626Y27291138D01*
X11916738Y27287325D01*
X11925537Y27283064D01*
X11934005Y27278348D01*
X11942137Y27273170D01*
X11949937Y27267541D01*
X11957395Y27261451D01*
X11964501Y27254904D01*
X11971256Y27247902D01*
X11977652Y27240437D01*
X11983671Y27232512D01*
X11989319Y27224126D01*
X11994592Y27215280D01*
X11999469Y27205964D01*
X12003960Y27196188D01*
X12008052Y27185951D01*
X12011743Y27175231D01*
X12015013Y27164058D01*
X12017878Y27152412D01*
X12020309Y27140294D01*
X12022325Y27127703D01*
X12023893Y27114648D01*
X12025018Y27101121D01*
X12025701Y27087109D01*
X12025934Y27072629D01*
X12025701Y27058160D01*
X12025017Y27044152D01*
X12023893Y27030624D01*
X12022323Y27017567D01*
X12020309Y27004984D01*
X12017878Y26992865D01*
X12015013Y26981221D01*
X12011744Y26970040D01*
X12008052Y26959329D01*
X12003960Y26949088D01*
X11999469Y26939311D01*
X11994592Y26929995D01*
X11989319Y26921149D01*
X11983671Y26912759D01*
X11977652Y26904837D01*
X11971256Y26897375D01*
X11964501Y26890367D01*
X11957395Y26883818D01*
X11949937Y26877741D01*
X11942137Y26872106D01*
X11934005Y26866932D01*
X11925537Y26862213D01*
X11916738Y26857947D01*
X11907626Y26854134D01*
X11898201Y26850778D01*
X11888472Y26847862D01*
X11878435Y26845409D01*
X11868112Y26843391D01*
X11857495Y26841832D01*
X11846603Y26840726D01*
X11823986Y26839831D01*
X11726109Y26839831D01*
X11714587Y26840052D01*
X11703347Y26840726D01*
X11692392Y26841832D01*
X11681730Y26843391D01*
X11671359Y26845409D01*
X11661304Y26847862D01*
X11651544Y26850777D01*
X11642094Y26854134D01*
X11632972Y26857947D01*
X11624169Y26862213D01*
X11615708Y26866932D01*
X11607573Y26872106D01*
X11599780Y26877741D01*
X11592335Y26883818D01*
X11585243Y26890367D01*
X11578512Y26897375D01*
X11572137Y26904837D01*
X11566136Y26912759D01*
X11560517Y26921149D01*
X11555277Y26929995D01*
X11550424Y26939311D01*
X11545957Y26949088D01*
X11541896Y26959330D01*
X11538227Y26970040D01*
X11534982Y26981221D01*
X11532146Y26992869D01*
X11529731Y27004984D01*
X11527747Y27017567D01*
X11526185Y27030624D01*
X11525065Y27044152D01*
X11524393Y27058161D01*
X11524169Y27072629D01*
X11618521Y27072629D01*
X11618939Y27054465D01*
X11620188Y27037637D01*
X11622308Y27022124D01*
X11625298Y27007900D01*
X11627130Y27001272D01*
X11629178Y26994950D01*
X11631452Y26988954D01*
X11633960Y26983253D01*
X11636698Y26977871D01*
X11639663Y26972782D01*
X11642860Y26967992D01*
X11646299Y26963512D01*
X11649975Y26959316D01*
X11653884Y26955409D01*
X11658040Y26951797D01*
X11662441Y26948476D01*
X11667078Y26945426D01*
X11671977Y26942666D01*
X11677119Y26940180D01*
X11682508Y26937961D01*
X11688152Y26936023D01*
X11694056Y26934347D01*
X11700209Y26932936D01*
X11706628Y26931798D01*
X11720243Y26930280D01*
X11734928Y26929780D01*
X11815172Y26929780D01*
X11822566Y26929901D01*
X11829703Y26930280D01*
X11836588Y26930909D01*
X11843209Y26931798D01*
X11849582Y26932936D01*
X11855714Y26934348D01*
X11861589Y26936023D01*
X11867215Y26937962D01*
X11872594Y26940180D01*
X11877726Y26942666D01*
X11882621Y26945426D01*
X11887263Y26948476D01*
X11891676Y26951797D01*
X11895840Y26955409D01*
X11899772Y26959316D01*
X11903463Y26963512D01*
X11906918Y26967992D01*
X11910151Y26972782D01*
X11913141Y26977871D01*
X11915908Y26983253D01*
X11918433Y26988955D01*
X11920740Y26994950D01*
X11922823Y27001272D01*
X11924668Y27007900D01*
X11926299Y27014853D01*
X11927709Y27022124D01*
X11928899Y27029713D01*
X11929861Y27037637D01*
X11930610Y27045887D01*
X11931150Y27054465D01*
X11931579Y27072629D01*
X11931150Y27090797D01*
X11929861Y27107595D01*
X11927709Y27123073D01*
X11926299Y27130315D01*
X11924667Y27137229D01*
X11922823Y27143829D01*
X11920740Y27150114D01*
X11918433Y27156079D01*
X11915908Y27161741D01*
X11913141Y27167090D01*
X11910151Y27172135D01*
X11906918Y27176878D01*
X11903463Y27181324D01*
X11899772Y27185473D01*
X11895840Y27189334D01*
X11891676Y27192910D01*
X11887263Y27196203D01*
X11882621Y27199208D01*
X11877726Y27201927D01*
X11872593Y27204388D01*
X11867215Y27206566D01*
X11861588Y27208479D01*
X11855714Y27210129D01*
X11849582Y27211512D01*
X11843209Y27212634D01*
X11829703Y27214123D01*
X11815172Y27214614D01*
X11734928Y27214614D01*
X11727457Y27214498D01*
X11720243Y27214123D01*
X11713306Y27213509D01*
X11706628Y27212634D01*
X11700208Y27211511D01*
X11694056Y27210128D01*
X11688152Y27208479D01*
X11682508Y27206566D01*
X11677119Y27204388D01*
X11671976Y27201927D01*
X11667078Y27199208D01*
X11662441Y27196202D01*
X11658040Y27192910D01*
X11653884Y27189334D01*
X11649975Y27185473D01*
X11646299Y27181324D01*
X11642859Y27176878D01*
X11639663Y27172135D01*
X11636698Y27167090D01*
X11633960Y27161741D01*
X11631452Y27156079D01*
X11629178Y27150114D01*
X11627130Y27143829D01*
X11625299Y27137229D01*
X11623694Y27130315D01*
X11622308Y27123073D01*
X11621143Y27115498D01*
X11620187Y27107595D01*
X11619460Y27099372D01*
X11618939Y27090797D01*
X11618521Y27072629D01*
X11524169Y27072629D01*
X11525064Y27101121D01*
X11526185Y27114648D01*
X11527747Y27127703D01*
X11529732Y27140294D01*
X11532146Y27152412D01*
X11534982Y27164058D01*
X11538227Y27175230D01*
X11541897Y27185951D01*
X11545958Y27196188D01*
X11550420Y27205963D01*
X11555277Y27215280D01*
X11560517Y27224126D01*
X11566136Y27232513D01*
X11572137Y27240437D01*
X11578512Y27247902D01*
X11585243Y27254904D01*
X11592335Y27261451D01*
X11599780Y27267541D01*
X11607568Y27273170D01*
X11615708Y27278348D01*
X11624169Y27283064D01*
X11632972Y27287325D01*
X11642094Y27291138D01*
X11651544Y27294498D01*
X11661304Y27297406D01*
X11671359Y27299865D01*
X11681730Y27301873D01*
X11692391Y27303438D01*
X11703347Y27304548D01*
X11726109Y27305442D01*
X11823985Y27305442D01*
X11835434Y27305220D01*
G37*
G36*
X11277990Y27315892D02*
G01*
X11285514Y27315521D01*
X11292766Y27314905D01*
X11299746Y27314042D01*
X11306462Y27312942D01*
X11312919Y27311617D01*
X11319114Y27310054D01*
X11325060Y27308264D01*
X11330749Y27306268D01*
X11336201Y27304033D01*
X11341406Y27301599D01*
X11346369Y27298952D01*
X11351096Y27296108D01*
X11355590Y27293061D01*
X11359853Y27289813D01*
X11363885Y27286377D01*
X11367706Y27282740D01*
X11371300Y27278933D01*
X11374685Y27274942D01*
X11377858Y27270772D01*
X11380830Y27266424D01*
X11383580Y27261912D01*
X11386136Y27257245D01*
X11388500Y27252404D01*
X11392641Y27242274D01*
X11396037Y27231546D01*
X11398717Y27220262D01*
X11400708Y27208440D01*
X11452734Y26839831D01*
X11351325Y26839831D01*
X11302819Y27203152D01*
X11302267Y27206824D01*
X11301568Y27210264D01*
X11300731Y27213447D01*
X11299722Y27216393D01*
X11299155Y27217775D01*
X11298548Y27219090D01*
X11297895Y27220343D01*
X11297198Y27221545D01*
X11296446Y27222683D01*
X11295649Y27223766D01*
X11294795Y27224790D01*
X11293893Y27225747D01*
X11292941Y27226647D01*
X11291921Y27227484D01*
X11290852Y27228267D01*
X11289727Y27228989D01*
X11288532Y27229661D01*
X11287289Y27230264D01*
X11285972Y27230813D01*
X11284592Y27231300D01*
X11283154Y27231726D01*
X11281637Y27232099D01*
X11280059Y27232421D01*
X11278417Y27232675D01*
X11276689Y27232875D01*
X11274893Y27233023D01*
X11271074Y27233133D01*
X11267233Y27233027D01*
X11263630Y27232726D01*
X11260263Y27232206D01*
X11257135Y27231492D01*
X11255654Y27231053D01*
X11254229Y27230571D01*
X11252860Y27230041D01*
X11251545Y27229460D01*
X11250284Y27228827D01*
X11249078Y27228143D01*
X11247928Y27227407D01*
X11246829Y27226625D01*
X11245781Y27225796D01*
X11244777Y27224921D01*
X11243835Y27223992D01*
X11242934Y27223007D01*
X11242088Y27221987D01*
X11241281Y27220911D01*
X11240529Y27219790D01*
X11239826Y27218625D01*
X11238554Y27216142D01*
X11237470Y27213466D01*
X11236548Y27210606D01*
X11235810Y27207556D01*
X11173194Y26925376D01*
X11170286Y26914135D01*
X11166841Y26903589D01*
X11164904Y26898576D01*
X11162826Y26893744D01*
X11160596Y26889072D01*
X11158223Y26884582D01*
X11155701Y26880269D01*
X11153024Y26876126D01*
X11150183Y26872173D01*
X11147184Y26868386D01*
X11144018Y26864782D01*
X11140687Y26861356D01*
X11137188Y26858107D01*
X11133511Y26855043D01*
X11129658Y26852155D01*
X11125631Y26849455D01*
X11121425Y26846932D01*
X11117028Y26844596D01*
X11112452Y26842436D01*
X11107675Y26840459D01*
X11102706Y26838680D01*
X11097548Y26837079D01*
X11092185Y26835657D01*
X11086624Y26834427D01*
X11080862Y26833387D01*
X11074885Y26832540D01*
X11068701Y26831870D01*
X11062303Y26831400D01*
X11055695Y26831109D01*
X11048846Y26831015D01*
X11035367Y26831400D01*
X11022666Y26832540D01*
X11010753Y26834427D01*
X10999606Y26837079D01*
X10994323Y26838679D01*
X10989218Y26840458D01*
X10984301Y26842436D01*
X10979569Y26844596D01*
X10975012Y26846931D01*
X10970644Y26849455D01*
X10966445Y26852155D01*
X10962433Y26855043D01*
X10958589Y26858107D01*
X10954934Y26861357D01*
X10951438Y26864782D01*
X10948112Y26868386D01*
X10944963Y26872173D01*
X10941969Y26876126D01*
X10939154Y26880270D01*
X10936506Y26884582D01*
X10931675Y26893744D01*
X10927502Y26903588D01*
X10923936Y26914135D01*
X10920985Y26925377D01*
X10854856Y27207556D01*
X10853974Y27210607D01*
X10852969Y27213466D01*
X10851852Y27216142D01*
X10851239Y27217409D01*
X10850594Y27218625D01*
X10849901Y27219795D01*
X10849182Y27220911D01*
X10848412Y27221987D01*
X10847615Y27223007D01*
X10846757Y27223992D01*
X10845866Y27224921D01*
X10844928Y27225796D01*
X10843935Y27226625D01*
X10842903Y27227407D01*
X10841807Y27228143D01*
X10840670Y27228827D01*
X10839477Y27229460D01*
X10838233Y27230041D01*
X10836920Y27230571D01*
X10835562Y27231053D01*
X10834143Y27231492D01*
X10832658Y27231874D01*
X10831105Y27232206D01*
X10829502Y27232487D01*
X10827826Y27232726D01*
X10826090Y27232893D01*
X10824281Y27233027D01*
X10822404Y27233109D01*
X10820456Y27233133D01*
X10816476Y27233023D01*
X10814601Y27232875D01*
X10812799Y27232675D01*
X10811072Y27232421D01*
X10809406Y27232100D01*
X10807812Y27231725D01*
X10806294Y27231300D01*
X10804837Y27230813D01*
X10803451Y27230264D01*
X10802120Y27229661D01*
X10800866Y27228989D01*
X10799666Y27228267D01*
X10798528Y27227484D01*
X10797448Y27226647D01*
X10796432Y27225747D01*
X10795463Y27224790D01*
X10794555Y27223766D01*
X10793703Y27222683D01*
X10792903Y27221545D01*
X10792148Y27220343D01*
X10791453Y27219089D01*
X10790802Y27217775D01*
X10790202Y27216393D01*
X10789639Y27214947D01*
X10789134Y27213447D01*
X10788235Y27210264D01*
X10787515Y27206824D01*
X10786943Y27203152D01*
X10745503Y26839831D01*
X10644087Y26839831D01*
X10692592Y27208440D01*
X10694506Y27220262D01*
X10696998Y27231546D01*
X10700094Y27242274D01*
X10703861Y27252404D01*
X10706009Y27257245D01*
X10708341Y27261912D01*
X10710864Y27266424D01*
X10713581Y27270772D01*
X10716497Y27274942D01*
X10719632Y27278933D01*
X10722980Y27282740D01*
X10726544Y27286377D01*
X10730331Y27289813D01*
X10734356Y27293061D01*
X10738625Y27296108D01*
X10743141Y27298952D01*
X10747904Y27301599D01*
X10752928Y27304034D01*
X10758220Y27306268D01*
X10763768Y27308263D01*
X10769605Y27310055D01*
X10775719Y27311617D01*
X10782126Y27312942D01*
X10788826Y27314042D01*
X10795830Y27314905D01*
X10803134Y27315521D01*
X10810758Y27315892D01*
X10818697Y27316018D01*
X10832179Y27315657D01*
X10844875Y27314532D01*
X10856795Y27312672D01*
X10867952Y27310059D01*
X10873247Y27308472D01*
X10878365Y27306698D01*
X10883290Y27304737D01*
X10888037Y27302585D01*
X10892596Y27300249D01*
X10896981Y27297719D01*
X10901193Y27295004D01*
X10905230Y27292105D01*
X10909087Y27289016D01*
X10912774Y27285737D01*
X10916287Y27282266D01*
X10919645Y27278611D01*
X10922837Y27274756D01*
X10925854Y27270722D01*
X10928715Y27266496D01*
X10931416Y27262079D01*
X10936337Y27252678D01*
X10940648Y27242522D01*
X10944340Y27231594D01*
X10947445Y27219908D01*
X11013575Y26936836D01*
X11013937Y26935375D01*
X11014344Y26933961D01*
X11014806Y26932606D01*
X11015314Y26931286D01*
X11015866Y26930032D01*
X11016478Y26928821D01*
X11017132Y26927660D01*
X11017838Y26926559D01*
X11018582Y26925494D01*
X11019390Y26924478D01*
X11020234Y26923521D01*
X11021127Y26922606D01*
X11022067Y26921741D01*
X11023049Y26920914D01*
X11024080Y26920146D01*
X11025151Y26919418D01*
X11026274Y26918741D01*
X11027433Y26918105D01*
X11028634Y26917516D01*
X11029881Y26916976D01*
X11031171Y26916479D01*
X11032492Y26916025D01*
X11033871Y26915613D01*
X11035280Y26915261D01*
X11036736Y26914940D01*
X11038221Y26914664D01*
X11039754Y26914428D01*
X11041322Y26914238D01*
X11044573Y26913985D01*
X11047969Y26913901D01*
X11051228Y26913985D01*
X11054366Y26914238D01*
X11057389Y26914664D01*
X11060290Y26915261D01*
X11063054Y26916025D01*
X11065674Y26916976D01*
X11068144Y26918105D01*
X11070456Y26919418D01*
X11071558Y26920146D01*
X11072603Y26920914D01*
X11073620Y26921741D01*
X11074582Y26922606D01*
X11075499Y26923521D01*
X11076375Y26924478D01*
X11077205Y26925495D01*
X11077982Y26926559D01*
X11078710Y26927660D01*
X11079391Y26928822D01*
X11080019Y26930032D01*
X11080598Y26931287D01*
X11081120Y26932606D01*
X11081588Y26933961D01*
X11082003Y26935375D01*
X11082365Y26936836D01*
X11144973Y27219908D01*
X11147919Y27231594D01*
X11149602Y27237148D01*
X11151438Y27242522D01*
X11153430Y27247691D01*
X11155573Y27252678D01*
X11157873Y27257472D01*
X11160321Y27262079D01*
X11162935Y27266496D01*
X11165704Y27270722D01*
X11168635Y27274756D01*
X11171733Y27278611D01*
X11174986Y27282266D01*
X11178410Y27285737D01*
X11182000Y27289016D01*
X11185755Y27292105D01*
X11189686Y27295004D01*
X11193787Y27297727D01*
X11198059Y27300249D01*
X11202519Y27302584D01*
X11207144Y27304737D01*
X11211946Y27306698D01*
X11216940Y27308471D01*
X11222106Y27310060D01*
X11227462Y27311457D01*
X11232993Y27312672D01*
X11238725Y27313699D01*
X11244632Y27314532D01*
X11250738Y27315186D01*
X11257030Y27315657D01*
X11270194Y27316018D01*
X11277990Y27315892D01*
G37*
G36*
X13020472Y28297214D02*
G01*
X13081318Y28292581D01*
X13141277Y28284951D01*
X13200285Y28274400D01*
X13258268Y28261004D01*
X13315137Y28244836D01*
X13370817Y28225982D01*
X13425245Y28204505D01*
X13478335Y28180491D01*
X13530024Y28153996D01*
X13580227Y28125123D01*
X13628860Y28093928D01*
X13675868Y28060493D01*
X13721154Y28024894D01*
X13764659Y27987205D01*
X13806307Y27947496D01*
X13846007Y27905859D01*
X13883697Y27862355D01*
X13919297Y27817065D01*
X13952732Y27770059D01*
X13983923Y27721415D01*
X14012806Y27671222D01*
X14039294Y27619536D01*
X14063309Y27566443D01*
X14084795Y27512017D01*
X14103645Y27456327D01*
X14119814Y27399453D01*
X14133207Y27341478D01*
X14143753Y27282476D01*
X14151382Y27222513D01*
X14156019Y27161666D01*
X14157578Y27100019D01*
X14156020Y27038374D01*
X14151382Y26977527D01*
X14143753Y26917564D01*
X14133207Y26858561D01*
X14119814Y26800583D01*
X14103645Y26743707D01*
X14084794Y26688023D01*
X14063309Y26633597D01*
X14039295Y26580501D01*
X14012806Y26528818D01*
X13983923Y26478621D01*
X13952732Y26429977D01*
X13919297Y26382975D01*
X13883697Y26337684D01*
X13846008Y26294177D01*
X13806307Y26252543D01*
X13764659Y26212831D01*
X13721154Y26175146D01*
X13675868Y26139546D01*
X13628860Y26106111D01*
X13580226Y26074917D01*
X13530023Y26046041D01*
X13478335Y26019546D01*
X13425245Y25995533D01*
X13370817Y25974055D01*
X13315137Y25955198D01*
X13258268Y25939035D01*
X13200285Y25925640D01*
X13141277Y25915088D01*
X13081318Y25907456D01*
X13020472Y25902824D01*
X12958822Y25901262D01*
X7363944Y25901262D01*
X7302294Y25902824D01*
X7241453Y25907456D01*
X7181491Y25915088D01*
X7122483Y25925640D01*
X7064499Y25939035D01*
X7007639Y25955198D01*
X6951952Y25974055D01*
X6897521Y25995533D01*
X6844433Y26019546D01*
X6792743Y26046041D01*
X6742541Y26074917D01*
X6693906Y26106111D01*
X6646898Y26139546D01*
X6601612Y26175146D01*
X6558107Y26212831D01*
X6516462Y26252543D01*
X6476760Y26294177D01*
X6439071Y26337685D01*
X6403476Y26382975D01*
X6370037Y26429977D01*
X6338843Y26478621D01*
X6309960Y26528818D01*
X6283477Y26580501D01*
X6259457Y26633597D01*
X6237972Y26688023D01*
X6219121Y26743707D01*
X6202957Y26800583D01*
X6189569Y26858561D01*
X6182528Y26897910D01*
X6179013Y26917564D01*
X6171384Y26977527D01*
X6166749Y27038374D01*
X6165187Y27100000D01*
X6165188Y27100019D01*
X6166749Y27161666D01*
X6166890Y27163464D01*
X6985177Y27163464D01*
X6985341Y27158180D01*
X6985681Y27148008D01*
X6987217Y27133404D01*
X6989843Y27119658D01*
X6991561Y27113116D01*
X6993575Y27106803D01*
X6995888Y27100723D01*
X6998494Y27094869D01*
X7001398Y27089247D01*
X7004614Y27083849D01*
X7008140Y27078697D01*
X7011995Y27073790D01*
X7016165Y27069122D01*
X7020664Y27064702D01*
X7025510Y27060524D01*
X7030690Y27056596D01*
X7036221Y27052929D01*
X7042096Y27049522D01*
X7048333Y27046361D01*
X7054935Y27043465D01*
X7061911Y27040832D01*
X7069252Y27038464D01*
X7076976Y27036365D01*
X7085092Y27034541D01*
X7093586Y27032992D01*
X7102484Y27031717D01*
X7111783Y27030716D01*
X7121487Y27030002D01*
X7142142Y27029432D01*
X7363484Y27029432D01*
X7363485Y26994151D01*
X7363244Y26987471D01*
X7362517Y26981007D01*
X7361277Y26974786D01*
X7360458Y26971779D01*
X7359516Y26968836D01*
X7358439Y26965975D01*
X7357224Y26963205D01*
X7355862Y26960506D01*
X7354368Y26957897D01*
X7352730Y26955376D01*
X7350956Y26952951D01*
X7349022Y26950630D01*
X7346957Y26948409D01*
X7344726Y26946291D01*
X7342348Y26944287D01*
X7339820Y26942395D01*
X7337128Y26940616D01*
X7334294Y26938958D01*
X7331287Y26937426D01*
X7328118Y26936023D01*
X7324794Y26934755D01*
X7321296Y26933617D01*
X7317645Y26932621D01*
X7313812Y26931771D01*
X7309808Y26931059D01*
X7305633Y26930503D01*
X7301281Y26930103D01*
X7296760Y26929863D01*
X7292059Y26929780D01*
X7013391Y26929780D01*
X7013391Y26839831D01*
X7292941Y26839831D01*
X7303643Y26840020D01*
X7313943Y26840589D01*
X7323838Y26841513D01*
X7333328Y26842804D01*
X7342423Y26844446D01*
X7351136Y26846432D01*
X7359456Y26848761D01*
X7367399Y26851402D01*
X7374962Y26854382D01*
X7382150Y26857657D01*
X7388971Y26861244D01*
X7395428Y26865120D01*
X7401528Y26869305D01*
X7407273Y26873754D01*
X7412670Y26878492D01*
X7417719Y26883476D01*
X7422428Y26888736D01*
X7426799Y26894238D01*
X7430841Y26899985D01*
X7434551Y26905969D01*
X7437935Y26912185D01*
X7441004Y26918607D01*
X7443764Y26925247D01*
X7446211Y26932093D01*
X7448358Y26939137D01*
X7450203Y26946368D01*
X7451749Y26953780D01*
X7453001Y26961355D01*
X7454652Y26977012D01*
X7455193Y26993272D01*
X7455193Y27198740D01*
X7565423Y27198740D01*
X7565720Y27189107D01*
X7566632Y27179750D01*
X7567311Y27175170D01*
X7568141Y27170663D01*
X7569130Y27166243D01*
X7570260Y27161880D01*
X7571553Y27157612D01*
X7573000Y27153417D01*
X7574601Y27149302D01*
X7576349Y27145275D01*
X7578272Y27141336D01*
X7580333Y27137485D01*
X7582560Y27133724D01*
X7584932Y27130066D01*
X7587472Y27126494D01*
X7590173Y27123028D01*
X7593024Y27119658D01*
X7596039Y27116384D01*
X7599213Y27113218D01*
X7602555Y27110159D01*
X7606043Y27107211D01*
X7609698Y27104364D01*
X7613512Y27101641D01*
X7616019Y27100000D01*
X7617494Y27099031D01*
X7621637Y27096527D01*
X7625940Y27094151D01*
X7630403Y27091897D01*
X7635044Y27089753D01*
X7639826Y27087750D01*
X7644789Y27085866D01*
X7912868Y26989745D01*
X7914649Y26989065D01*
X7916343Y26988351D01*
X7917964Y26987606D01*
X7919502Y26986825D01*
X7920966Y26986012D01*
X7922347Y26985174D01*
X7923671Y26984297D01*
X7924910Y26983407D01*
X7926082Y26982480D01*
X7927190Y26981541D01*
X7928242Y26980563D01*
X7929213Y26979573D01*
X7930115Y26978566D01*
X7930963Y26977533D01*
X7931762Y26976485D01*
X7932495Y26975414D01*
X7933170Y26974332D01*
X7933784Y26973229D01*
X7934345Y26972124D01*
X7934868Y26971005D01*
X7935740Y26968727D01*
X7936434Y26966425D01*
X7936944Y26964108D01*
X7937300Y26961774D01*
X7937500Y26959441D01*
X7937565Y26957117D01*
X7937428Y26953909D01*
X7937262Y26952365D01*
X7937020Y26950876D01*
X7936715Y26949435D01*
X7936338Y26948043D01*
X7935897Y26946697D01*
X7935389Y26945406D01*
X7934807Y26944152D01*
X7934149Y26942958D01*
X7933423Y26941814D01*
X7932631Y26940712D01*
X7931767Y26939661D01*
X7930829Y26938677D01*
X7929822Y26937729D01*
X7928744Y26936836D01*
X7927597Y26935992D01*
X7926365Y26935205D01*
X7925064Y26934462D01*
X7923695Y26933776D01*
X7922249Y26933143D01*
X7920733Y26932565D01*
X7919142Y26932046D01*
X7917472Y26931572D01*
X7913917Y26930790D01*
X7910044Y26930231D01*
X7905878Y26929890D01*
X7901405Y26929780D01*
X7582177Y26929780D01*
X7582177Y26839831D01*
X7906695Y26839831D01*
X7914175Y26839954D01*
X7921415Y26840320D01*
X7928402Y26840932D01*
X7935144Y26841772D01*
X7941638Y26842853D01*
X7947892Y26844160D01*
X7953896Y26845690D01*
X7959664Y26847448D01*
X7965181Y26849424D01*
X7970471Y26851612D01*
X7975497Y26854013D01*
X7980297Y26856621D01*
X7984850Y26859436D01*
X7989167Y26862436D01*
X7993240Y26865639D01*
X7997084Y26869041D01*
X8000686Y26872625D01*
X8004049Y26876398D01*
X8007182Y26880354D01*
X8010073Y26884480D01*
X8012734Y26888783D01*
X8015152Y26893257D01*
X8017346Y26897905D01*
X8019297Y26902698D01*
X8021021Y26907666D01*
X8022510Y26912779D01*
X8023774Y26918049D01*
X8024802Y26923468D01*
X8025599Y26929028D01*
X8026174Y26934725D01*
X8026518Y26940564D01*
X8026625Y26946531D01*
X8026544Y26951846D01*
X8026268Y26957040D01*
X8025830Y26962123D01*
X8025216Y26967090D01*
X8024418Y26971915D01*
X8023461Y26976642D01*
X8022338Y26981250D01*
X8021042Y26985734D01*
X8019593Y26990105D01*
X8017987Y26994356D01*
X8016218Y26998489D01*
X8014309Y27002509D01*
X8012234Y27006408D01*
X8010010Y27010191D01*
X8007645Y27013860D01*
X8005134Y27017407D01*
X8002474Y27020846D01*
X7999680Y27024171D01*
X7996752Y27027372D01*
X7993696Y27030450D01*
X7990490Y27033425D01*
X7987161Y27036283D01*
X7983711Y27039023D01*
X7980124Y27041642D01*
X7976425Y27044156D01*
X7972595Y27046554D01*
X7964595Y27051001D01*
X7956145Y27054990D01*
X7947267Y27058527D01*
X7833034Y27100000D01*
X7680068Y27155531D01*
X7677174Y27156740D01*
X7674450Y27158049D01*
X7671896Y27159463D01*
X7669513Y27160980D01*
X7667308Y27162608D01*
X7665281Y27164336D01*
X7663436Y27166164D01*
X7662578Y27167119D01*
X7661769Y27168094D01*
X7661011Y27169098D01*
X7660293Y27170135D01*
X7659623Y27171191D01*
X7658995Y27172274D01*
X7658431Y27173378D01*
X7657903Y27174514D01*
X7657425Y27175677D01*
X7657000Y27176859D01*
X7656618Y27178074D01*
X7656295Y27179306D01*
X7656015Y27180570D01*
X7655788Y27181859D01*
X7655601Y27183173D01*
X7655480Y27184520D01*
X7655401Y27185880D01*
X7655376Y27187276D01*
X7655505Y27190497D01*
X7655677Y27192052D01*
X7655913Y27193551D01*
X7656217Y27195006D01*
X7656586Y27196431D01*
X7657031Y27197798D01*
X7657538Y27199125D01*
X7658122Y27200401D01*
X7658762Y27201638D01*
X7659479Y27202817D01*
X7660258Y27203960D01*
X7661111Y27205040D01*
X7662033Y27206077D01*
X7663021Y27207063D01*
X7664083Y27207994D01*
X7665215Y27208881D01*
X7666412Y27209709D01*
X7667686Y27210490D01*
X7669022Y27211218D01*
X7670439Y27211889D01*
X7671917Y27212493D01*
X7673469Y27213059D01*
X7675098Y27213563D01*
X7676779Y27214011D01*
X7678554Y27214405D01*
X7682293Y27215000D01*
X7686326Y27215371D01*
X7690649Y27215496D01*
X8016928Y27215496D01*
X8016928Y27305442D01*
X8137739Y27305442D01*
X8137739Y26637888D01*
X8231208Y26637888D01*
X8231209Y27163464D01*
X8355553Y27163464D01*
X8355726Y27158180D01*
X8356058Y27148008D01*
X8357595Y27133404D01*
X8360214Y27119658D01*
X8361947Y27113116D01*
X8363955Y27106803D01*
X8366260Y27100723D01*
X8368869Y27094869D01*
X8371777Y27089247D01*
X8374990Y27083849D01*
X8378523Y27078697D01*
X8382371Y27073790D01*
X8386546Y27069122D01*
X8391045Y27064703D01*
X8395882Y27060524D01*
X8401074Y27056596D01*
X8406598Y27052929D01*
X8412475Y27049523D01*
X8418713Y27046361D01*
X8425318Y27043465D01*
X8432288Y27040832D01*
X8439630Y27038464D01*
X8447354Y27036365D01*
X8455466Y27034541D01*
X8463965Y27032992D01*
X8472861Y27031717D01*
X8482157Y27030716D01*
X8491869Y27030002D01*
X8512528Y27029431D01*
X8733864Y27029432D01*
X8733865Y26994151D01*
X8733623Y26987471D01*
X8732891Y26981007D01*
X8731657Y26974786D01*
X8730843Y26971780D01*
X8729896Y26968836D01*
X8728816Y26965975D01*
X8727601Y26963205D01*
X8726235Y26960506D01*
X8724751Y26957897D01*
X8723114Y26955376D01*
X8721330Y26952951D01*
X8719405Y26950630D01*
X8717325Y26948409D01*
X8715100Y26946291D01*
X8712732Y26944287D01*
X8710196Y26942395D01*
X8707511Y26940616D01*
X8704667Y26938958D01*
X8701659Y26937426D01*
X8698502Y26936023D01*
X8695172Y26934755D01*
X8691681Y26933617D01*
X8688016Y26932621D01*
X8684192Y26931771D01*
X8680184Y26931059D01*
X8676017Y26930503D01*
X8671661Y26930103D01*
X8667136Y26929863D01*
X8662431Y26929780D01*
X8383771Y26929780D01*
X8383771Y26839831D01*
X8663313Y26839831D01*
X8674023Y26840020D01*
X8684317Y26840589D01*
X8694214Y26841513D01*
X8703706Y26842804D01*
X8712803Y26844446D01*
X8721514Y26846432D01*
X8729833Y26848761D01*
X8737774Y26851403D01*
X8745336Y26854382D01*
X8752526Y26857657D01*
X8759347Y26861244D01*
X8765806Y26865120D01*
X8771897Y26869305D01*
X8777643Y26873754D01*
X8783042Y26878492D01*
X8788094Y26883475D01*
X8792799Y26888736D01*
X8797170Y26894238D01*
X8801214Y26899985D01*
X8804926Y26905968D01*
X8808289Y26912143D01*
X8808319Y26912185D01*
X8811381Y26918607D01*
X8814147Y26925247D01*
X8816590Y26932093D01*
X8818731Y26939137D01*
X8820570Y26946368D01*
X8822122Y26953780D01*
X8823379Y26961355D01*
X8825028Y26977012D01*
X8825567Y26993271D01*
X8825567Y27211971D01*
X8825353Y27224063D01*
X8824664Y27235224D01*
X8823432Y27245479D01*
X8822589Y27250272D01*
X8821590Y27254845D01*
X8820426Y27259203D01*
X8819080Y27263348D01*
X8817563Y27267271D01*
X8815858Y27270992D01*
X8813945Y27274508D01*
X8811829Y27277816D01*
X8809493Y27280930D01*
X8806948Y27283840D01*
X8804158Y27286546D01*
X8801141Y27289074D01*
X8797876Y27291401D01*
X8794360Y27293533D01*
X8790570Y27295490D01*
X8786523Y27297258D01*
X8782195Y27298847D01*
X8777579Y27300264D01*
X8772673Y27301496D01*
X8767471Y27302557D01*
X8761949Y27303447D01*
X8756113Y27304174D01*
X8743468Y27305130D01*
X8729448Y27305441D01*
X8511639Y27305442D01*
X8957850Y27305442D01*
X8957850Y26912143D01*
X8958069Y26902321D01*
X8958735Y26893335D01*
X8959241Y26889149D01*
X8959865Y26885166D01*
X8960609Y26881377D01*
X8961473Y26877780D01*
X8962462Y26874373D01*
X8963572Y26871147D01*
X8964804Y26868100D01*
X8966172Y26865240D01*
X8967667Y26862545D01*
X8969297Y26860026D01*
X8971051Y26857667D01*
X8972949Y26855487D01*
X8974986Y26853449D01*
X8977155Y26851587D01*
X8979466Y26849867D01*
X8981916Y26848294D01*
X8984510Y26846871D01*
X8987266Y26845594D01*
X8990148Y26844446D01*
X8993188Y26843444D01*
X8996387Y26842569D01*
X8999732Y26841817D01*
X9003222Y26841202D01*
X9006881Y26840692D01*
X9014670Y26840043D01*
X9023104Y26839831D01*
X9215349Y26839831D01*
X9229910Y26840049D01*
X9243995Y26840702D01*
X9257611Y26841788D01*
X9270749Y26843306D01*
X9283412Y26845240D01*
X9295610Y26847598D01*
X9307336Y26850368D01*
X9318594Y26853557D01*
X9329374Y26857149D01*
X9339694Y26861148D01*
X9349549Y26865540D01*
X9358931Y26870339D01*
X9367844Y26875518D01*
X9376299Y26881098D01*
X9384297Y26887062D01*
X9391826Y26893400D01*
X9398888Y26900126D01*
X9405492Y26907211D01*
X9411634Y26914679D01*
X9417316Y26922508D01*
X9422541Y26930700D01*
X9427302Y26939237D01*
X9431608Y26948143D01*
X9435462Y26957392D01*
X9438855Y26966990D01*
X9441792Y26976927D01*
X9444277Y26987209D01*
X9446315Y26997821D01*
X9447891Y27008762D01*
X9449015Y27020034D01*
X9449693Y27031631D01*
X9449918Y27043536D01*
X9449918Y27100000D01*
X9798302Y27100000D01*
X9798566Y27089547D01*
X9799354Y27079233D01*
X9800652Y27069069D01*
X9802444Y27059065D01*
X9804721Y27049245D01*
X9807463Y27039600D01*
X9810667Y27030162D01*
X9814317Y27020934D01*
X9818400Y27011936D01*
X9822897Y27003178D01*
X9827803Y26994669D01*
X9833105Y26986421D01*
X9838781Y26978450D01*
X9844827Y26970775D01*
X9851233Y26963405D01*
X9857979Y26956348D01*
X9865052Y26949617D01*
X9872442Y26943229D01*
X9880136Y26937191D01*
X9888117Y26931528D01*
X9896378Y26926236D01*
X9904912Y26921342D01*
X9913688Y26916852D01*
X9922705Y26912787D01*
X9931952Y26909144D01*
X9941406Y26905946D01*
X9951068Y26903211D01*
X9960917Y26900937D01*
X9970944Y26899151D01*
X9980723Y26897910D01*
X9981125Y26897856D01*
X9991460Y26897071D01*
X10001929Y26896804D01*
X10004615Y26896827D01*
X10007284Y26896876D01*
X10009944Y26896961D01*
X10012605Y26897084D01*
X10015242Y26897235D01*
X10017881Y26897425D01*
X10020512Y26897651D01*
X10023128Y26897910D01*
X10032709Y26857299D01*
X10043970Y26817367D01*
X10056886Y26778158D01*
X10071418Y26739700D01*
X10087507Y26702041D01*
X10105141Y26665220D01*
X10124247Y26629275D01*
X10144811Y26594254D01*
X10166787Y26560181D01*
X10190125Y26527119D01*
X10214787Y26495087D01*
X10240747Y26464136D01*
X10267951Y26434301D01*
X10296355Y26405625D01*
X10325937Y26378153D01*
X10356638Y26351915D01*
X10388438Y26326957D01*
X10421276Y26303316D01*
X10455125Y26281037D01*
X10489945Y26260161D01*
X10525681Y26240725D01*
X10562310Y26222760D01*
X10599784Y26206323D01*
X10638063Y26191444D01*
X10677117Y26178165D01*
X10716886Y26166524D01*
X10757342Y26156567D01*
X10798454Y26148329D01*
X10840166Y26141852D01*
X10882440Y26137175D01*
X10925240Y26134336D01*
X10968531Y26133385D01*
X12950225Y26133385D01*
X12999943Y26134647D01*
X13048990Y26138384D01*
X13097358Y26144532D01*
X13144937Y26153040D01*
X13191688Y26163840D01*
X13237538Y26176869D01*
X13282447Y26192077D01*
X13326334Y26209394D01*
X13369151Y26228765D01*
X13410817Y26250115D01*
X13451302Y26273408D01*
X13490524Y26298564D01*
X13528425Y26325517D01*
X13564939Y26354222D01*
X13600019Y26384615D01*
X13633600Y26416629D01*
X13665617Y26450208D01*
X13696003Y26485286D01*
X13724710Y26521810D01*
X13751663Y26559708D01*
X13776824Y26598930D01*
X13800111Y26639410D01*
X13821470Y26681083D01*
X13840837Y26723897D01*
X13858156Y26767780D01*
X13873357Y26812686D01*
X13886395Y26858548D01*
X13897195Y26905290D01*
X13905701Y26952874D01*
X13911851Y27001225D01*
X13915592Y27050286D01*
X13916855Y27100000D01*
X13915593Y27149706D01*
X13911851Y27198768D01*
X13905701Y27247117D01*
X13897195Y27294700D01*
X13886395Y27341448D01*
X13873357Y27387307D01*
X13858155Y27432205D01*
X13840837Y27476093D01*
X13821469Y27518901D01*
X13800111Y27560578D01*
X13776823Y27601058D01*
X13751663Y27640281D01*
X13724711Y27678172D01*
X13696003Y27714697D01*
X13665617Y27749777D01*
X13633600Y27783354D01*
X13600018Y27815367D01*
X13564939Y27845749D01*
X13528425Y27874462D01*
X13490524Y27901425D01*
X13451302Y27926572D01*
X13410817Y27949858D01*
X13369151Y27971213D01*
X13326334Y27990583D01*
X13282447Y28007907D01*
X13237538Y28023108D01*
X13191688Y28036148D01*
X13144937Y28046945D01*
X13097358Y28055449D01*
X13048990Y28061597D01*
X12999943Y28065334D01*
X12950225Y28066597D01*
X10968531Y28066597D01*
X10925240Y28065640D01*
X10882440Y28062810D01*
X10840166Y28058134D01*
X10798453Y28051648D01*
X10757343Y28043416D01*
X10716886Y28033456D01*
X10677117Y28021820D01*
X10638063Y28008536D01*
X10599784Y27993657D01*
X10562310Y27977217D01*
X10525681Y27959258D01*
X10489945Y27939819D01*
X10421277Y27896661D01*
X10356638Y27848063D01*
X10296356Y27794352D01*
X10240747Y27735845D01*
X10190125Y27672865D01*
X10144811Y27605732D01*
X10124247Y27570710D01*
X10105141Y27534767D01*
X10087507Y27497944D01*
X10071418Y27460286D01*
X10056886Y27421833D01*
X10043970Y27382619D01*
X10032709Y27342688D01*
X10023128Y27302085D01*
X10032661Y27300870D01*
X10042056Y27299226D01*
X10051301Y27297156D01*
X10060383Y27294665D01*
X10069280Y27291777D01*
X10078008Y27288496D01*
X10086535Y27284837D01*
X10094853Y27280802D01*
X10102957Y27276414D01*
X10110837Y27271672D01*
X10118472Y27266581D01*
X10125867Y27261164D01*
X10133007Y27255441D01*
X10139879Y27249402D01*
X10146462Y27243064D01*
X10152764Y27236441D01*
X10158760Y27229540D01*
X10164449Y27222378D01*
X10169818Y27214948D01*
X10174853Y27207282D01*
X10179543Y27199382D01*
X10183883Y27191254D01*
X10187853Y27182921D01*
X10191460Y27174375D01*
X10194680Y27165644D01*
X10197506Y27156727D01*
X10199922Y27147637D01*
X10201926Y27138385D01*
X10203502Y27128988D01*
X10204634Y27119451D01*
X10205326Y27109780D01*
X10205559Y27100000D01*
X10205325Y27090208D01*
X10204634Y27080540D01*
X10203502Y27070999D01*
X10201926Y27061602D01*
X10199922Y27052353D01*
X10197506Y27043268D01*
X10194680Y27034354D01*
X10191461Y27025614D01*
X10187854Y27017077D01*
X10183883Y27008737D01*
X10179543Y27000616D01*
X10174853Y26992711D01*
X10169818Y26985042D01*
X10164449Y26977620D01*
X10158760Y26970449D01*
X10152763Y26963544D01*
X10146462Y26956926D01*
X10139879Y26950590D01*
X10133007Y26944551D01*
X10125867Y26938817D01*
X10118472Y26933402D01*
X10110838Y26928323D01*
X10102957Y26923579D01*
X10094853Y26919186D01*
X10086535Y26915149D01*
X10078008Y26911492D01*
X10069279Y26908210D01*
X10060383Y26905321D01*
X10051301Y26902836D01*
X10042056Y26900768D01*
X10032661Y26899123D01*
X10023128Y26897910D01*
X10018233Y26922461D01*
X10013953Y26947242D01*
X10010319Y26972231D01*
X10007323Y26997416D01*
X10004974Y27022798D01*
X10003289Y27048359D01*
X10002275Y27074093D01*
X10001929Y27100000D01*
X10002275Y27125900D01*
X10003289Y27151638D01*
X10004974Y27177201D01*
X10007323Y27202580D01*
X10010319Y27227765D01*
X10013953Y27252749D01*
X10018233Y27277523D01*
X10023128Y27302085D01*
X10020512Y27302340D01*
X10017881Y27302568D01*
X10015241Y27302752D01*
X10012605Y27302914D01*
X10009943Y27303033D01*
X10007285Y27303115D01*
X10004614Y27303164D01*
X10001929Y27303183D01*
X9991460Y27302921D01*
X9981125Y27302130D01*
X9970944Y27300843D01*
X9960918Y27299050D01*
X9951068Y27296786D01*
X9941406Y27294049D01*
X9931951Y27290852D01*
X9922705Y27287203D01*
X9913688Y27283136D01*
X9904912Y27278648D01*
X9896378Y27273751D01*
X9888117Y27268462D01*
X9880136Y27262796D01*
X9872441Y27256765D01*
X9865052Y27250374D01*
X9857979Y27243650D01*
X9851233Y27236589D01*
X9844827Y27229218D01*
X9838781Y27221533D01*
X9833105Y27213571D01*
X9827803Y27205319D01*
X9822898Y27196818D01*
X9818400Y27188060D01*
X9814317Y27179056D01*
X9810667Y27169831D01*
X9807463Y27160390D01*
X9804721Y27150750D01*
X9802444Y27140922D01*
X9800652Y27130919D01*
X9799353Y27120763D01*
X9798566Y27110443D01*
X9798302Y27100000D01*
X9449918Y27100000D01*
X9449918Y27305442D01*
X9355562Y27305442D01*
X9355562Y27043535D01*
X9355055Y27030199D01*
X9353551Y27017633D01*
X9352411Y27011646D01*
X9351008Y27005859D01*
X9349345Y27000268D01*
X9347413Y26994880D01*
X9345224Y26989701D01*
X9342753Y26984721D01*
X9340018Y26979948D01*
X9337006Y26975376D01*
X9333711Y26971017D01*
X9330145Y26966870D01*
X9326297Y26962934D01*
X9322163Y26959208D01*
X9317737Y26955701D01*
X9313032Y26952411D01*
X9308025Y26949330D01*
X9302728Y26946475D01*
X9297133Y26943833D01*
X9291240Y26941420D01*
X9285047Y26939229D01*
X9278554Y26937259D01*
X9271749Y26935518D01*
X9264635Y26934003D01*
X9249472Y26931665D01*
X9233051Y26930250D01*
X9215349Y26929780D01*
X9062795Y26929780D01*
X9062056Y26929794D01*
X9061355Y26929828D01*
X9060671Y26929893D01*
X9060014Y26929985D01*
X9059385Y26930102D01*
X9058785Y26930243D01*
X9058205Y26930411D01*
X9057650Y26930610D01*
X9057122Y26930827D01*
X9056614Y26931070D01*
X9056133Y26931343D01*
X9055672Y26931638D01*
X9055241Y26931964D01*
X9054829Y26932307D01*
X9054445Y26932685D01*
X9054081Y26933086D01*
X9053739Y26933508D01*
X9053424Y26933964D01*
X9053129Y26934441D01*
X9052859Y26934949D01*
X9052608Y26935473D01*
X9052384Y26936030D01*
X9052182Y26936612D01*
X9052003Y26937223D01*
X9051843Y26937851D01*
X9051702Y26938514D01*
X9051493Y26939898D01*
X9051367Y26941404D01*
X9051327Y26943005D01*
X9051326Y27305442D01*
X8957850Y27305442D01*
X8511639Y27305442D01*
X8501489Y27305285D01*
X8491716Y27304820D01*
X8482321Y27304047D01*
X8473277Y27302956D01*
X8464610Y27301575D01*
X8456302Y27299896D01*
X8448343Y27297926D01*
X8440745Y27295658D01*
X8433500Y27293108D01*
X8426592Y27290275D01*
X8420031Y27287159D01*
X8413816Y27283776D01*
X8407930Y27280115D01*
X8402379Y27276175D01*
X8397152Y27271982D01*
X8392257Y27267526D01*
X8387683Y27262807D01*
X8383439Y27257832D01*
X8379501Y27252609D01*
X8375874Y27247141D01*
X8372563Y27241427D01*
X8369557Y27235467D01*
X8366843Y27229275D01*
X8364443Y27222851D01*
X8362333Y27216198D01*
X8360510Y27209312D01*
X8358980Y27202210D01*
X8357735Y27194880D01*
X8356781Y27187344D01*
X8356098Y27179592D01*
X8355553Y27163464D01*
X8231209Y27163464D01*
X8231208Y27305442D01*
X8137739Y27305442D01*
X8016928Y27305442D01*
X7685357Y27305442D01*
X7677953Y27305317D01*
X7670784Y27304956D01*
X7663856Y27304342D01*
X7657163Y27303495D01*
X7650711Y27302420D01*
X7644488Y27301115D01*
X7638506Y27299580D01*
X7632764Y27297827D01*
X7627258Y27295845D01*
X7621979Y27293655D01*
X7616945Y27291261D01*
X7612144Y27288654D01*
X7607578Y27285841D01*
X7603250Y27282829D01*
X7599154Y27279631D01*
X7595304Y27276234D01*
X7591670Y27272646D01*
X7588289Y27268869D01*
X7585136Y27264922D01*
X7582209Y27260787D01*
X7579530Y27256487D01*
X7577077Y27252011D01*
X7574863Y27247374D01*
X7572878Y27242568D01*
X7571131Y27237604D01*
X7569617Y27232491D01*
X7568338Y27227218D01*
X7567285Y27221807D01*
X7566478Y27216246D01*
X7565892Y27210549D01*
X7565541Y27204710D01*
X7565423Y27198740D01*
X7455193Y27198740D01*
X7455193Y27211971D01*
X7454978Y27224063D01*
X7454283Y27235224D01*
X7453051Y27245479D01*
X7452213Y27250272D01*
X7451215Y27254845D01*
X7450046Y27259203D01*
X7448711Y27263348D01*
X7447183Y27267271D01*
X7445483Y27270992D01*
X7443567Y27274508D01*
X7441451Y27277816D01*
X7439117Y27280929D01*
X7436569Y27283840D01*
X7433783Y27286545D01*
X7430762Y27289074D01*
X7427497Y27291401D01*
X7423980Y27293533D01*
X7420192Y27295490D01*
X7416145Y27297258D01*
X7411814Y27298847D01*
X7407203Y27300264D01*
X7402302Y27301496D01*
X7397083Y27302557D01*
X7391570Y27303447D01*
X7385743Y27304174D01*
X7373087Y27305130D01*
X7359071Y27305442D01*
X7141257Y27305442D01*
X7131119Y27305285D01*
X7121342Y27304820D01*
X7111944Y27304047D01*
X7102909Y27302956D01*
X7094230Y27301575D01*
X7085927Y27299896D01*
X7077964Y27297926D01*
X7070372Y27295658D01*
X7063121Y27293108D01*
X7056216Y27290275D01*
X7049661Y27287159D01*
X7043436Y27283776D01*
X7037549Y27280115D01*
X7031996Y27276175D01*
X7026781Y27271982D01*
X7021886Y27267526D01*
X7017310Y27262807D01*
X7013058Y27257832D01*
X7009124Y27252609D01*
X7005500Y27247141D01*
X7002185Y27241427D01*
X6999173Y27235468D01*
X6996466Y27229275D01*
X6994061Y27222851D01*
X6991951Y27216198D01*
X6990138Y27209312D01*
X6988605Y27202210D01*
X6987360Y27194880D01*
X6986401Y27187344D01*
X6985719Y27179593D01*
X6985177Y27163464D01*
X6166890Y27163464D01*
X6171384Y27222513D01*
X6179013Y27282476D01*
X6189569Y27341478D01*
X6202957Y27399453D01*
X6219121Y27456327D01*
X6237972Y27512018D01*
X6259457Y27566443D01*
X6283477Y27619536D01*
X6309960Y27671222D01*
X6338843Y27721415D01*
X6370037Y27770059D01*
X6403476Y27817065D01*
X6439071Y27862354D01*
X6476760Y27905858D01*
X6516462Y27947497D01*
X6558107Y27987205D01*
X6601612Y28024894D01*
X6646898Y28060493D01*
X6693906Y28093928D01*
X6742542Y28125123D01*
X6792742Y28153996D01*
X6844433Y28180491D01*
X6897521Y28204505D01*
X6951952Y28225982D01*
X7007639Y28244836D01*
X7064499Y28261004D01*
X7122483Y28274400D01*
X7181491Y28284951D01*
X7241453Y28292581D01*
X7302294Y28297214D01*
X7363944Y28298778D01*
X12958822Y28298778D01*
X13020472Y28297214D01*
G37*
%TD*%
D12*
%TO.C,M3*%
X2000000Y28000000D03*
%TD*%
%TO.C,M1*%
X18000000Y2000000D03*
%TD*%
D13*
%TO.C,USBC1*%
X12900000Y25220000D03*
X7100000Y25220000D03*
D14*
X5670000Y24720000D03*
D15*
X5670000Y28900000D03*
X14330000Y28900000D03*
D14*
X14330000Y24720000D03*
%TD*%
D12*
%TO.C,M2*%
X18000000Y28000000D03*
%TD*%
%TO.C,M4*%
X2000000Y2000000D03*
%TD*%
D16*
%TO.C,P14*%
X18800000Y19600000D03*
%TD*%
%TO.C,P20*%
X14525000Y1500000D03*
%TD*%
%TO.C,P12*%
X18800000Y14600000D03*
%TD*%
%TO.C,P22*%
X10050000Y9000000D03*
%TD*%
%TO.C,P13*%
X18800000Y17082843D03*
%TD*%
%TO.C,P17*%
X7900000Y1500000D03*
%TD*%
%TO.C,P5*%
X18700000Y24700000D03*
%TD*%
%TO.C,P18*%
X10105000Y1500000D03*
%TD*%
%TO.C,P1*%
X14200000Y19680000D03*
%TD*%
%TO.C,P16*%
X5700000Y1500000D03*
%TD*%
%TO.C,P4*%
X16500000Y24700000D03*
%TD*%
%TO.C,P2*%
X16430001Y19680000D03*
%TD*%
%TO.C,P19*%
X12325000Y1500000D03*
%TD*%
%TO.C,P3*%
X7500000Y23600000D03*
%TD*%
%TO.C,P11*%
X4200000Y5100000D03*
%TD*%
%TO.C,P10*%
X4200000Y7300000D03*
%TD*%
%TO.C,P9*%
X4200000Y11700000D03*
%TD*%
%TO.C,P15*%
X12400000Y23500000D03*
%TD*%
%TO.C,P8*%
X4200000Y9500000D03*
%TD*%
M02*
