%TF.GenerationSoftware,KiCad,Pcbnew,10.0.0-rc1*%
%TF.CreationDate,2026-09-20T17:05:06+01:00*%
%TF.ProjectId,nano-w,6e616e6f-2d77-42e6-9b69-6361645f7063,rev?*%
%TF.SameCoordinates,Original*%
%TF.FileFunction,Copper,L4,Bot*%
%TF.FilePolarity,Positive*%
%FSLAX46Y46*%
G04 Gerber Fmt 4.6, Leading zero omitted, Abs format (unit mm)*
G04 Created by KiCad (PCBNEW 10.0.0-rc1) date 2026-09-20 17:05:06*
%MOMM*%
%LPD*%
G01*
G04 APERTURE LIST*
%TA.AperFunction,ComponentPad*%
%ADD10C,3.000000*%
%TD*%
%TA.AperFunction,ComponentPad*%
%ADD11O,1.200000X2.000000*%
%TD*%
%TA.AperFunction,ComponentPad*%
%ADD12O,1.200000X1.800000*%
%TD*%
%TA.AperFunction,SMDPad,CuDef*%
%ADD13C,2.000000*%
%TD*%
%TA.AperFunction,ViaPad*%
%ADD14C,0.500000*%
%TD*%
%TA.AperFunction,ViaPad*%
%ADD15C,0.515000*%
%TD*%
%TA.AperFunction,ViaPad*%
%ADD16C,0.450000*%
%TD*%
%TA.AperFunction,Conductor*%
%ADD17C,0.400000*%
%TD*%
%TA.AperFunction,Conductor*%
%ADD18C,0.250000*%
%TD*%
%TA.AperFunction,Conductor*%
%ADD19C,0.120000*%
%TD*%
%TA.AperFunction,Conductor*%
%ADD20C,0.150000*%
%TD*%
%TA.AperFunction,Conductor*%
%ADD21C,0.300000*%
%TD*%
G04 APERTURE END LIST*
D10*
%TO.P,M3,1,1_1*%
%TO.N,GND*%
X2000000Y28000000D03*
%TD*%
%TO.P,M1,1,1_1*%
%TO.N,GND*%
X18000000Y2000000D03*
%TD*%
D11*
%TO.P,USBC1,1,EH_1*%
%TO.N,GND*%
X5670000Y24720000D03*
D12*
%TO.P,USBC1,2,EH_2*%
X5670000Y28900000D03*
%TO.P,USBC1,3,EH_3*%
X14330000Y28900000D03*
D11*
%TO.P,USBC1,4,EH_4*%
X14330000Y24720000D03*
%TD*%
D10*
%TO.P,M2,1,1_1*%
%TO.N,GND*%
X18000000Y28000000D03*
%TD*%
%TO.P,M4,1,1_1*%
%TO.N,GND*%
X2000000Y2000000D03*
%TD*%
D13*
%TO.P,P14,1,1_1*%
%TO.N,/RP2354A/GPIO28_ADC2*%
X18800000Y19600000D03*
%TD*%
%TO.P,P20,1,1_1*%
%TO.N,/RP2354A/GPIO20*%
X14525000Y1500000D03*
%TD*%
%TO.P,P12,1,1_1*%
%TO.N,/RP2354A/GPIO26_ADC0*%
X18800000Y14600000D03*
%TD*%
%TO.P,P22,1,1_1*%
%TO.N,/RP2354A/GPIO22*%
X10050000Y9000000D03*
%TD*%
%TO.P,P13,1,1_1*%
%TO.N,/RP2354A/GPIO27_ADC1*%
X18800000Y17082843D03*
%TD*%
%TO.P,P17,1,1_1*%
%TO.N,/RP2354A/GPIO17*%
X7900000Y1500000D03*
%TD*%
%TO.P,P5,1,1_1*%
%TO.N,GND*%
X18700000Y24700000D03*
%TD*%
%TO.P,P18,1,1_1*%
%TO.N,/RP2354A/GPIO18*%
X10105000Y1500000D03*
%TD*%
%TO.P,P1,1,1_1*%
%TO.N,+3V3*%
X14200000Y19680000D03*
%TD*%
%TO.P,P16,1,1_1*%
%TO.N,/RP2354A/GPIO16*%
X5700000Y1500000D03*
%TD*%
%TO.P,P4,1,1_1*%
%TO.N,GND*%
X16500000Y24700000D03*
%TD*%
%TO.P,P2,1,1_1*%
%TO.N,+3V3*%
X16430001Y19680000D03*
%TD*%
%TO.P,P19,1,1_1*%
%TO.N,/RP2354A/GPIO19*%
X12325000Y1500000D03*
%TD*%
%TO.P,P3,1,1_1*%
%TO.N,+5V*%
X7500000Y23600000D03*
%TD*%
%TO.P,P11,1,1_1*%
%TO.N,/RP2354A/GPIO9*%
X4200000Y5100000D03*
%TD*%
%TO.P,P10,1,1_1*%
%TO.N,/RP2354A/GPIO8*%
X4200000Y7300000D03*
%TD*%
%TO.P,P9,1,1_1*%
%TO.N,/RP2354A/GPIO7*%
X4200000Y11700000D03*
%TD*%
%TO.P,P15,1,1_1*%
%TO.N,+5V*%
X12400000Y23500000D03*
%TD*%
%TO.P,P8,1,1_1*%
%TO.N,/RP2354A/GPIO6*%
X4200000Y9500000D03*
%TD*%
D14*
%TO.N,GND*%
X17900000Y5200000D03*
X16350000Y3075000D03*
X14950000Y4500000D03*
D15*
X1459530Y13114794D03*
D14*
X15200000Y2825000D03*
X15525000Y4525000D03*
X12725000Y7975000D03*
D15*
X6529530Y10934794D03*
D14*
X19050000Y4350000D03*
X13375000Y7325000D03*
D15*
X7889530Y12314794D03*
X9279530Y13714794D03*
X16000000Y25825000D03*
X12550000Y20325000D03*
D14*
X14675000Y3350000D03*
D15*
X15150000Y13350000D03*
X14469530Y8884794D03*
D14*
X15894530Y7534794D03*
D15*
X1459530Y11114794D03*
X11799530Y19624794D03*
X16350000Y15300000D03*
X6539530Y13714794D03*
X16150000Y13350000D03*
X15700000Y23250000D03*
X5950000Y21240000D03*
X11800000Y20325000D03*
D14*
X19375000Y5075000D03*
D15*
X15300000Y23875000D03*
X17275000Y25815000D03*
D14*
X8539530Y5045987D03*
D15*
X17194530Y9784794D03*
X9000000Y457500D03*
X14300000Y13100000D03*
X6469530Y5804794D03*
X6269530Y20174794D03*
X9279530Y10934794D03*
X14050000Y23225000D03*
D14*
X16800000Y5175000D03*
D15*
X17944530Y9784794D03*
D14*
X16125000Y4525000D03*
X16125000Y5175000D03*
D15*
X14294530Y12534794D03*
X15850000Y550000D03*
X18519530Y7634794D03*
X17894530Y7634794D03*
X9279530Y12314794D03*
D14*
X15850000Y2825000D03*
D15*
X11789530Y16414794D03*
X11500000Y6400000D03*
X14900000Y23250000D03*
X14500000Y22700000D03*
D14*
X17425000Y4725000D03*
D15*
X7889530Y10934794D03*
X13629530Y15834794D03*
X10979530Y17054794D03*
D14*
X19550000Y5825000D03*
X14650000Y6400000D03*
D15*
X1459530Y15504794D03*
D14*
X18500000Y3825000D03*
D15*
X19294530Y13334794D03*
X6775000Y457500D03*
X11800000Y18800000D03*
X7889530Y13714794D03*
X18550000Y25800000D03*
X13450000Y550000D03*
X7590000Y21800000D03*
X11250000Y21050000D03*
D14*
X9966721Y6444794D03*
D15*
X4400000Y475000D03*
D14*
X14675000Y4000000D03*
D15*
X6539530Y12314794D03*
X10989530Y17744794D03*
D14*
%TO.N,+3V3*%
X13200000Y18800000D03*
X15300000Y20500000D03*
X6300000Y9600000D03*
X1247907Y4947149D03*
X1711304Y4491335D03*
X10600000Y10950000D03*
X16544530Y7509794D03*
%TO.N,/RP2354A/GPIO23*%
X15919530Y9759794D03*
X18400000Y11984794D03*
%TO.N,/RP2354A/GPIO25*%
X15994530Y11884794D03*
X14494530Y11884794D03*
D15*
%TO.N,+1V1*%
X9969530Y12714794D03*
X12249530Y12764794D03*
X5829530Y13114794D03*
X7889530Y10234794D03*
X8599530Y17344794D03*
X8519530Y7844794D03*
X3519530Y13114794D03*
X8599530Y17904794D03*
X9100000Y14420000D03*
D14*
%TO.N,/RP2354A/BUSY*%
X1400000Y6150000D03*
X2250000Y7650000D03*
%TO.N,Net-(U1-GPIO0)*%
X2500000Y14800000D03*
X17900000Y22550000D03*
%TO.N,Net-(U1-GPIO1)*%
X1500000Y14400000D03*
X16650000Y22575000D03*
%TO.N,/RP2354A/GPIO4*%
X16400000Y18300000D03*
D16*
X2100000Y12519792D03*
%TO.N,/RP2354A/GPIO5*%
X2650000Y12250000D03*
D14*
X16400000Y17300000D03*
D16*
%TO.N,/RP2354A/GPIO6*%
X2100000Y11825000D03*
%TO.N,/RP2354A/GPIO7*%
X3525000Y11550000D03*
D14*
%TO.N,/RP2354A/GPIO8*%
X2100000Y10425000D03*
%TO.N,/RP2354A/GPIO9*%
X2531838Y9939182D03*
%TO.N,/RP2354A/GPIO16*%
X9600000Y7500000D03*
%TO.N,/RP2354A/GPIO17*%
X10250003Y7500000D03*
%TO.N,/RP2354A/GPIO18*%
X10800000Y7025000D03*
%TO.N,/RP2354A/GPIO19*%
X12000000Y8900000D03*
%TO.N,/RP2354A/GPIO20*%
X13100000Y8900000D03*
%TO.N,/RP2354A/GPIO22*%
X13800000Y8900000D03*
%TO.N,/RP2354A/GPIO26_ADC0*%
X14575000Y13700000D03*
%TO.N,/RP2354A/GPIO27_ADC1*%
X14089182Y14131838D03*
%TO.N,/RP2354A/GPIO28_ADC2*%
X12881511Y14136731D03*
D15*
%TO.N,+5V*%
X8775000Y25525000D03*
X11158579Y25527500D03*
%TD*%
%TO.N,+3V3*%
D17*
X10600000Y10950000D02*
X13049404Y10950000D01*
D18*
X5750000Y5800000D02*
X5750000Y8272183D01*
D17*
X13200000Y18800000D02*
X13995147Y19595147D01*
D18*
X5182842Y3982843D02*
X5500000Y4300000D01*
D17*
X14822010Y20302010D02*
X14200000Y19680000D01*
D18*
X1260852Y4941787D02*
X1711304Y4491335D01*
D17*
X15465255Y8934745D02*
X13733271Y10666733D01*
D18*
X5500000Y4300000D02*
X5529289Y4329289D01*
D17*
X15829205Y20280796D02*
X16430001Y19680000D01*
X16300100Y8099900D02*
X15465255Y8934745D01*
D18*
X3621756Y3700000D02*
X4500000Y3700000D01*
X5750000Y4862132D02*
X5750000Y5800000D01*
D17*
X15300000Y20500000D02*
G75*
G02*
X15829203Y20280794I0J-748400D01*
G01*
D18*
X1247907Y4947149D02*
G75*
G02*
X1260857Y4941792I-7J-18349D01*
G01*
D17*
X16544530Y7509794D02*
G75*
G03*
X16300102Y8099902I-834530J6D01*
G01*
D18*
X5750000Y8272183D02*
G75*
G02*
X6299995Y9600005I1877800J17D01*
G01*
D17*
X15300000Y20500000D02*
G75*
G03*
X14822006Y20302014I0J-676000D01*
G01*
D18*
X5529289Y4329289D02*
G75*
G03*
X5749964Y4862132I-532889J532811D01*
G01*
X1711304Y4491335D02*
G75*
G03*
X3621756Y3699973I1910496J1910465D01*
G01*
D17*
X13995147Y19595147D02*
G75*
G02*
X14200000Y19680002I204853J-204847D01*
G01*
D18*
X4500000Y3700000D02*
G75*
G03*
X5182846Y3982839I0J965700D01*
G01*
D17*
X13733271Y10666733D02*
G75*
G03*
X13049404Y10950013I-683871J-683833D01*
G01*
%TO.N,/RP2354A/GPIO23*%
D19*
X16750380Y11765644D02*
X15999170Y11014434D01*
X17177743Y11984799D02*
X17119555Y11984800D01*
X18400000Y11984794D02*
X17252373Y11984794D01*
X17252373Y11984794D02*
X17177743Y11984799D01*
X15919530Y10822166D02*
X15919530Y9759794D01*
X16863466Y11878729D02*
X16822331Y11837595D01*
X16822331Y11837595D02*
X16750380Y11765644D01*
X15999170Y11014434D02*
G75*
G03*
X15919555Y10822166I192030J-192134D01*
G01*
X17119555Y11984800D02*
G75*
G03*
X16863433Y11878762I-55J-362200D01*
G01*
%TO.N,/RP2354A/GPIO25*%
X14494530Y11884794D02*
X15994530Y11884794D01*
%TO.N,+1V1*%
D20*
X9079530Y14440470D02*
X9079530Y16434794D01*
X8519530Y7844794D02*
X8219530Y7844794D01*
X12249530Y12764794D02*
X10090241Y12764794D01*
X8775474Y17168850D02*
X8599530Y17344794D01*
X9100000Y14420000D02*
X9079530Y14440470D01*
X5829530Y13114794D02*
X3519530Y13114794D01*
X7889530Y8174794D02*
X7889530Y10234794D01*
X9079530Y16434794D02*
G75*
G03*
X8775481Y17168857I-1038130J6D01*
G01*
X10090241Y12764794D02*
G75*
G03*
X9969513Y12714811I-41J-170694D01*
G01*
X8219530Y7844794D02*
G75*
G02*
X7889494Y8174794I-30J330006D01*
G01*
%TO.N,/RP2354A/BUSY*%
D19*
X1400570Y6190642D02*
X1818715Y6608787D01*
X1400000Y6150000D02*
X1400570Y6190642D01*
X1818715Y6608787D02*
X2073050Y6863123D01*
X2250000Y7650000D02*
X2250000Y7290319D01*
X2073050Y6863123D02*
G75*
G03*
X2250000Y7290319I-427150J427177D01*
G01*
%TO.N,Net-(U1-GPIO0)*%
X17703716Y22053717D02*
X17577513Y21927513D01*
X17900000Y22550000D02*
X17899457Y22526276D01*
X17375000Y21725000D02*
X17577513Y21927513D01*
X9675000Y21500000D02*
X16831802Y21500000D01*
X2500000Y14800000D02*
X8864124Y21164124D01*
X8864124Y21164124D02*
G75*
G02*
X9675000Y21500015I810876J-810824D01*
G01*
X16831802Y21500000D02*
G75*
G03*
X17374999Y21725001I-2J768200D01*
G01*
X17899457Y22526276D02*
G75*
G02*
X17703696Y22053737I-668257J24D01*
G01*
%TO.N,Net-(U1-GPIO1)*%
X8525736Y21425736D02*
X1500000Y14400000D01*
X15933579Y21850000D02*
X9550000Y21850000D01*
X16543934Y22318934D02*
X16175000Y21950000D01*
X16650000Y22575000D02*
G75*
G02*
X16543927Y22318941I-362100J0D01*
G01*
X9550000Y21850000D02*
G75*
G03*
X8525742Y21425730I0J-1448500D01*
G01*
X16175000Y21950000D02*
G75*
G02*
X15933579Y21850009I-241400J241400D01*
G01*
%TO.N,/RP2354A/GPIO4*%
X7425000Y16300000D02*
X7573744Y16448744D01*
X2300000Y13475000D02*
X4437348Y15612348D01*
X8450000Y18650000D02*
X11000000Y18650000D01*
X2100000Y12519792D02*
X2100000Y12992157D01*
X11341421Y18508579D02*
X11350000Y18500000D01*
X5675000Y16125000D02*
X7002513Y16125000D01*
X7750000Y16874264D02*
X7750000Y17950000D01*
X11832843Y18300000D02*
X16400000Y18300000D01*
X11000000Y18650000D02*
G75*
G02*
X11341412Y18508570I0J-482800D01*
G01*
X7002513Y16125000D02*
G75*
G03*
X7424996Y16300004I-13J597500D01*
G01*
X11350000Y18500000D02*
G75*
G03*
X11832843Y18300018I482800J482800D01*
G01*
X4437348Y15612348D02*
G75*
G02*
X5675000Y16125001I1237652J-1237648D01*
G01*
X7750000Y17950000D02*
G75*
G02*
X8450000Y18650000I700000J0D01*
G01*
X7573744Y16448744D02*
G75*
G03*
X7750019Y16874264I-425544J425556D01*
G01*
X2100000Y12992157D02*
G75*
G02*
X2299987Y13475013I682800J43D01*
G01*
%TO.N,/RP2354A/GPIO5*%
X11732843Y18050000D02*
X15450000Y18050000D01*
X5425000Y15625000D02*
X6915381Y15625000D01*
X11241421Y18258579D02*
X11250000Y18250000D01*
X15791421Y17908579D02*
X16400000Y17300000D01*
X2650000Y12250000D02*
X2650000Y12817157D01*
X2850000Y13300000D02*
X4998224Y15448224D01*
X7700000Y15950000D02*
X7870711Y16120711D01*
X8600000Y18400000D02*
X10900000Y18400000D01*
X8100000Y16674264D02*
X8100000Y17900000D01*
X2650000Y12817157D02*
G75*
G02*
X2849987Y13300013I682800J43D01*
G01*
X11250000Y18250000D02*
G75*
G03*
X11732843Y18050018I482800J482800D01*
G01*
X15450000Y18050000D02*
G75*
G02*
X15791412Y17908570I0J-482800D01*
G01*
X8100000Y17900000D02*
G75*
G02*
X8600000Y18400000I500000J0D01*
G01*
X4998224Y15448224D02*
G75*
G02*
X5425000Y15624986I426776J-426824D01*
G01*
X7870711Y16120711D02*
G75*
G03*
X8100038Y16674264I-553511J553589D01*
G01*
X6915381Y15625000D02*
G75*
G03*
X7700006Y15949994I19J1109600D01*
G01*
X10900000Y18400000D02*
G75*
G02*
X11241412Y18258570I0J-482800D01*
G01*
%TO.N,/RP2354A/GPIO6*%
X2329810Y11270191D02*
X3400000Y10200000D01*
X3400000Y10200000D02*
X4129289Y9470711D01*
X2100000Y11825000D02*
G75*
G03*
X2329814Y11270195I784600J0D01*
G01*
X4129289Y9470711D02*
G75*
G02*
X4200006Y9300000I-170689J-170711D01*
G01*
%TO.N,/RP2354A/GPIO8*%
X2698223Y10425000D02*
X2100000Y10425000D01*
X3000000Y9729098D02*
X3000000Y10058579D01*
X3687868Y7412132D02*
X3000000Y8100000D01*
X2900000Y10300000D02*
X2829289Y10370710D01*
X2930000Y8268995D02*
X2930000Y9560103D01*
X3000000Y8100000D02*
G75*
G02*
X2929998Y8268995I169000J169000D01*
G01*
X2930000Y9560103D02*
G75*
G02*
X2946551Y9600054I56500J-3D01*
G01*
X3000000Y10058579D02*
G75*
G03*
X2900006Y10300006I-341400J21D01*
G01*
X4200000Y7200000D02*
G75*
G02*
X3687861Y7412125I0J724300D01*
G01*
X2946549Y9600056D02*
G75*
G03*
X2999999Y9729098I-129049J129044D01*
G01*
X2829289Y10370710D02*
G75*
G03*
X2698223Y10425032I-131089J-131010D01*
G01*
%TO.N,/RP2354A/GPIO9*%
X2775000Y7673223D02*
X2775000Y6093198D01*
X4086396Y5100000D02*
X4200000Y5100000D01*
X2525000Y9922674D02*
X2525000Y8276777D01*
X3000000Y5550000D02*
G75*
G03*
X4086396Y5099998I1086400J1086400D01*
G01*
X2650000Y7975000D02*
G75*
G02*
X2775010Y7673223I-301800J-301800D01*
G01*
X2531838Y9939182D02*
G75*
G03*
X2525005Y9922674I16462J-16482D01*
G01*
X2525000Y8276777D02*
G75*
G03*
X2650007Y7975007I426800J23D01*
G01*
X2775000Y6093198D02*
G75*
G03*
X3000001Y5550001I768200J2D01*
G01*
%TO.N,/RP2354A/GPIO16*%
X9600000Y7500000D02*
X7184924Y5084924D01*
X7184924Y5084924D02*
X5887288Y3787306D01*
X5700000Y1500000D02*
X5700000Y3335156D01*
X5887288Y3787306D02*
G75*
G03*
X5700021Y3335156I452112J-452106D01*
G01*
%TO.N,/RP2354A/GPIO17*%
X8175000Y3250000D02*
X8182655Y3258170D01*
X8182655Y3258170D02*
X8870555Y3946070D01*
X7900000Y1500000D02*
X7900000Y2586091D01*
X9450000Y6625000D02*
X10196972Y7371972D01*
X9100000Y4500000D02*
X9100000Y5780025D01*
X10196972Y7371972D02*
G75*
G03*
X10249990Y7500000I-128072J128028D01*
G01*
X8870555Y3946070D02*
G75*
G03*
X9099993Y4500000I-553955J553930D01*
G01*
X7900000Y2586091D02*
G75*
G02*
X8174997Y3250003I938900J9D01*
G01*
X9100000Y5780025D02*
G75*
G02*
X9450007Y6624993I1195000J-25D01*
G01*
%TO.N,/RP2354A/GPIO18*%
X10800000Y7025000D02*
X10800000Y3949264D01*
X10105000Y2271386D02*
X10105000Y1500000D01*
X10800000Y3949264D02*
G75*
G02*
X10499989Y3225011I-1024300J36D01*
G01*
X10500000Y3225000D02*
G75*
G03*
X10105006Y2271386I953600J-953600D01*
G01*
%TO.N,/RP2354A/GPIO19*%
X12325000Y1500000D02*
X12325000Y7467157D01*
X12000000Y8251777D02*
X12000000Y8900000D01*
X12125000Y7950000D02*
G75*
G02*
X11999990Y8251777I301800J301800D01*
G01*
X12325000Y7467157D02*
G75*
G03*
X12125013Y7950013I-682800J43D01*
G01*
%TO.N,/RP2354A/GPIO20*%
X13100000Y8900000D02*
X13752512Y8247488D01*
X14525000Y2321447D02*
X14525000Y1500000D01*
X14000000Y7650000D02*
X14000000Y3588909D01*
X14275000Y2925000D02*
G75*
G02*
X14525019Y2321447I-603600J-603600D01*
G01*
X13752512Y8247488D02*
G75*
G02*
X13999993Y7650000I-597512J-597488D01*
G01*
X14000000Y3588909D02*
G75*
G03*
X14274997Y2924997I938900J-9D01*
G01*
%TO.N,/RP2354A/GPIO22*%
X13800000Y8900000D02*
X13562132Y9137868D01*
X11375000Y9175000D02*
X11300000Y9100000D01*
X13050000Y9350000D02*
X11797487Y9350000D01*
X11058579Y9000000D02*
X10050000Y9000000D01*
X11797487Y9350000D02*
G75*
G03*
X11375004Y9174996I13J-597500D01*
G01*
X11300000Y9100000D02*
G75*
G02*
X11058579Y9000009I-241400J241400D01*
G01*
X13562132Y9137868D02*
G75*
G03*
X13050000Y9349989I-512132J-512168D01*
G01*
%TO.N,/RP2354A/GPIO26_ADC0*%
X15299264Y14000000D02*
X16627208Y14000000D01*
X14575000Y13700000D02*
G75*
G02*
X15299264Y14000015I724300J-724300D01*
G01*
X16627208Y14000000D02*
G75*
G03*
X18799998Y14900002I-8J3072800D01*
G01*
%TO.N,/RP2354A/GPIO27_ADC1*%
X17400000Y15382843D02*
X17400000Y16058579D01*
X14978004Y14500000D02*
X16375736Y14500000D01*
X17100000Y14800000D02*
X17200000Y14900000D01*
X17500000Y16300000D02*
X17500009Y16300022D01*
X17500009Y16300022D02*
X17917136Y16717149D01*
X17400000Y16058579D02*
G75*
G02*
X17499994Y16300006I341400J21D01*
G01*
X17917136Y16717149D02*
G75*
G02*
X18800000Y17082848I882864J-882849D01*
G01*
X17200000Y14900000D02*
G75*
G03*
X17399982Y15382843I-482800J482800D01*
G01*
X16375736Y14500000D02*
G75*
G03*
X17099989Y14800011I-36J1024300D01*
G01*
X14089182Y14131838D02*
G75*
G02*
X14978004Y14499993I888818J-888838D01*
G01*
%TO.N,/RP2354A/GPIO28_ADC2*%
X13180993Y14136731D02*
X13216561Y14137229D01*
X17100000Y15482843D02*
X17100000Y17275736D01*
X13487838Y14215376D02*
X13548071Y14253220D01*
X13216561Y14137229D02*
X13287249Y14145193D01*
X13287249Y14145193D02*
X13356601Y14161020D01*
X13898643Y14591838D02*
X13928120Y14620597D01*
X17400000Y18000000D02*
X18429290Y19029290D01*
X13548071Y14253220D02*
X13603689Y14297570D01*
X14491724Y14837500D02*
X16507690Y14837500D01*
X13356601Y14161020D02*
X13423746Y14184513D01*
X13629182Y14322377D02*
X13898643Y14591838D01*
X12881511Y14136731D02*
X13180993Y14136731D01*
X13603689Y14297570D02*
X13629182Y14322377D01*
X13423746Y14184513D02*
X13487838Y14215376D01*
X16900000Y15000000D02*
G75*
G03*
X17099982Y15482843I-482800J482800D01*
G01*
X16507690Y14837500D02*
G75*
G03*
X16900003Y14999997I10J554800D01*
G01*
X17100000Y17275736D02*
G75*
G02*
X17400011Y17999989I1024300J-36D01*
G01*
X18429290Y19029290D02*
G75*
G02*
X18800000Y19182849I370710J-370690D01*
G01*
X13928120Y14620597D02*
G75*
G02*
X14491724Y14837472I561680J-618897D01*
G01*
%TO.N,+5V*%
D17*
X8315381Y24415380D02*
X7500000Y23600000D01*
D21*
X11714421Y24185579D02*
X12400000Y23500000D01*
D17*
X8775000Y25525000D02*
G75*
G02*
X8315372Y24415389I-1569200J0D01*
G01*
D21*
X11158579Y25527500D02*
G75*
G03*
X11714430Y24185588I1897721J0D01*
G01*
%TD*%
%TA.AperFunction,Conductor*%
%TO.N,GND*%
G36*
X11640216Y9083955D02*
G01*
X11653325Y9040743D01*
X11651599Y9031256D01*
X11629500Y8948779D01*
X11629500Y8851222D01*
X11654748Y8756993D01*
X11654750Y8756990D01*
X11703525Y8672509D01*
X11703527Y8672506D01*
X11772501Y8603532D01*
X11772505Y8603529D01*
X11772508Y8603526D01*
X11790000Y8593428D01*
X11817489Y8557605D01*
X11819500Y8542333D01*
X11819500Y8191963D01*
X11842834Y8074652D01*
X11842836Y8074645D01*
X11842837Y8074641D01*
X11845437Y8068364D01*
X11888614Y7964124D01*
X11888616Y7964120D01*
X11955072Y7864664D01*
X11955076Y7864659D01*
X11995323Y7824410D01*
X11999211Y7820121D01*
X12056154Y7750735D01*
X12062579Y7741119D01*
X12103521Y7664524D01*
X12107948Y7653837D01*
X12133161Y7570718D01*
X12135417Y7559375D01*
X12144216Y7470042D01*
X12144500Y7464259D01*
X12144500Y2656271D01*
X12127219Y2614552D01*
X12094731Y2597998D01*
X12062625Y2592912D01*
X12062606Y2592908D01*
X11894875Y2538408D01*
X11894874Y2538408D01*
X11737735Y2458342D01*
X11737724Y2458336D01*
X11595047Y2354674D01*
X11595038Y2354666D01*
X11470334Y2229962D01*
X11470326Y2229953D01*
X11366664Y2087276D01*
X11366658Y2087265D01*
X11286592Y1930126D01*
X11286592Y1930125D01*
X11271112Y1882483D01*
X11241785Y1848145D01*
X11196768Y1844603D01*
X11162430Y1873930D01*
X11158888Y1882483D01*
X11143407Y1930125D01*
X11143407Y1930126D01*
X11063341Y2087265D01*
X11063335Y2087276D01*
X10959673Y2229953D01*
X10959672Y2229954D01*
X10959670Y2229957D01*
X10834957Y2354670D01*
X10834954Y2354672D01*
X10834952Y2354674D01*
X10692275Y2458336D01*
X10692264Y2458342D01*
X10535125Y2538408D01*
X10391904Y2584944D01*
X10357566Y2614271D01*
X10354024Y2659288D01*
X10355619Y2663614D01*
X10411041Y2797415D01*
X10415235Y2805648D01*
X10506167Y2954033D01*
X10511606Y2961517D01*
X10626134Y3095612D01*
X10629254Y3098989D01*
X10653020Y3122755D01*
X10653019Y3122755D01*
X10694678Y3164414D01*
X10770736Y3269100D01*
X10806139Y3317826D01*
X10806140Y3317829D01*
X10806142Y3317831D01*
X10892234Y3486795D01*
X10950834Y3667148D01*
X10980499Y3854447D01*
X10980500Y3949264D01*
X10980500Y3985167D01*
X10980500Y3985168D01*
X10980500Y6667333D01*
X10997781Y6709052D01*
X11009993Y6718424D01*
X11027492Y6728526D01*
X11060774Y6761808D01*
X11096473Y6797506D01*
X11096474Y6797508D01*
X11145251Y6881992D01*
X11170500Y6976223D01*
X11170500Y7073777D01*
X11145251Y7168008D01*
X11096474Y7252492D01*
X11096473Y7252494D01*
X11027494Y7321473D01*
X11027491Y7321475D01*
X10943010Y7370250D01*
X10943007Y7370252D01*
X10848778Y7395500D01*
X10848777Y7395500D01*
X10751223Y7395500D01*
X10751221Y7395500D01*
X10693015Y7379904D01*
X10648245Y7385799D01*
X10620755Y7421624D01*
X10620756Y7447286D01*
X10619998Y7447385D01*
X10620503Y7451223D01*
X10620503Y7548778D01*
X10620502Y7548779D01*
X10617878Y7558571D01*
X10595254Y7643008D01*
X10546477Y7727492D01*
X10546476Y7727494D01*
X10477497Y7796473D01*
X10477494Y7796475D01*
X10410201Y7835327D01*
X10382711Y7871152D01*
X10388606Y7915922D01*
X10421469Y7942534D01*
X10433598Y7946475D01*
X10480123Y7961592D01*
X10637270Y8041662D01*
X10637271Y8041664D01*
X10637275Y8041665D01*
X10717071Y8099641D01*
X10779957Y8145330D01*
X10904670Y8270043D01*
X10992860Y8391426D01*
X11008335Y8412725D01*
X11008341Y8412736D01*
X11088407Y8569875D01*
X11088407Y8569876D01*
X11088408Y8569877D01*
X11142910Y8737616D01*
X11150938Y8788313D01*
X11174532Y8826813D01*
X11197700Y8836948D01*
X11210818Y8839557D01*
X11305801Y8878901D01*
X11391284Y8936019D01*
X11393937Y8938674D01*
X11393947Y8938679D01*
X11393946Y8938680D01*
X11402245Y8946979D01*
X11500599Y9045334D01*
X11504869Y9049202D01*
X11547215Y9083955D01*
X11557180Y9092134D01*
X11600392Y9105242D01*
X11640216Y9083955D01*
G37*
%TD.AperFunction*%
%TA.AperFunction,Conductor*%
G36*
X10401756Y7139203D02*
G01*
X10429246Y7103378D01*
X10429250Y7077715D01*
X10430005Y7077615D01*
X10429500Y7073778D01*
X10429500Y6976222D01*
X10454748Y6881993D01*
X10454750Y6881990D01*
X10503525Y6797509D01*
X10503527Y6797506D01*
X10572501Y6728532D01*
X10572505Y6728529D01*
X10572508Y6728526D01*
X10590000Y6718428D01*
X10617489Y6682605D01*
X10619500Y6667333D01*
X10619500Y3951581D01*
X10619318Y3946952D01*
X10609476Y3821902D01*
X10608028Y3812757D01*
X10579286Y3693041D01*
X10576425Y3684237D01*
X10529313Y3570497D01*
X10525110Y3562248D01*
X10460778Y3457268D01*
X10455336Y3449779D01*
X10428972Y3418909D01*
X10373876Y3354400D01*
X10370732Y3351000D01*
X10301508Y3281774D01*
X10301494Y3281758D01*
X10179475Y3122742D01*
X10079246Y2949140D01*
X10002545Y2763964D01*
X10002538Y2763943D01*
X9971682Y2648791D01*
X9944192Y2612966D01*
X9923923Y2605788D01*
X9842614Y2592910D01*
X9842606Y2592908D01*
X9674875Y2538408D01*
X9674874Y2538408D01*
X9517735Y2458342D01*
X9517724Y2458336D01*
X9375047Y2354674D01*
X9375038Y2354666D01*
X9250334Y2229962D01*
X9250326Y2229953D01*
X9146664Y2087276D01*
X9146658Y2087265D01*
X9066592Y1930126D01*
X9066592Y1930125D01*
X9058612Y1905565D01*
X9029285Y1871227D01*
X8984268Y1867685D01*
X8949930Y1897012D01*
X8946388Y1905565D01*
X8938407Y1930125D01*
X8938407Y1930126D01*
X8858341Y2087265D01*
X8858335Y2087276D01*
X8754673Y2229953D01*
X8754672Y2229954D01*
X8754670Y2229957D01*
X8629957Y2354670D01*
X8629954Y2354672D01*
X8629952Y2354674D01*
X8487275Y2458336D01*
X8487264Y2458342D01*
X8330125Y2538408D01*
X8162394Y2592908D01*
X8162374Y2592913D01*
X8137357Y2596875D01*
X8098854Y2620469D01*
X8087871Y2660931D01*
X8090759Y2690250D01*
X8094503Y2728270D01*
X8096757Y2739604D01*
X8136544Y2870766D01*
X8140970Y2881448D01*
X8205575Y3002315D01*
X8211997Y3011928D01*
X8300497Y3119767D01*
X8303026Y3122650D01*
X8304084Y3123779D01*
X8305325Y3125061D01*
X8328020Y3147755D01*
X8328021Y3147759D01*
X8330822Y3150559D01*
X8333166Y3153417D01*
X8972799Y3793050D01*
X8972801Y3793050D01*
X8998188Y3818438D01*
X9051829Y3872078D01*
X9141005Y3994819D01*
X9209883Y4130000D01*
X9256766Y4274292D01*
X9280500Y4424141D01*
X9280500Y4499999D01*
X9280500Y4535903D01*
X9280500Y4535904D01*
X9280500Y5777709D01*
X9280682Y5782338D01*
X9285915Y5848833D01*
X9292626Y5934102D01*
X9294071Y5943230D01*
X9329069Y6089005D01*
X9331929Y6097806D01*
X9333344Y6101222D01*
X9389298Y6236308D01*
X9393490Y6244536D01*
X9471823Y6372365D01*
X9477255Y6379842D01*
X9576146Y6495627D01*
X9579256Y6498991D01*
X9586808Y6506542D01*
X10192485Y7112219D01*
X10234204Y7129500D01*
X10298780Y7129500D01*
X10298786Y7129501D01*
X10356986Y7145096D01*
X10401756Y7139203D01*
G37*
%TD.AperFunction*%
%TA.AperFunction,Conductor*%
G36*
X9531711Y7134728D02*
G01*
X9551223Y7129500D01*
X9556795Y7129500D01*
X9556795Y7070500D01*
X9552716Y7047760D01*
X9561920Y7040153D01*
X9548422Y7023821D01*
X9546379Y7012427D01*
X9539958Y7013579D01*
X9335302Y6765942D01*
X9331542Y6761808D01*
X9322367Y6752634D01*
X9322367Y6752633D01*
X9288165Y6718430D01*
X9258621Y6688886D01*
X9258614Y6688878D01*
X9148857Y6545840D01*
X9058698Y6389680D01*
X8989704Y6223112D01*
X8989700Y6223102D01*
X8943035Y6048945D01*
X8919500Y5870178D01*
X8919500Y4502901D01*
X8919216Y4497118D01*
X8908485Y4388166D01*
X8906228Y4376821D01*
X8875295Y4274854D01*
X8870870Y4264170D01*
X8820635Y4170185D01*
X8814209Y4160568D01*
X8744757Y4075940D01*
X8740868Y4071650D01*
X8084254Y3415037D01*
X8078254Y3409039D01*
X8075487Y3407784D01*
X8052981Y3383766D01*
X8052303Y3383087D01*
X8052273Y3383055D01*
X8026857Y3357639D01*
X8024494Y3354761D01*
X7985070Y3315335D01*
X7985067Y3315332D01*
X7881508Y3172795D01*
X7881504Y3172789D01*
X7801511Y3015795D01*
X7747066Y2848230D01*
X7747064Y2848223D01*
X7738655Y2795131D01*
X7719500Y2674190D01*
X7719500Y2674186D01*
X7719500Y2656271D01*
X7702219Y2614552D01*
X7669731Y2597998D01*
X7637625Y2592912D01*
X7637606Y2592908D01*
X7469875Y2538408D01*
X7469874Y2538408D01*
X7312735Y2458342D01*
X7312724Y2458336D01*
X7170047Y2354674D01*
X7170038Y2354666D01*
X7045334Y2229962D01*
X7045326Y2229953D01*
X6941664Y2087276D01*
X6941658Y2087265D01*
X6861592Y1930126D01*
X6861592Y1930125D01*
X6856112Y1913259D01*
X6826785Y1878921D01*
X6781768Y1875379D01*
X6747430Y1904706D01*
X6743888Y1913259D01*
X6738407Y1930125D01*
X6738407Y1930126D01*
X6658341Y2087265D01*
X6658335Y2087276D01*
X6554673Y2229953D01*
X6554672Y2229954D01*
X6554670Y2229957D01*
X6429957Y2354670D01*
X6429954Y2354672D01*
X6429952Y2354674D01*
X6287275Y2458336D01*
X6287264Y2458342D01*
X6130125Y2538408D01*
X5962393Y2592908D01*
X5962384Y2592910D01*
X5962381Y2592911D01*
X5962374Y2592912D01*
X5930269Y2597998D01*
X5891767Y2621593D01*
X5880500Y2656271D01*
X5880500Y3332258D01*
X5880784Y3338040D01*
X5882901Y3359536D01*
X5888749Y3418916D01*
X5891003Y3430247D01*
X5913748Y3505229D01*
X5918168Y3515900D01*
X5955110Y3585012D01*
X5961528Y3594616D01*
X6013088Y3657441D01*
X6016961Y3661715D01*
X6026929Y3671682D01*
X7278869Y4923606D01*
X7278876Y4923610D01*
X9474722Y7119457D01*
X9516441Y7136738D01*
X9531711Y7134728D01*
G37*
%TD.AperFunction*%
%TA.AperFunction,Conductor*%
G36*
X12767307Y9152219D02*
G01*
X12784588Y9110500D01*
X12776684Y9081000D01*
X12754748Y9043007D01*
X12729500Y8948779D01*
X12729500Y8851222D01*
X12754748Y8756993D01*
X12754750Y8756990D01*
X12803525Y8672509D01*
X12803527Y8672506D01*
X12872506Y8603527D01*
X12872508Y8603526D01*
X12956992Y8554749D01*
X13051223Y8529500D01*
X13148773Y8529500D01*
X13148777Y8529500D01*
X13168287Y8534728D01*
X13213056Y8528835D01*
X13225276Y8519458D01*
X13622825Y8121909D01*
X13626714Y8117619D01*
X13703829Y8023654D01*
X13710254Y8014038D01*
X13766178Y7909413D01*
X13770605Y7898727D01*
X13805045Y7785192D01*
X13807301Y7773849D01*
X13814696Y7698777D01*
X13818069Y7664524D01*
X13819216Y7652885D01*
X13819500Y7647101D01*
X13819500Y3624813D01*
X13819500Y3588909D01*
X13819500Y3500810D01*
X13834035Y3409039D01*
X13847064Y3326778D01*
X13847066Y3326771D01*
X13901511Y3159206D01*
X13981504Y3002212D01*
X13981508Y3002206D01*
X14085067Y2859668D01*
X14085075Y2859659D01*
X14145313Y2799421D01*
X14149202Y2795131D01*
X14227384Y2699866D01*
X14233809Y2690250D01*
X14249183Y2661488D01*
X14253610Y2616549D01*
X14224963Y2581642D01*
X14215382Y2577563D01*
X14094875Y2538408D01*
X14094874Y2538408D01*
X13937735Y2458342D01*
X13937724Y2458336D01*
X13795047Y2354674D01*
X13795038Y2354666D01*
X13670334Y2229962D01*
X13670326Y2229953D01*
X13566664Y2087276D01*
X13566658Y2087265D01*
X13486592Y1930126D01*
X13486592Y1930125D01*
X13481112Y1913259D01*
X13451785Y1878921D01*
X13406768Y1875379D01*
X13372430Y1904706D01*
X13368888Y1913259D01*
X13363407Y1930125D01*
X13363407Y1930126D01*
X13283341Y2087265D01*
X13283335Y2087276D01*
X13179673Y2229953D01*
X13179672Y2229954D01*
X13179670Y2229957D01*
X13054957Y2354670D01*
X13054954Y2354672D01*
X13054952Y2354674D01*
X12912275Y2458336D01*
X12912264Y2458342D01*
X12755125Y2538408D01*
X12587393Y2592908D01*
X12587384Y2592910D01*
X12587381Y2592911D01*
X12587374Y2592912D01*
X12555269Y2597998D01*
X12516767Y2621593D01*
X12505500Y2656271D01*
X12505500Y7506993D01*
X12505501Y7535103D01*
X12484242Y7669324D01*
X12481396Y7678082D01*
X12463541Y7733036D01*
X12442249Y7798566D01*
X12442248Y7798568D01*
X12442248Y7798569D01*
X12380559Y7919641D01*
X12380557Y7919643D01*
X12380555Y7919648D01*
X12300678Y8029588D01*
X12278020Y8052246D01*
X12255369Y8074897D01*
X12250280Y8080699D01*
X12233449Y8102633D01*
X12218221Y8122479D01*
X12210522Y8135812D01*
X12191860Y8180866D01*
X12187877Y8195735D01*
X12181005Y8247940D01*
X12180500Y8255640D01*
X12180500Y8542333D01*
X12197781Y8584052D01*
X12209993Y8593424D01*
X12227492Y8603526D01*
X12252378Y8628412D01*
X12296473Y8672506D01*
X12296474Y8672508D01*
X12345251Y8756992D01*
X12370500Y8851223D01*
X12370500Y8948777D01*
X12345251Y9043008D01*
X12323315Y9081001D01*
X12317422Y9125771D01*
X12344912Y9161596D01*
X12374412Y9169500D01*
X12725588Y9169500D01*
X12767307Y9152219D01*
G37*
%TD.AperFunction*%
%TA.AperFunction,Conductor*%
G36*
X18066371Y29799350D02*
G01*
X18252541Y29786036D01*
X18260874Y29784838D01*
X18504156Y29731915D01*
X18512213Y29729549D01*
X18745504Y29642535D01*
X18753148Y29639044D01*
X18971670Y29519723D01*
X18978735Y29515183D01*
X19178061Y29365969D01*
X19184416Y29360461D01*
X19360459Y29184418D01*
X19365972Y29178056D01*
X19515176Y28978743D01*
X19519723Y28971667D01*
X19639043Y28753148D01*
X19642537Y28745497D01*
X19729543Y28512224D01*
X19731915Y28504148D01*
X19764886Y28352587D01*
X19778717Y28289006D01*
X19784837Y28260876D01*
X19786035Y28252543D01*
X19799350Y28066373D01*
X19799500Y28062164D01*
X19799500Y20312199D01*
X19782219Y20270480D01*
X19740500Y20253199D01*
X19698781Y20270480D01*
X19692768Y20277520D01*
X19667572Y20312199D01*
X19654670Y20329957D01*
X19529957Y20454670D01*
X19529954Y20454672D01*
X19529952Y20454674D01*
X19387275Y20558336D01*
X19387264Y20558342D01*
X19230125Y20638408D01*
X19062393Y20692908D01*
X19062384Y20692910D01*
X18888185Y20720500D01*
X18711815Y20720500D01*
X18581165Y20699808D01*
X18537615Y20692910D01*
X18537606Y20692908D01*
X18369875Y20638408D01*
X18369874Y20638408D01*
X18212735Y20558342D01*
X18212724Y20558336D01*
X18070047Y20454674D01*
X18070038Y20454666D01*
X17945334Y20329962D01*
X17945326Y20329953D01*
X17841664Y20187276D01*
X17841658Y20187265D01*
X17761592Y20030126D01*
X17761592Y20030125D01*
X17707092Y19862394D01*
X17707090Y19862385D01*
X17707090Y19862384D01*
X17679500Y19688185D01*
X17679500Y19511815D01*
X17694421Y19417607D01*
X17707090Y19337616D01*
X17707092Y19337607D01*
X17761592Y19169876D01*
X17761592Y19169875D01*
X17841658Y19012736D01*
X17841665Y19012725D01*
X17944934Y18870587D01*
X17955476Y18826678D01*
X17938921Y18794189D01*
X17281626Y18136892D01*
X17205325Y18060592D01*
X17205317Y18060583D01*
X17093861Y17907176D01*
X17093854Y17907165D01*
X17007766Y17738208D01*
X17007766Y17738207D01*
X16949168Y17557862D01*
X16949166Y17557855D01*
X16938530Y17490700D01*
X16919500Y17370553D01*
X16919500Y17370549D01*
X16919500Y15485743D01*
X16919216Y15479960D01*
X16910417Y15390622D01*
X16908160Y15379277D01*
X16882948Y15296169D01*
X16878523Y15285486D01*
X16837577Y15208878D01*
X16831152Y15199264D01*
X16776674Y15132881D01*
X16766984Y15123503D01*
X16701007Y15072877D01*
X16687669Y15065176D01*
X16611743Y15033726D01*
X16596865Y15029740D01*
X16511527Y15018505D01*
X16503826Y15018000D01*
X14492133Y15018000D01*
X14416863Y15018238D01*
X14267903Y14996396D01*
X14267902Y14996395D01*
X14123796Y14952851D01*
X14123790Y14952849D01*
X13987670Y14888547D01*
X13987664Y14888544D01*
X13862500Y14804892D01*
X13862498Y14804889D01*
X13837297Y14781977D01*
X13837297Y14781976D01*
X13830818Y14776086D01*
X13827769Y14774866D01*
X13804408Y14752077D01*
X13803646Y14751383D01*
X13803644Y14751383D01*
X13803618Y14751359D01*
X13799835Y14747925D01*
X13798143Y14746602D01*
X13796800Y14745260D01*
X13794770Y14743327D01*
X13780222Y14730122D01*
X13778713Y14728084D01*
X13773023Y14721485D01*
X13772108Y14720570D01*
X13771592Y14720060D01*
X13744949Y14694065D01*
X13741724Y14690187D01*
X13502706Y14451168D01*
X13502132Y14450601D01*
X13486279Y14435176D01*
X13481918Y14431333D01*
X13446051Y14402732D01*
X13440655Y14398903D01*
X13403193Y14375366D01*
X13397402Y14372166D01*
X13357552Y14352977D01*
X13351441Y14350446D01*
X13309683Y14335835D01*
X13303323Y14334003D01*
X13260201Y14324163D01*
X13253685Y14323055D01*
X13247918Y14322405D01*
X13243315Y14321887D01*
X13199923Y14334385D01*
X13185611Y14351013D01*
X13177985Y14364223D01*
X13177983Y14364225D01*
X13177982Y14364227D01*
X13109005Y14433204D01*
X13109002Y14433206D01*
X13024521Y14481981D01*
X13024518Y14481983D01*
X12930289Y14507231D01*
X12930288Y14507231D01*
X12832734Y14507231D01*
X12832732Y14507231D01*
X12738503Y14481983D01*
X12738500Y14481981D01*
X12654019Y14433206D01*
X12585036Y14364223D01*
X12536261Y14279742D01*
X12536259Y14279739D01*
X12511011Y14185510D01*
X12511011Y14087953D01*
X12536259Y13993724D01*
X12536261Y13993721D01*
X12585036Y13909240D01*
X12585038Y13909237D01*
X12654017Y13840258D01*
X12654019Y13840257D01*
X12738503Y13791480D01*
X12832734Y13766231D01*
X12930288Y13766231D01*
X13024519Y13791480D01*
X13109003Y13840257D01*
X13109003Y13840258D01*
X13109005Y13840258D01*
X13177979Y13909233D01*
X13177985Y13909239D01*
X13188544Y13927530D01*
X13224367Y13955018D01*
X13231872Y13956516D01*
X13235320Y13956974D01*
X13254988Y13957249D01*
X13262830Y13960628D01*
X13270909Y13961700D01*
X13271228Y13961615D01*
X13272088Y13961844D01*
X13273880Y13962045D01*
X13290345Y13961579D01*
X13290910Y13961483D01*
X13292405Y13961229D01*
X13314317Y13966231D01*
X13320795Y13967331D01*
X13343135Y13969847D01*
X13344967Y13970860D01*
X13360374Y13976741D01*
X13363792Y13977522D01*
X13380230Y13978908D01*
X13382322Y13978790D01*
X13403525Y13986210D01*
X13409867Y13988037D01*
X13431765Y13993033D01*
X13433471Y13994244D01*
X13448123Y14001814D01*
X13451453Y14002980D01*
X13467615Y14006192D01*
X13469709Y14006309D01*
X13492925Y14017489D01*
X13517246Y14025998D01*
X13525015Y14032942D01*
X13535686Y14038081D01*
X13551407Y14043089D01*
X13553463Y14043438D01*
X13572491Y14055395D01*
X13578245Y14058574D01*
X13598499Y14068326D01*
X13599887Y14069880D01*
X13612497Y14080531D01*
X13615469Y14082398D01*
X13630524Y14089132D01*
X13632533Y14089710D01*
X13632536Y14089713D01*
X13637696Y14092377D01*
X13638441Y14090934D01*
X13674984Y14101462D01*
X13714506Y14079620D01*
X13725369Y14058104D01*
X13743931Y13988829D01*
X13743932Y13988828D01*
X13792707Y13904347D01*
X13792709Y13904344D01*
X13861688Y13835365D01*
X13861690Y13835364D01*
X13946174Y13786587D01*
X14040405Y13761338D01*
X14141826Y13761338D01*
X14141826Y13760237D01*
X14181413Y13749633D01*
X14203995Y13710528D01*
X14204500Y13702822D01*
X14204500Y13651222D01*
X14229748Y13556993D01*
X14229750Y13556990D01*
X14278525Y13472509D01*
X14278527Y13472506D01*
X14347506Y13403527D01*
X14347508Y13403526D01*
X14431992Y13354749D01*
X14526223Y13329500D01*
X14623777Y13329500D01*
X14718008Y13354749D01*
X14802492Y13403526D01*
X14802492Y13403527D01*
X14802494Y13403527D01*
X14871473Y13472506D01*
X14871474Y13472508D01*
X14920251Y13556992D01*
X14945500Y13651223D01*
X14945500Y13700250D01*
X14962781Y13741969D01*
X14981919Y13754757D01*
X15034239Y13776429D01*
X15043036Y13779287D01*
X15162764Y13808031D01*
X15171892Y13809476D01*
X15296951Y13819319D01*
X15301580Y13819500D01*
X16687550Y13819500D01*
X16687552Y13819501D01*
X16787033Y13819501D01*
X16815554Y13822311D01*
X17105141Y13850832D01*
X17105150Y13850834D01*
X17105152Y13850834D01*
X17418644Y13913191D01*
X17418648Y13913192D01*
X17605413Y13969847D01*
X17724531Y14005981D01*
X17775363Y14027038D01*
X17820519Y14027038D01*
X17845674Y14007208D01*
X17920406Y13904347D01*
X17945330Y13870043D01*
X18070043Y13745330D01*
X18070046Y13745328D01*
X18070047Y13745327D01*
X18212724Y13641665D01*
X18212735Y13641659D01*
X18369874Y13561593D01*
X18537606Y13507093D01*
X18537608Y13507093D01*
X18537616Y13507090D01*
X18711815Y13479500D01*
X18711818Y13479500D01*
X18888181Y13479500D01*
X18888185Y13479500D01*
X19062384Y13507090D01*
X19230123Y13561592D01*
X19387270Y13641662D01*
X19387271Y13641664D01*
X19387275Y13641665D01*
X19458613Y13693496D01*
X19529957Y13745330D01*
X19654670Y13870043D01*
X19692768Y13922482D01*
X19731270Y13946076D01*
X19775179Y13935534D01*
X19798774Y13897032D01*
X19799500Y13887802D01*
X19799500Y1937838D01*
X19799350Y1933629D01*
X19786035Y1747459D01*
X19784837Y1739126D01*
X19731915Y1495854D01*
X19729543Y1487778D01*
X19642537Y1254505D01*
X19639040Y1246849D01*
X19562112Y1105963D01*
X19519727Y1028340D01*
X19515176Y1021259D01*
X19365972Y821946D01*
X19360459Y815584D01*
X19184416Y639541D01*
X19178055Y634028D01*
X19045570Y534850D01*
X18978747Y484827D01*
X18971665Y480276D01*
X18753154Y360961D01*
X18745497Y357464D01*
X18512223Y270456D01*
X18504145Y268084D01*
X18260873Y215163D01*
X18252541Y213965D01*
X18066371Y200650D01*
X18062162Y200500D01*
X1937837Y200500D01*
X1933628Y200650D01*
X1870293Y205180D01*
X1747456Y213966D01*
X1739128Y215163D01*
X1658201Y232768D01*
X1495852Y268085D01*
X1487776Y270457D01*
X1254503Y357463D01*
X1246852Y360957D01*
X1028333Y480277D01*
X1021257Y484824D01*
X821944Y634028D01*
X815582Y639541D01*
X639539Y815584D01*
X634031Y821939D01*
X484817Y1021265D01*
X480277Y1028330D01*
X360956Y1246852D01*
X357465Y1254496D01*
X270451Y1487787D01*
X268085Y1495844D01*
X247997Y1588185D01*
X4579500Y1588185D01*
X4579500Y1411815D01*
X4605628Y1246847D01*
X4607090Y1237616D01*
X4607092Y1237607D01*
X4661592Y1069876D01*
X4661592Y1069875D01*
X4741658Y912736D01*
X4741664Y912725D01*
X4841264Y775639D01*
X4845330Y770043D01*
X4970043Y645330D01*
X4970046Y645328D01*
X4970047Y645327D01*
X5112724Y541665D01*
X5112735Y541659D01*
X5269874Y461593D01*
X5437606Y407093D01*
X5437608Y407093D01*
X5437616Y407090D01*
X5611815Y379500D01*
X5611818Y379500D01*
X5788181Y379500D01*
X5788185Y379500D01*
X5962384Y407090D01*
X6130123Y461592D01*
X6287270Y541662D01*
X6287271Y541664D01*
X6287275Y541665D01*
X6358613Y593496D01*
X6429957Y645330D01*
X6554670Y770043D01*
X6606929Y841972D01*
X6658335Y912725D01*
X6658341Y912736D01*
X6717244Y1028340D01*
X6738408Y1069877D01*
X6743887Y1086742D01*
X6773214Y1121079D01*
X6818231Y1124623D01*
X6852569Y1095296D01*
X6856110Y1086747D01*
X6861592Y1069877D01*
X6861594Y1069872D01*
X6941658Y912736D01*
X6941664Y912725D01*
X7041264Y775639D01*
X7045330Y770043D01*
X7170043Y645330D01*
X7170046Y645328D01*
X7170047Y645327D01*
X7312724Y541665D01*
X7312735Y541659D01*
X7469874Y461593D01*
X7637606Y407093D01*
X7637608Y407093D01*
X7637616Y407090D01*
X7811815Y379500D01*
X7811818Y379500D01*
X7988181Y379500D01*
X7988185Y379500D01*
X8162384Y407090D01*
X8330123Y461592D01*
X8487270Y541662D01*
X8487271Y541664D01*
X8487275Y541665D01*
X8558613Y593496D01*
X8629957Y645330D01*
X8754670Y770043D01*
X8806929Y841972D01*
X8858335Y912725D01*
X8858341Y912736D01*
X8938407Y1069875D01*
X8946388Y1094436D01*
X8975714Y1128773D01*
X9020732Y1132316D01*
X9055069Y1102990D01*
X9058612Y1094436D01*
X9066592Y1069875D01*
X9146658Y912736D01*
X9146664Y912725D01*
X9246264Y775639D01*
X9250330Y770043D01*
X9375043Y645330D01*
X9375046Y645328D01*
X9375047Y645327D01*
X9517724Y541665D01*
X9517735Y541659D01*
X9674874Y461593D01*
X9842606Y407093D01*
X9842608Y407093D01*
X9842616Y407090D01*
X10016815Y379500D01*
X10016818Y379500D01*
X10193181Y379500D01*
X10193185Y379500D01*
X10367384Y407090D01*
X10535123Y461592D01*
X10692270Y541662D01*
X10692271Y541664D01*
X10692275Y541665D01*
X10763613Y593496D01*
X10834957Y645330D01*
X10959670Y770043D01*
X11011929Y841972D01*
X11063335Y912725D01*
X11063341Y912736D01*
X11143407Y1069875D01*
X11143407Y1069876D01*
X11143408Y1069877D01*
X11158888Y1117518D01*
X11188215Y1151855D01*
X11233232Y1155398D01*
X11267569Y1126071D01*
X11271112Y1117518D01*
X11286592Y1069876D01*
X11286592Y1069875D01*
X11366658Y912736D01*
X11366664Y912725D01*
X11466264Y775639D01*
X11470330Y770043D01*
X11595043Y645330D01*
X11595046Y645328D01*
X11595047Y645327D01*
X11737724Y541665D01*
X11737735Y541659D01*
X11894874Y461593D01*
X12062606Y407093D01*
X12062608Y407093D01*
X12062616Y407090D01*
X12236815Y379500D01*
X12236818Y379500D01*
X12413181Y379500D01*
X12413185Y379500D01*
X12587384Y407090D01*
X12755123Y461592D01*
X12912270Y541662D01*
X12912271Y541664D01*
X12912275Y541665D01*
X12983613Y593496D01*
X13054957Y645330D01*
X13179670Y770043D01*
X13231929Y841972D01*
X13283335Y912725D01*
X13283341Y912736D01*
X13342244Y1028340D01*
X13363408Y1069877D01*
X13368887Y1086742D01*
X13398214Y1121079D01*
X13443231Y1124623D01*
X13477569Y1095296D01*
X13481110Y1086747D01*
X13486592Y1069877D01*
X13486594Y1069872D01*
X13566658Y912736D01*
X13566664Y912725D01*
X13666264Y775639D01*
X13670330Y770043D01*
X13795043Y645330D01*
X13795046Y645328D01*
X13795047Y645327D01*
X13937724Y541665D01*
X13937735Y541659D01*
X14094874Y461593D01*
X14262606Y407093D01*
X14262608Y407093D01*
X14262616Y407090D01*
X14436815Y379500D01*
X14436818Y379500D01*
X14613181Y379500D01*
X14613185Y379500D01*
X14787384Y407090D01*
X14955123Y461592D01*
X15112270Y541662D01*
X15112271Y541664D01*
X15112275Y541665D01*
X15183613Y593496D01*
X15254957Y645330D01*
X15379670Y770043D01*
X15431929Y841972D01*
X15483335Y912725D01*
X15483341Y912736D01*
X15563407Y1069875D01*
X15563407Y1069876D01*
X15563408Y1069877D01*
X15617910Y1237616D01*
X15645500Y1411815D01*
X15645500Y1588185D01*
X15617910Y1762384D01*
X15563408Y1930123D01*
X15563407Y1930125D01*
X15563407Y1930126D01*
X15483341Y2087265D01*
X15483335Y2087276D01*
X15379673Y2229953D01*
X15379672Y2229954D01*
X15379670Y2229957D01*
X15254957Y2354670D01*
X15254954Y2354672D01*
X15254952Y2354674D01*
X15112275Y2458336D01*
X15112264Y2458342D01*
X14955125Y2538408D01*
X14787393Y2592908D01*
X14787385Y2592910D01*
X14699878Y2606770D01*
X14661376Y2630365D01*
X14652996Y2646812D01*
X14648942Y2659288D01*
X14629741Y2718385D01*
X14629737Y2718393D01*
X14555851Y2863404D01*
X14555849Y2863406D01*
X14555848Y2863409D01*
X14460178Y2995087D01*
X14404675Y3050591D01*
X14400788Y3054881D01*
X14345098Y3122739D01*
X14312002Y3163067D01*
X14305577Y3172682D01*
X14240970Y3293553D01*
X14236543Y3304239D01*
X14229706Y3326778D01*
X14196758Y3435395D01*
X14194503Y3446735D01*
X14194203Y3449777D01*
X14180784Y3586026D01*
X14180500Y3591809D01*
X14180500Y7730703D01*
X14180500Y7730707D01*
X14155249Y7890133D01*
X14149739Y7907090D01*
X14114990Y8014038D01*
X14105370Y8043646D01*
X14105369Y8043648D01*
X14105369Y8043649D01*
X14032093Y8187462D01*
X14032092Y8187464D01*
X14013043Y8213682D01*
X13937213Y8318053D01*
X13880145Y8375121D01*
X13875766Y8379500D01*
X13824021Y8431245D01*
X13806740Y8472964D01*
X13824021Y8514683D01*
X13850468Y8529954D01*
X13943008Y8554749D01*
X14027492Y8603526D01*
X14027492Y8603527D01*
X14027494Y8603527D01*
X14096473Y8672506D01*
X14096474Y8672508D01*
X14145251Y8756992D01*
X14170500Y8851223D01*
X14170500Y8948777D01*
X14145251Y9043008D01*
X14096474Y9127492D01*
X14096473Y9127494D01*
X14027494Y9196473D01*
X14027491Y9196475D01*
X13943010Y9245250D01*
X13943007Y9245252D01*
X13848778Y9270500D01*
X13848777Y9270500D01*
X13751223Y9270500D01*
X13751222Y9270500D01*
X13751214Y9270499D01*
X13731708Y9265273D01*
X13686938Y9271169D01*
X13674722Y9280544D01*
X13639419Y9315847D01*
X13639415Y9315851D01*
X13524200Y9399560D01*
X13524197Y9399562D01*
X13524194Y9399564D01*
X13397311Y9464214D01*
X13261875Y9508220D01*
X13261866Y9508222D01*
X13121206Y9530500D01*
X13085904Y9530500D01*
X11833390Y9530500D01*
X11797487Y9530500D01*
X11720862Y9530500D01*
X11720860Y9530500D01*
X11570565Y9500605D01*
X11570554Y9500601D01*
X11428974Y9441958D01*
X11301545Y9356812D01*
X11264456Y9319724D01*
X11226735Y9282003D01*
X11185016Y9264722D01*
X11143297Y9282003D01*
X11128904Y9305490D01*
X11101674Y9389295D01*
X11088408Y9430123D01*
X11088407Y9430125D01*
X11088407Y9430126D01*
X11008341Y9587265D01*
X11008335Y9587276D01*
X10904673Y9729953D01*
X10904672Y9729954D01*
X10904670Y9729957D01*
X10779957Y9854670D01*
X10779954Y9854672D01*
X10779952Y9854674D01*
X10637275Y9958336D01*
X10637264Y9958342D01*
X10480125Y10038408D01*
X10312393Y10092908D01*
X10312384Y10092910D01*
X10281787Y10097756D01*
X10138185Y10120500D01*
X9961815Y10120500D01*
X9846234Y10102194D01*
X9787615Y10092910D01*
X9787606Y10092908D01*
X9619875Y10038408D01*
X9619874Y10038408D01*
X9462735Y9958342D01*
X9462724Y9958336D01*
X9320047Y9854674D01*
X9320038Y9854666D01*
X9195334Y9729962D01*
X9195326Y9729953D01*
X9091664Y9587276D01*
X9091658Y9587265D01*
X9011592Y9430126D01*
X9011592Y9430125D01*
X8957092Y9262394D01*
X8957090Y9262385D01*
X8957090Y9262384D01*
X8929500Y9088185D01*
X8929500Y8911815D01*
X8942628Y8828926D01*
X8957090Y8737616D01*
X8957092Y8737607D01*
X9011592Y8569876D01*
X9011592Y8569875D01*
X9091658Y8412736D01*
X9091664Y8412725D01*
X9195326Y8270048D01*
X9195330Y8270043D01*
X9320043Y8145330D01*
X9320046Y8145328D01*
X9320047Y8145327D01*
X9462724Y8041665D01*
X9462735Y8041659D01*
X9579687Y7982069D01*
X9609014Y7947732D01*
X9605471Y7902715D01*
X9571134Y7873388D01*
X9552902Y7870500D01*
X9551221Y7870500D01*
X9456992Y7845252D01*
X9456989Y7845250D01*
X9372508Y7796475D01*
X9303525Y7727492D01*
X9254750Y7643011D01*
X9254748Y7643008D01*
X9229500Y7548779D01*
X9229500Y7451220D01*
X9234727Y7431712D01*
X9228832Y7386941D01*
X9219456Y7374724D01*
X7082680Y5237947D01*
X7082680Y5237946D01*
X5785044Y3940327D01*
X5771526Y3934728D01*
X5759656Y3914941D01*
X5759656Y3914940D01*
X5714026Y3869310D01*
X5638165Y3764898D01*
X5638163Y3764896D01*
X5638162Y3764893D01*
X5579571Y3649903D01*
X5539692Y3527168D01*
X5539690Y3527161D01*
X5535517Y3500810D01*
X5519500Y3399686D01*
X5519500Y3399682D01*
X5519500Y2656271D01*
X5502219Y2614552D01*
X5469731Y2597998D01*
X5437625Y2592912D01*
X5437606Y2592908D01*
X5269875Y2538408D01*
X5269874Y2538408D01*
X5112735Y2458342D01*
X5112724Y2458336D01*
X4970047Y2354674D01*
X4970038Y2354666D01*
X4845334Y2229962D01*
X4845326Y2229953D01*
X4741664Y2087276D01*
X4741658Y2087265D01*
X4661592Y1930126D01*
X4661592Y1930125D01*
X4607092Y1762394D01*
X4607090Y1762385D01*
X4603406Y1739126D01*
X4579500Y1588185D01*
X247997Y1588185D01*
X215162Y1739127D01*
X213964Y1747459D01*
X200650Y1933630D01*
X200500Y1937839D01*
X200500Y4995928D01*
X877407Y4995928D01*
X877407Y4898371D01*
X902655Y4804142D01*
X902657Y4804139D01*
X951432Y4719658D01*
X951434Y4719655D01*
X1020413Y4650676D01*
X1020415Y4650675D01*
X1104899Y4601898D01*
X1199130Y4576649D01*
X1254362Y4576649D01*
X1296081Y4559368D01*
X1323523Y4531926D01*
X1340804Y4490207D01*
X1340804Y4442557D01*
X1366052Y4348328D01*
X1366054Y4348325D01*
X1414829Y4263844D01*
X1414831Y4263841D01*
X1483810Y4194862D01*
X1483812Y4194861D01*
X1568296Y4146084D01*
X1662527Y4120835D01*
X1734158Y4120835D01*
X1771587Y4107443D01*
X1863942Y4031649D01*
X2104721Y3870767D01*
X2104725Y3870765D01*
X2104740Y3870756D01*
X2302797Y3764893D01*
X2360109Y3734259D01*
X2612328Y3629787D01*
X2627653Y3623439D01*
X2904758Y3539380D01*
X2904763Y3539379D01*
X3188766Y3482887D01*
X3188769Y3482887D01*
X3188778Y3482885D01*
X3448580Y3457297D01*
X3476964Y3454501D01*
X3476965Y3454501D01*
X3561185Y3454501D01*
X3561189Y3454500D01*
X3572923Y3454500D01*
X4595318Y3454500D01*
X4595322Y3454500D01*
X4783620Y3484323D01*
X4964934Y3543236D01*
X5134800Y3629787D01*
X5289034Y3741846D01*
X5356438Y3809249D01*
X5387047Y3839859D01*
X5387046Y3839859D01*
X5630763Y4083576D01*
X5630772Y4083582D01*
X5745713Y4198523D01*
X5745717Y4198530D01*
X5758481Y4211293D01*
X5850913Y4338514D01*
X5922305Y4478629D01*
X5970899Y4628186D01*
X5995500Y4783504D01*
X5995500Y4862132D01*
X5995500Y4905420D01*
X5995500Y4905421D01*
X5995500Y5848833D01*
X5995500Y8270247D01*
X5995626Y8274106D01*
X5998506Y8318049D01*
X6009212Y8481397D01*
X6010220Y8489041D01*
X6050367Y8690876D01*
X6052357Y8698303D01*
X6118514Y8893196D01*
X6121461Y8900309D01*
X6212480Y9084877D01*
X6216334Y9091551D01*
X6290990Y9203279D01*
X6328536Y9228366D01*
X6340046Y9229500D01*
X6348777Y9229500D01*
X6443008Y9254749D01*
X6527492Y9303526D01*
X6527492Y9303527D01*
X6527494Y9303527D01*
X6596473Y9372506D01*
X6596474Y9372508D01*
X6645251Y9456992D01*
X6670500Y9551223D01*
X6670500Y9648777D01*
X6645251Y9743008D01*
X6596474Y9827492D01*
X6596473Y9827494D01*
X6527494Y9896473D01*
X6527491Y9896475D01*
X6443010Y9945250D01*
X6443007Y9945252D01*
X6348778Y9970500D01*
X6348777Y9970500D01*
X6251223Y9970500D01*
X6251221Y9970500D01*
X6156992Y9945252D01*
X6156989Y9945250D01*
X6072508Y9896475D01*
X6003525Y9827492D01*
X5954750Y9743011D01*
X5954748Y9743008D01*
X5929500Y9648779D01*
X5929500Y9568744D01*
X5916629Y9531959D01*
X5893397Y9502827D01*
X5893394Y9502822D01*
X5768169Y9303526D01*
X5766508Y9300883D01*
X5766505Y9300878D01*
X5663036Y9086023D01*
X5584272Y8860928D01*
X5531199Y8628406D01*
X5504500Y8391427D01*
X5504500Y4865032D01*
X5504216Y4859249D01*
X5495307Y4768797D01*
X5493050Y4757453D01*
X5467512Y4673268D01*
X5463088Y4662586D01*
X5421613Y4584993D01*
X5415191Y4575382D01*
X5382793Y4535904D01*
X5357537Y4505130D01*
X5353649Y4500841D01*
X5017869Y4165060D01*
X5017866Y4165057D01*
X5011291Y4158483D01*
X5007004Y4154598D01*
X4904607Y4070562D01*
X4894991Y4064136D01*
X4780731Y4003062D01*
X4770047Y3998636D01*
X4756236Y3994446D01*
X4711296Y3998871D01*
X4682648Y4033776D01*
X4687073Y4078716D01*
X4712320Y4103474D01*
X4787270Y4141662D01*
X4787274Y4141665D01*
X4787275Y4141665D01*
X4860494Y4194862D01*
X4929957Y4245330D01*
X5054670Y4370043D01*
X5133561Y4478627D01*
X5158335Y4512725D01*
X5158341Y4512736D01*
X5238407Y4669875D01*
X5238407Y4669876D01*
X5238408Y4669877D01*
X5292910Y4837616D01*
X5320500Y5011815D01*
X5320500Y5188185D01*
X5292910Y5362384D01*
X5238408Y5530123D01*
X5238407Y5530125D01*
X5238407Y5530126D01*
X5158341Y5687265D01*
X5158335Y5687276D01*
X5054673Y5829953D01*
X5054672Y5829954D01*
X5054670Y5829957D01*
X4929957Y5954670D01*
X4929954Y5954672D01*
X4929952Y5954674D01*
X4787275Y6058336D01*
X4787264Y6058342D01*
X4630128Y6138406D01*
X4630125Y6138407D01*
X4630123Y6138408D01*
X4613258Y6143888D01*
X4578921Y6173214D01*
X4575377Y6218231D01*
X4604704Y6252569D01*
X4613257Y6256112D01*
X4630123Y6261592D01*
X4787270Y6341662D01*
X4787271Y6341664D01*
X4787275Y6341665D01*
X4858613Y6393496D01*
X4929957Y6445330D01*
X5054670Y6570043D01*
X5141013Y6688884D01*
X5158335Y6712725D01*
X5158341Y6712736D01*
X5238407Y6869875D01*
X5238407Y6869876D01*
X5238408Y6869877D01*
X5292910Y7037616D01*
X5320500Y7211815D01*
X5320500Y7388185D01*
X5292910Y7562384D01*
X5238408Y7730123D01*
X5238407Y7730125D01*
X5238407Y7730126D01*
X5158341Y7887265D01*
X5158335Y7887276D01*
X5054673Y8029953D01*
X5054672Y8029954D01*
X5054670Y8029957D01*
X4929957Y8154670D01*
X4929954Y8154672D01*
X4929952Y8154674D01*
X4787275Y8258336D01*
X4787264Y8258342D01*
X4630128Y8338406D01*
X4630125Y8338407D01*
X4630123Y8338408D01*
X4613258Y8343888D01*
X4578921Y8373214D01*
X4575377Y8418231D01*
X4604704Y8452569D01*
X4613257Y8456112D01*
X4630123Y8461592D01*
X4787270Y8541662D01*
X4787271Y8541664D01*
X4787275Y8541665D01*
X4858613Y8593496D01*
X4929957Y8645330D01*
X5054670Y8770043D01*
X5133760Y8878901D01*
X5158335Y8912725D01*
X5158341Y8912736D01*
X5238407Y9069875D01*
X5238407Y9069876D01*
X5238408Y9069877D01*
X5292910Y9237616D01*
X5320500Y9411815D01*
X5320500Y9588185D01*
X5292910Y9762384D01*
X5238408Y9930123D01*
X5238407Y9930125D01*
X5238407Y9930126D01*
X5158341Y10087265D01*
X5158335Y10087276D01*
X5054673Y10229953D01*
X5054672Y10229954D01*
X5054670Y10229957D01*
X5000066Y10284561D01*
X7511530Y10284561D01*
X7511530Y10185028D01*
X7537289Y10088892D01*
X7537291Y10088889D01*
X7587054Y10002697D01*
X7587056Y10002694D01*
X7657425Y9932325D01*
X7657429Y9932322D01*
X7657432Y9932319D01*
X7664528Y9928223D01*
X7692019Y9892401D01*
X7694030Y9877127D01*
X7694030Y8213682D01*
X7694030Y8213681D01*
X7694030Y8174794D01*
X7694030Y8115584D01*
X7720381Y8000134D01*
X7720382Y8000130D01*
X7771759Y7893445D01*
X7771760Y7893444D01*
X7771761Y7893442D01*
X7845594Y7800858D01*
X7938178Y7727025D01*
X7938179Y7727025D01*
X7938180Y7727024D01*
X8044865Y7675647D01*
X8044866Y7675647D01*
X8044870Y7675645D01*
X8160320Y7649294D01*
X8161862Y7649294D01*
X8162438Y7649056D01*
X8163612Y7648923D01*
X8163573Y7648585D01*
X8203581Y7632013D01*
X8212955Y7619797D01*
X8217055Y7612696D01*
X8217057Y7612693D01*
X8287430Y7542320D01*
X8287432Y7542319D01*
X8373627Y7492554D01*
X8469765Y7466794D01*
X8569295Y7466794D01*
X8665433Y7492554D01*
X8751628Y7542319D01*
X8751628Y7542320D01*
X8751630Y7542320D01*
X8822004Y7612694D01*
X8822005Y7612696D01*
X8871770Y7698891D01*
X8897530Y7795029D01*
X8897530Y7894559D01*
X8871770Y7990697D01*
X8822005Y8076892D01*
X8822004Y8076894D01*
X8751630Y8147268D01*
X8751627Y8147270D01*
X8665435Y8197033D01*
X8665432Y8197035D01*
X8569296Y8222794D01*
X8569295Y8222794D01*
X8469765Y8222794D01*
X8469763Y8222794D01*
X8373627Y8197035D01*
X8373624Y8197033D01*
X8287433Y8147271D01*
X8215866Y8075704D01*
X8174147Y8058424D01*
X8141374Y8068364D01*
X8134187Y8073165D01*
X8117903Y8089447D01*
X8109093Y8102633D01*
X8101786Y8113569D01*
X8092978Y8134836D01*
X8086164Y8169093D01*
X8085030Y8180603D01*
X8085030Y9877127D01*
X8102311Y9918846D01*
X8114525Y9928219D01*
X8121628Y9932319D01*
X8156542Y9967233D01*
X8192004Y10002694D01*
X8192005Y10002696D01*
X8241770Y10088891D01*
X8267530Y10185029D01*
X8267530Y10284559D01*
X8241770Y10380697D01*
X8192005Y10466892D01*
X8192004Y10466894D01*
X8121630Y10537268D01*
X8121627Y10537270D01*
X8035435Y10587033D01*
X8035432Y10587035D01*
X7939296Y10612794D01*
X7939295Y10612794D01*
X7839765Y10612794D01*
X7839763Y10612794D01*
X7743627Y10587035D01*
X7743624Y10587033D01*
X7657432Y10537270D01*
X7587054Y10466892D01*
X7537291Y10380700D01*
X7537289Y10380697D01*
X7511530Y10284561D01*
X5000066Y10284561D01*
X4929957Y10354670D01*
X4929954Y10354672D01*
X4929952Y10354674D01*
X4787275Y10458336D01*
X4787264Y10458342D01*
X4630128Y10538406D01*
X4630125Y10538407D01*
X4630123Y10538408D01*
X4613258Y10543888D01*
X4578921Y10573214D01*
X4575377Y10618231D01*
X4604704Y10652569D01*
X4613257Y10656112D01*
X4630123Y10661592D01*
X4787270Y10741662D01*
X4787271Y10741664D01*
X4787275Y10741665D01*
X4877189Y10806992D01*
X4929957Y10845330D01*
X5054670Y10970043D01*
X5075547Y10998779D01*
X10229500Y10998779D01*
X10229500Y10901222D01*
X10254748Y10806993D01*
X10254750Y10806990D01*
X10303525Y10722509D01*
X10303527Y10722506D01*
X10372506Y10653527D01*
X10372508Y10653526D01*
X10456992Y10604749D01*
X10551223Y10579500D01*
X10648777Y10579500D01*
X10743008Y10604749D01*
X10761435Y10615388D01*
X10772189Y10621596D01*
X10801688Y10629500D01*
X12998643Y10629500D01*
X13046505Y10629500D01*
X13052288Y10629216D01*
X13169782Y10617644D01*
X13181114Y10615389D01*
X13291303Y10581964D01*
X13301981Y10577541D01*
X13377326Y10537268D01*
X13403526Y10523264D01*
X13413143Y10516839D01*
X13484422Y10458342D01*
X13504405Y10441943D01*
X13508694Y10438055D01*
X14035557Y9911190D01*
X15271823Y8674921D01*
X15271829Y8674916D01*
X16037576Y7909169D01*
X16037578Y7909166D01*
X16056602Y7890143D01*
X16071424Y7875321D01*
X16071424Y7875319D01*
X16075312Y7871031D01*
X16133715Y7799866D01*
X16140140Y7790250D01*
X16182160Y7711637D01*
X16186586Y7700951D01*
X16195285Y7672275D01*
X16195816Y7639878D01*
X16174030Y7558573D01*
X16174030Y7461016D01*
X16199278Y7366787D01*
X16199280Y7366784D01*
X16248055Y7282303D01*
X16248057Y7282300D01*
X16317036Y7213321D01*
X16317038Y7213320D01*
X16401522Y7164543D01*
X16495753Y7139294D01*
X16593307Y7139294D01*
X16687538Y7164543D01*
X16772022Y7213320D01*
X16772022Y7213321D01*
X16772024Y7213321D01*
X16841003Y7282300D01*
X16841004Y7282302D01*
X16889781Y7366786D01*
X16915030Y7461017D01*
X16915030Y7558571D01*
X16889781Y7652802D01*
X16854325Y7714214D01*
X16849769Y7722105D01*
X16842591Y7742375D01*
X16842140Y7745223D01*
X16836590Y7780266D01*
X16836588Y7780271D01*
X16836588Y7780274D01*
X16796803Y7902715D01*
X16780408Y7953174D01*
X16780407Y7953176D01*
X16780407Y7953177D01*
X16697873Y8115160D01*
X16697871Y8115162D01*
X16697870Y8115165D01*
X16591006Y8262250D01*
X16565574Y8287682D01*
X16526727Y8326529D01*
X16526726Y8326529D01*
X15662046Y9191209D01*
X15204477Y9648779D01*
X13930063Y10923197D01*
X13930062Y10923198D01*
X13926700Y10926560D01*
X13926699Y10926560D01*
X13888242Y10965018D01*
X13888241Y10965019D01*
X13724268Y11084153D01*
X13724266Y11084154D01*
X13543686Y11176164D01*
X13350935Y11238793D01*
X13350928Y11238795D01*
X13293730Y11247854D01*
X13150742Y11270501D01*
X13150737Y11270501D01*
X13049403Y11270500D01*
X10801688Y11270500D01*
X10772189Y11278404D01*
X10743008Y11295251D01*
X10743007Y11295252D01*
X10648778Y11320500D01*
X10648777Y11320500D01*
X10551223Y11320500D01*
X10551221Y11320500D01*
X10456992Y11295252D01*
X10456989Y11295250D01*
X10372508Y11246475D01*
X10303525Y11177492D01*
X10254750Y11093011D01*
X10254748Y11093008D01*
X10229500Y10998779D01*
X5075547Y10998779D01*
X5087808Y11015655D01*
X5103552Y11037323D01*
X5158335Y11112725D01*
X5158341Y11112736D01*
X5238407Y11269875D01*
X5238407Y11269876D01*
X5238408Y11269877D01*
X5292910Y11437616D01*
X5320500Y11611815D01*
X5320500Y11788185D01*
X5297473Y11933573D01*
X14124030Y11933573D01*
X14124030Y11836016D01*
X14149278Y11741787D01*
X14149280Y11741784D01*
X14198055Y11657303D01*
X14198057Y11657300D01*
X14267036Y11588321D01*
X14267038Y11588320D01*
X14351522Y11539543D01*
X14445753Y11514294D01*
X14543307Y11514294D01*
X14637538Y11539543D01*
X14722022Y11588320D01*
X14722022Y11588321D01*
X14722024Y11588321D01*
X14791002Y11657300D01*
X14791004Y11657302D01*
X14801102Y11674794D01*
X14836927Y11702283D01*
X14852198Y11704294D01*
X15636862Y11704294D01*
X15678581Y11687013D01*
X15687958Y11674793D01*
X15698057Y11657300D01*
X15767036Y11588321D01*
X15767038Y11588320D01*
X15851522Y11539543D01*
X15945753Y11514294D01*
X16043307Y11514294D01*
X16043313Y11514295D01*
X16104446Y11530676D01*
X16149216Y11524783D01*
X16176706Y11488958D01*
X16170813Y11444188D01*
X16161436Y11431968D01*
X15869546Y11140077D01*
X15869536Y11140067D01*
X15840057Y11110603D01*
X15840053Y11110598D01*
X15790511Y11036479D01*
X15756395Y10954117D01*
X15739018Y10866681D01*
X15739030Y10822223D01*
X15739030Y10117463D01*
X15721749Y10075744D01*
X15709531Y10066368D01*
X15692035Y10056267D01*
X15623057Y9987288D01*
X15623055Y9987286D01*
X15574280Y9902805D01*
X15574278Y9902802D01*
X15549030Y9808573D01*
X15549030Y9711016D01*
X15574278Y9616787D01*
X15574280Y9616784D01*
X15623055Y9532303D01*
X15623057Y9532300D01*
X15692036Y9463321D01*
X15692038Y9463320D01*
X15776522Y9414543D01*
X15870753Y9389294D01*
X15968307Y9389294D01*
X16062538Y9414543D01*
X16147022Y9463320D01*
X16147022Y9463321D01*
X16147024Y9463321D01*
X16216003Y9532300D01*
X16216004Y9532302D01*
X16264781Y9616786D01*
X16290030Y9711017D01*
X16290030Y9808571D01*
X16264781Y9902802D01*
X16216004Y9987286D01*
X16216003Y9987288D01*
X16147024Y10056267D01*
X16129529Y10066368D01*
X16102040Y10102194D01*
X16100030Y10117463D01*
X16100030Y10780347D01*
X16100030Y10786294D01*
X16100041Y10786319D01*
X16100031Y10818375D01*
X16100032Y10818378D01*
X16100534Y10826061D01*
X16102122Y10838143D01*
X16106107Y10853025D01*
X16109279Y10860683D01*
X16116983Y10874024D01*
X16124411Y10883700D01*
X16129489Y10889488D01*
X16152158Y10912141D01*
X16152159Y10912145D01*
X16156485Y10916467D01*
X16156557Y10916557D01*
X16844324Y11604325D01*
X16844331Y11604329D01*
X16969743Y11729741D01*
X16988370Y11748368D01*
X16994158Y11753445D01*
X17022563Y11775240D01*
X17035893Y11782935D01*
X17065363Y11795141D01*
X17080231Y11799125D01*
X17115715Y11803796D01*
X17123412Y11804300D01*
X17155454Y11804299D01*
X17155454Y11804300D01*
X17174933Y11804300D01*
X17176807Y11804299D01*
X17209591Y11804298D01*
X17209617Y11804294D01*
X17216469Y11804294D01*
X17255722Y11804294D01*
X17255723Y11804294D01*
X17288265Y11804292D01*
X17288267Y11804294D01*
X17293881Y11804293D01*
X17293902Y11804294D01*
X18042332Y11804294D01*
X18084051Y11787013D01*
X18093428Y11774793D01*
X18103527Y11757300D01*
X18172506Y11688321D01*
X18172508Y11688320D01*
X18256992Y11639543D01*
X18351223Y11614294D01*
X18448777Y11614294D01*
X18543008Y11639543D01*
X18627492Y11688320D01*
X18627492Y11688321D01*
X18627494Y11688321D01*
X18696473Y11757300D01*
X18696474Y11757302D01*
X18745251Y11841786D01*
X18770500Y11936017D01*
X18770500Y12033571D01*
X18745251Y12127802D01*
X18696474Y12212286D01*
X18696473Y12212288D01*
X18627494Y12281267D01*
X18627491Y12281269D01*
X18543010Y12330044D01*
X18543007Y12330046D01*
X18448778Y12355294D01*
X18448777Y12355294D01*
X18351223Y12355294D01*
X18351221Y12355294D01*
X18256992Y12330046D01*
X18256989Y12330044D01*
X18172508Y12281269D01*
X18172506Y12281267D01*
X18103527Y12212289D01*
X18099041Y12204518D01*
X18095185Y12197838D01*
X18093428Y12194795D01*
X18057603Y12167305D01*
X18042332Y12165294D01*
X17255747Y12165294D01*
X17255738Y12165295D01*
X17218410Y12165297D01*
X17218393Y12165299D01*
X17176842Y12165299D01*
X17141851Y12165301D01*
X17141850Y12165301D01*
X17138233Y12165301D01*
X17107611Y12165301D01*
X17097235Y12165302D01*
X17066112Y12165302D01*
X17066111Y12165302D01*
X17066109Y12165302D01*
X17066108Y12165302D01*
X16961269Y12144450D01*
X16961268Y12144450D01*
X16862513Y12103546D01*
X16862508Y12103543D01*
X16773632Y12044160D01*
X16773623Y12044153D01*
X16750188Y12020717D01*
X16750187Y12020715D01*
X16720087Y11990617D01*
X16720086Y11990616D01*
X16720085Y11990615D01*
X16720084Y11990615D01*
X16597358Y11867888D01*
X16447356Y11717887D01*
X16405637Y11700606D01*
X16363918Y11717887D01*
X16346637Y11759606D01*
X16348646Y11774873D01*
X16365030Y11836017D01*
X16365030Y11933571D01*
X16339781Y12027802D01*
X16291004Y12112286D01*
X16291003Y12112288D01*
X16222024Y12181267D01*
X16222021Y12181269D01*
X16137540Y12230044D01*
X16137537Y12230046D01*
X16043308Y12255294D01*
X16043307Y12255294D01*
X15945753Y12255294D01*
X15945751Y12255294D01*
X15851522Y12230046D01*
X15851519Y12230044D01*
X15767038Y12181269D01*
X15767036Y12181267D01*
X15698057Y12112289D01*
X15687958Y12094795D01*
X15652133Y12067305D01*
X15636862Y12065294D01*
X14852198Y12065294D01*
X14810479Y12082575D01*
X14801102Y12094795D01*
X14797249Y12101468D01*
X14791004Y12112286D01*
X14791003Y12112287D01*
X14791002Y12112289D01*
X14722024Y12181267D01*
X14722021Y12181269D01*
X14637540Y12230044D01*
X14637537Y12230046D01*
X14543308Y12255294D01*
X14543307Y12255294D01*
X14445753Y12255294D01*
X14445751Y12255294D01*
X14351522Y12230046D01*
X14351519Y12230044D01*
X14267038Y12181269D01*
X14198055Y12112286D01*
X14149280Y12027805D01*
X14149278Y12027802D01*
X14124030Y11933573D01*
X5297473Y11933573D01*
X5292910Y11962384D01*
X5283736Y11990617D01*
X5266341Y12044153D01*
X5238408Y12130123D01*
X5238407Y12130125D01*
X5238407Y12130126D01*
X5158341Y12287265D01*
X5158335Y12287276D01*
X5054673Y12429953D01*
X5054672Y12429954D01*
X5054670Y12429957D01*
X4929957Y12554670D01*
X4929954Y12554672D01*
X4929952Y12554674D01*
X4787275Y12658336D01*
X4787264Y12658342D01*
X4630125Y12738408D01*
X4462393Y12792908D01*
X4462384Y12792910D01*
X4404861Y12802021D01*
X4366359Y12825614D01*
X4355817Y12869523D01*
X4379411Y12908026D01*
X4414091Y12919294D01*
X5471862Y12919294D01*
X5513581Y12902013D01*
X5522955Y12889797D01*
X5527055Y12882696D01*
X5527057Y12882693D01*
X5597430Y12812320D01*
X5597432Y12812319D01*
X5683627Y12762554D01*
X5779765Y12736794D01*
X5879295Y12736794D01*
X5975433Y12762554D01*
X5978909Y12764561D01*
X9591530Y12764561D01*
X9591530Y12665028D01*
X9617289Y12568892D01*
X9617291Y12568889D01*
X9667054Y12482697D01*
X9667056Y12482694D01*
X9737430Y12412320D01*
X9737432Y12412319D01*
X9823627Y12362554D01*
X9919765Y12336794D01*
X10019295Y12336794D01*
X10115433Y12362554D01*
X10201628Y12412319D01*
X10201628Y12412320D01*
X10201630Y12412320D01*
X10272003Y12482694D01*
X10272005Y12482696D01*
X10297278Y12526469D01*
X10304972Y12539795D01*
X10340797Y12567284D01*
X10356067Y12569294D01*
X11891862Y12569294D01*
X11933581Y12552013D01*
X11942955Y12539797D01*
X11947055Y12532696D01*
X11947057Y12532693D01*
X12017430Y12462320D01*
X12017432Y12462319D01*
X12103627Y12412554D01*
X12199765Y12386794D01*
X12299295Y12386794D01*
X12395433Y12412554D01*
X12481628Y12462319D01*
X12481628Y12462320D01*
X12481630Y12462320D01*
X12552004Y12532694D01*
X12552005Y12532696D01*
X12601770Y12618891D01*
X12627530Y12715029D01*
X12627530Y12814559D01*
X12601770Y12910697D01*
X12552005Y12996892D01*
X12552004Y12996894D01*
X12481630Y13067268D01*
X12481627Y13067270D01*
X12395435Y13117033D01*
X12395432Y13117035D01*
X12299296Y13142794D01*
X12299295Y13142794D01*
X12199765Y13142794D01*
X12199763Y13142794D01*
X12103627Y13117035D01*
X12103624Y13117033D01*
X12017432Y13067270D01*
X12017430Y13067268D01*
X11947057Y12996896D01*
X11947055Y12996892D01*
X11942957Y12989795D01*
X11907135Y12962305D01*
X11891862Y12960294D01*
X10283041Y12960294D01*
X10241322Y12977575D01*
X10201628Y13017269D01*
X10201627Y13017270D01*
X10201626Y13017271D01*
X10115435Y13067033D01*
X10115432Y13067035D01*
X10019296Y13092794D01*
X10019295Y13092794D01*
X9919765Y13092794D01*
X9919763Y13092794D01*
X9823627Y13067035D01*
X9823624Y13067033D01*
X9737432Y13017270D01*
X9667054Y12946892D01*
X9617291Y12860700D01*
X9617289Y12860697D01*
X9591530Y12764561D01*
X5978909Y12764561D01*
X6061628Y12812319D01*
X6061628Y12812320D01*
X6061630Y12812320D01*
X6132004Y12882694D01*
X6132005Y12882696D01*
X6181770Y12968891D01*
X6207530Y13065029D01*
X6207530Y13164559D01*
X6181770Y13260697D01*
X6132005Y13346892D01*
X6132004Y13346894D01*
X6061630Y13417268D01*
X6061627Y13417270D01*
X5975435Y13467033D01*
X5975432Y13467035D01*
X5879296Y13492794D01*
X5879295Y13492794D01*
X5779765Y13492794D01*
X5779763Y13492794D01*
X5683627Y13467035D01*
X5683624Y13467033D01*
X5597432Y13417270D01*
X5597430Y13417268D01*
X5527057Y13346896D01*
X5527055Y13346892D01*
X5522957Y13339795D01*
X5487135Y13312305D01*
X5471862Y13310294D01*
X3877198Y13310294D01*
X3835479Y13327575D01*
X3826104Y13339792D01*
X3822005Y13346892D01*
X3822003Y13346894D01*
X3822002Y13346896D01*
X3751630Y13417268D01*
X3751627Y13417270D01*
X3665435Y13467033D01*
X3665432Y13467035D01*
X3569296Y13492794D01*
X3569295Y13492794D01*
X3469765Y13492794D01*
X3469763Y13492794D01*
X3447897Y13486935D01*
X3403126Y13492830D01*
X3375637Y13528655D01*
X3381532Y13573426D01*
X3390905Y13585641D01*
X5123816Y15318553D01*
X5128075Y15322414D01*
X5185486Y15369528D01*
X5195080Y15375938D01*
X5257983Y15409560D01*
X5268655Y15413981D01*
X5336909Y15434685D01*
X5348249Y15436941D01*
X5422117Y15444216D01*
X5427900Y15444500D01*
X7016912Y15444500D01*
X7016916Y15444500D01*
X7217485Y15476267D01*
X7410615Y15539019D01*
X7591550Y15631211D01*
X7708619Y15716266D01*
X7755832Y15750568D01*
X7755834Y15750571D01*
X7755837Y15750572D01*
X7827633Y15822367D01*
X7834732Y15829466D01*
X8023732Y16018466D01*
X8032029Y16026763D01*
X8032031Y16026766D01*
X8051954Y16046689D01*
X8141082Y16169363D01*
X8209922Y16304469D01*
X8256779Y16448681D01*
X8280500Y16598447D01*
X8280500Y16674264D01*
X8280500Y16710168D01*
X8280500Y16990319D01*
X8297781Y17032038D01*
X8339500Y17049319D01*
X8368999Y17041415D01*
X8453627Y16992554D01*
X8549765Y16966794D01*
X8649291Y16966794D01*
X8649295Y16966794D01*
X8649298Y16966796D01*
X8653125Y16967299D01*
X8653336Y16965693D01*
X8692637Y16960526D01*
X8708010Y16947742D01*
X8720090Y16933598D01*
X8725532Y16926108D01*
X8789764Y16821291D01*
X8793967Y16813042D01*
X8841011Y16699467D01*
X8843872Y16690662D01*
X8872572Y16571119D01*
X8874020Y16561975D01*
X8883848Y16437107D01*
X8884030Y16432478D01*
X8884030Y14763042D01*
X8866749Y14721323D01*
X8797524Y14652098D01*
X8747761Y14565906D01*
X8747759Y14565903D01*
X8722000Y14469767D01*
X8722000Y14370234D01*
X8747759Y14274098D01*
X8747761Y14274095D01*
X8797524Y14187903D01*
X8797526Y14187900D01*
X8867900Y14117526D01*
X8867902Y14117525D01*
X8954097Y14067760D01*
X9050235Y14042000D01*
X9149765Y14042000D01*
X9245903Y14067760D01*
X9332098Y14117525D01*
X9332098Y14117526D01*
X9332100Y14117526D01*
X9402474Y14187900D01*
X9402475Y14187902D01*
X9452240Y14274097D01*
X9478000Y14370235D01*
X9478000Y14469765D01*
X9452240Y14565903D01*
X9402475Y14652098D01*
X9402474Y14652100D01*
X9332100Y14722474D01*
X9304529Y14738393D01*
X9277040Y14774219D01*
X9275030Y14789488D01*
X9275030Y16531878D01*
X9275030Y16531882D01*
X9244654Y16723666D01*
X9235756Y16751050D01*
X9212934Y16821291D01*
X9184651Y16908337D01*
X9184650Y16908339D01*
X9184650Y16908340D01*
X9096501Y17081342D01*
X9096499Y17081344D01*
X9096498Y17081347D01*
X8984294Y17235783D01*
X8973753Y17279689D01*
X8975033Y17285713D01*
X8977530Y17295029D01*
X8977530Y17394559D01*
X8951770Y17490697D01*
X8902005Y17576892D01*
X8895823Y17583074D01*
X8878541Y17624791D01*
X8895818Y17666510D01*
X8902005Y17672696D01*
X8951770Y17758891D01*
X8977530Y17855029D01*
X8977530Y17954559D01*
X8951770Y18050697D01*
X8912046Y18119500D01*
X8905407Y18131000D01*
X8899512Y18175770D01*
X8927002Y18211595D01*
X8956502Y18219500D01*
X10864097Y18219500D01*
X10896135Y18219500D01*
X10903836Y18218995D01*
X10970550Y18210212D01*
X10985427Y18206226D01*
X11043993Y18181967D01*
X11057332Y18174266D01*
X11110724Y18133297D01*
X11116518Y18128217D01*
X11133362Y18111373D01*
X11133363Y18111371D01*
X11133364Y18111371D01*
X11170412Y18074322D01*
X11280352Y17994445D01*
X11280357Y17994443D01*
X11280359Y17994441D01*
X11401431Y17932752D01*
X11530666Y17890761D01*
X11530672Y17890760D01*
X11530676Y17890758D01*
X11664897Y17869499D01*
X11732844Y17869500D01*
X11768747Y17869500D01*
X15414097Y17869500D01*
X15446135Y17869500D01*
X15453836Y17868995D01*
X15520550Y17860212D01*
X15535427Y17856226D01*
X15593993Y17831967D01*
X15607332Y17824266D01*
X15660723Y17783298D01*
X15666525Y17778209D01*
X16019456Y17425278D01*
X16036737Y17383559D01*
X16034727Y17368292D01*
X16029501Y17348786D01*
X16029500Y17348776D01*
X16029500Y17251222D01*
X16054748Y17156993D01*
X16054750Y17156990D01*
X16103525Y17072509D01*
X16103527Y17072506D01*
X16172506Y17003527D01*
X16172508Y17003526D01*
X16256992Y16954749D01*
X16351223Y16929500D01*
X16448777Y16929500D01*
X16543008Y16954749D01*
X16627492Y17003526D01*
X16627492Y17003527D01*
X16627494Y17003527D01*
X16696473Y17072506D01*
X16696474Y17072508D01*
X16745251Y17156992D01*
X16770500Y17251223D01*
X16770500Y17348777D01*
X16745251Y17443008D01*
X16696474Y17527492D01*
X16696473Y17527494D01*
X16627494Y17596473D01*
X16627491Y17596475D01*
X16543010Y17645250D01*
X16543007Y17645252D01*
X16448778Y17670500D01*
X16448777Y17670500D01*
X16351223Y17670500D01*
X16351222Y17670500D01*
X16351214Y17670499D01*
X16331708Y17665273D01*
X16286938Y17671169D01*
X16274722Y17680544D01*
X15936485Y18018781D01*
X15919204Y18060500D01*
X15936485Y18102219D01*
X15978204Y18119500D01*
X16042332Y18119500D01*
X16084051Y18102219D01*
X16093428Y18089999D01*
X16103527Y18072506D01*
X16172506Y18003527D01*
X16172508Y18003526D01*
X16256992Y17954749D01*
X16351223Y17929500D01*
X16448777Y17929500D01*
X16543008Y17954749D01*
X16627492Y18003526D01*
X16627492Y18003527D01*
X16627494Y18003527D01*
X16696473Y18072506D01*
X16696474Y18072508D01*
X16745251Y18156992D01*
X16770500Y18251223D01*
X16770500Y18348777D01*
X16745251Y18443008D01*
X16716566Y18492691D01*
X16703284Y18515697D01*
X16697389Y18560467D01*
X16724879Y18596292D01*
X16736147Y18601309D01*
X16772872Y18613242D01*
X16860124Y18641592D01*
X16860256Y18641659D01*
X17017265Y18721659D01*
X17017276Y18721665D01*
X17117096Y18794189D01*
X17159958Y18825330D01*
X17284671Y18950043D01*
X17340941Y19027492D01*
X17388336Y19092725D01*
X17388342Y19092736D01*
X17468408Y19249875D01*
X17468408Y19249876D01*
X17468409Y19249877D01*
X17522911Y19417616D01*
X17550501Y19591815D01*
X17550501Y19768185D01*
X17522911Y19942384D01*
X17468409Y20110123D01*
X17468408Y20110125D01*
X17468408Y20110126D01*
X17388342Y20267265D01*
X17388336Y20267276D01*
X17284674Y20409953D01*
X17284673Y20409954D01*
X17284671Y20409957D01*
X17159958Y20534670D01*
X17159955Y20534672D01*
X17159953Y20534674D01*
X17017276Y20638336D01*
X17017265Y20638342D01*
X16860126Y20718408D01*
X16692394Y20772908D01*
X16692385Y20772910D01*
X16518186Y20800500D01*
X16341816Y20800500D01*
X16211166Y20779808D01*
X16167616Y20772910D01*
X16167607Y20772908D01*
X15999881Y20718410D01*
X15905218Y20670177D01*
X15860201Y20666635D01*
X15851648Y20670178D01*
X15710321Y20742188D01*
X15550313Y20794178D01*
X15550295Y20794182D01*
X15535144Y20796582D01*
X15514875Y20803759D01*
X15443006Y20845252D01*
X15348778Y20870500D01*
X15348777Y20870500D01*
X15251223Y20870500D01*
X15251221Y20870500D01*
X15156993Y20845252D01*
X15082565Y20802281D01*
X15068822Y20796799D01*
X15068861Y20796680D01*
X15067057Y20796095D01*
X15066842Y20796008D01*
X15066653Y20795963D01*
X14917483Y20747494D01*
X14917482Y20747494D01*
X14777729Y20676287D01*
X14776414Y20675480D01*
X14776027Y20675419D01*
X14775665Y20675234D01*
X14775604Y20675352D01*
X14731812Y20668422D01*
X14718809Y20673221D01*
X14630125Y20718408D01*
X14462393Y20772908D01*
X14462384Y20772910D01*
X14288185Y20800500D01*
X14111815Y20800500D01*
X13981165Y20779808D01*
X13937615Y20772910D01*
X13937606Y20772908D01*
X13769875Y20718408D01*
X13769874Y20718408D01*
X13612735Y20638342D01*
X13612724Y20638336D01*
X13470047Y20534674D01*
X13470038Y20534666D01*
X13345334Y20409962D01*
X13345326Y20409953D01*
X13241664Y20267276D01*
X13241658Y20267265D01*
X13161592Y20110126D01*
X13161592Y20110125D01*
X13107092Y19942394D01*
X13107090Y19942385D01*
X13107090Y19942384D01*
X13079500Y19768185D01*
X13079500Y19591815D01*
X13092170Y19511819D01*
X13107090Y19417616D01*
X13107092Y19417607D01*
X13159009Y19257824D01*
X13155466Y19212807D01*
X13144616Y19197873D01*
X13115986Y19169243D01*
X13089538Y19153973D01*
X13056998Y19145254D01*
X13056989Y19145250D01*
X12972508Y19096475D01*
X12903525Y19027492D01*
X12854750Y18943011D01*
X12854748Y18943008D01*
X12829500Y18848779D01*
X12829500Y18751222D01*
X12854748Y18656993D01*
X12854750Y18656990D01*
X12905459Y18569159D01*
X12903304Y18567916D01*
X12912981Y18531798D01*
X12890402Y18492691D01*
X12854486Y18480500D01*
X11835741Y18480500D01*
X11829958Y18480784D01*
X11740625Y18489583D01*
X11729282Y18491839D01*
X11646163Y18517052D01*
X11635476Y18521479D01*
X11558881Y18562421D01*
X11549265Y18568846D01*
X11479878Y18625789D01*
X11475585Y18629681D01*
X11469056Y18636211D01*
X11422856Y18682411D01*
X11314214Y18755004D01*
X11314210Y18755006D01*
X11219612Y18794189D01*
X11193490Y18805009D01*
X11193486Y18805010D01*
X11193479Y18805012D01*
X11065335Y18830501D01*
X11065333Y18830501D01*
X11000000Y18830500D01*
X8363277Y18830500D01*
X8193178Y18796666D01*
X8193165Y18796662D01*
X8032929Y18730291D01*
X7888708Y18633925D01*
X7766075Y18511292D01*
X7669709Y18367071D01*
X7603338Y18206835D01*
X7603334Y18206822D01*
X7569500Y18036725D01*
X7569500Y16877164D01*
X7569216Y16871381D01*
X7561974Y16797858D01*
X7559717Y16786514D01*
X7539119Y16718614D01*
X7534694Y16707930D01*
X7501239Y16645337D01*
X7494814Y16635723D01*
X7464228Y16598452D01*
X7447950Y16578618D01*
X7444062Y16574329D01*
X7304528Y16434794D01*
X7304524Y16434790D01*
X7299416Y16429683D01*
X7295130Y16425798D01*
X7238668Y16379461D01*
X7229052Y16373036D01*
X7167210Y16339980D01*
X7156524Y16335554D01*
X7089426Y16315200D01*
X7078082Y16312943D01*
X7005397Y16305784D01*
X6999614Y16305500D01*
X5710904Y16305500D01*
X5675000Y16305500D01*
X5548448Y16305500D01*
X5464802Y16294488D01*
X5297509Y16272464D01*
X5053036Y16206958D01*
X5053026Y16206954D01*
X4819202Y16110101D01*
X4599998Y15983545D01*
X4399207Y15829471D01*
X4399205Y15829470D01*
X4399201Y15829466D01*
X4320310Y15750576D01*
X4309714Y15739980D01*
X4296980Y15727245D01*
X4296978Y15727244D01*
X2124326Y13554593D01*
X2124323Y13554589D01*
X2124322Y13554588D01*
X2064687Y13472508D01*
X2044440Y13444641D01*
X1982751Y13323569D01*
X1982751Y13323568D01*
X1940760Y13194334D01*
X1940758Y13194327D01*
X1933511Y13148569D01*
X1919499Y13060103D01*
X1919499Y13060100D01*
X1919499Y13060099D01*
X1919500Y13019324D01*
X1919500Y12848594D01*
X1902219Y12806875D01*
X1890005Y12797502D01*
X1887861Y12796264D01*
X1887856Y12796260D01*
X1823533Y12731938D01*
X1778045Y12653149D01*
X1771859Y12630062D01*
X1754500Y12565278D01*
X1754500Y12474306D01*
X1766382Y12429962D01*
X1777949Y12386794D01*
X1778046Y12386434D01*
X1806704Y12336795D01*
X1823533Y12307647D01*
X1887856Y12243324D01*
X1887858Y12243323D01*
X1922207Y12223491D01*
X1949697Y12187666D01*
X1943802Y12142896D01*
X1922207Y12121301D01*
X1887858Y12101470D01*
X1887856Y12101468D01*
X1823533Y12037146D01*
X1778045Y11958357D01*
X1763614Y11904500D01*
X1754500Y11870486D01*
X1754500Y11779514D01*
X1761484Y11753451D01*
X1775194Y11702283D01*
X1778046Y11691642D01*
X1822701Y11614295D01*
X1823533Y11612855D01*
X1887855Y11548533D01*
X1887857Y11548532D01*
X1887858Y11548531D01*
X1956628Y11508827D01*
X1983241Y11475966D01*
X1990209Y11454521D01*
X2059175Y11319169D01*
X2059179Y11319163D01*
X2148463Y11196273D01*
X2148465Y11196271D01*
X2176788Y11167947D01*
X2176789Y11167946D01*
X2638515Y10706219D01*
X2655796Y10664500D01*
X2638515Y10622781D01*
X2596796Y10605500D01*
X2457668Y10605500D01*
X2415949Y10622781D01*
X2406572Y10635001D01*
X2396472Y10652495D01*
X2327494Y10721473D01*
X2327491Y10721475D01*
X2243010Y10770250D01*
X2243007Y10770252D01*
X2148778Y10795500D01*
X2148777Y10795500D01*
X2051223Y10795500D01*
X2051221Y10795500D01*
X1956992Y10770252D01*
X1956989Y10770250D01*
X1872508Y10721475D01*
X1803525Y10652492D01*
X1754750Y10568011D01*
X1754748Y10568008D01*
X1729500Y10473779D01*
X1729500Y10376222D01*
X1754748Y10281993D01*
X1754750Y10281990D01*
X1803525Y10197509D01*
X1803527Y10197506D01*
X1872506Y10128527D01*
X1872508Y10128526D01*
X1956992Y10079749D01*
X2051223Y10054500D01*
X2102821Y10054500D01*
X2144540Y10037219D01*
X2161821Y9995500D01*
X2161338Y9988116D01*
X2161338Y9890404D01*
X2186586Y9796175D01*
X2186588Y9796172D01*
X2235363Y9711691D01*
X2235365Y9711688D01*
X2304339Y9642714D01*
X2304345Y9642709D01*
X2304346Y9642708D01*
X2314998Y9636559D01*
X2342489Y9600737D01*
X2344500Y9585463D01*
X2344500Y8216963D01*
X2367834Y8099652D01*
X2368678Y8096871D01*
X2367548Y8096529D01*
X2367547Y8055179D01*
X2335614Y8023251D01*
X2302759Y8021095D01*
X2302615Y8019995D01*
X2298777Y8020500D01*
X2201223Y8020500D01*
X2201221Y8020500D01*
X2106992Y7995252D01*
X2106989Y7995250D01*
X2022508Y7946475D01*
X1953525Y7877492D01*
X1904750Y7793011D01*
X1904748Y7793008D01*
X1879500Y7698779D01*
X1879500Y7601222D01*
X1904748Y7506993D01*
X1904750Y7506990D01*
X1953525Y7422509D01*
X1953527Y7422506D01*
X2022501Y7353532D01*
X2022505Y7353529D01*
X2022508Y7353526D01*
X2039918Y7343475D01*
X2067407Y7307650D01*
X2069133Y7286597D01*
X2061929Y7213451D01*
X2059672Y7202107D01*
X2038938Y7133757D01*
X2034512Y7123072D01*
X2000843Y7060082D01*
X1994418Y7050465D01*
X1947256Y6992998D01*
X1943367Y6988708D01*
X1716470Y6761808D01*
X1492442Y6537781D01*
X1450723Y6520500D01*
X1351221Y6520500D01*
X1256992Y6495252D01*
X1256989Y6495250D01*
X1172508Y6446475D01*
X1103525Y6377492D01*
X1054750Y6293011D01*
X1054748Y6293008D01*
X1029500Y6198779D01*
X1029500Y6101222D01*
X1054748Y6006993D01*
X1054750Y6006990D01*
X1103525Y5922509D01*
X1103527Y5922506D01*
X1172506Y5853527D01*
X1172508Y5853526D01*
X1256992Y5804749D01*
X1351223Y5779500D01*
X1448777Y5779500D01*
X1543008Y5804749D01*
X1627492Y5853526D01*
X1627492Y5853527D01*
X1627494Y5853527D01*
X1696473Y5922506D01*
X1696474Y5922508D01*
X1745251Y6006992D01*
X1770500Y6101223D01*
X1770500Y6198777D01*
X1756803Y6249893D01*
X1762698Y6294662D01*
X1772070Y6306878D01*
X1971736Y6506542D01*
X1971736Y6506543D01*
X2226071Y6760879D01*
X2226070Y6760879D01*
X2255329Y6790136D01*
X2341199Y6918650D01*
X2400347Y7061446D01*
X2430500Y7213038D01*
X2430500Y7290319D01*
X2430500Y7292333D01*
X2447781Y7334052D01*
X2453287Y7338913D01*
X2456478Y7341395D01*
X2477492Y7353526D01*
X2496384Y7372419D01*
X2499287Y7374675D01*
X2517784Y7379758D01*
X2535500Y7387095D01*
X2539086Y7385610D01*
X2542831Y7386638D01*
X2559505Y7377152D01*
X2577219Y7369814D01*
X2578704Y7366229D01*
X2582080Y7364308D01*
X2587162Y7345811D01*
X2594500Y7328095D01*
X2594500Y6129102D01*
X2594500Y6129101D01*
X2594500Y6093197D01*
X2594500Y6018533D01*
X2604615Y5954670D01*
X2617860Y5871042D01*
X2617862Y5871035D01*
X2664004Y5729025D01*
X2731798Y5595973D01*
X2731802Y5595967D01*
X2819570Y5475164D01*
X2819571Y5475163D01*
X2846980Y5447755D01*
X2872367Y5422367D01*
X2951939Y5342796D01*
X3059663Y5260137D01*
X3082241Y5221030D01*
X3082020Y5204103D01*
X3079500Y5188190D01*
X3079500Y5188185D01*
X3079500Y5011815D01*
X3100517Y4879116D01*
X3107090Y4837616D01*
X3107092Y4837607D01*
X3161592Y4669876D01*
X3161592Y4669875D01*
X3241658Y4512736D01*
X3241664Y4512725D01*
X3345326Y4370048D01*
X3345330Y4370043D01*
X3470043Y4245330D01*
X3470046Y4245328D01*
X3470047Y4245327D01*
X3612724Y4141665D01*
X3612735Y4141659D01*
X3750137Y4071650D01*
X3769877Y4061592D01*
X3772891Y4060613D01*
X3807229Y4031286D01*
X3810773Y3986269D01*
X3781446Y3951931D01*
X3754660Y3945500D01*
X3623408Y3945500D01*
X3620100Y3945593D01*
X3350045Y3960760D01*
X3343470Y3961501D01*
X3078448Y4006530D01*
X3071998Y4008002D01*
X2813681Y4082422D01*
X2807436Y4084607D01*
X2559071Y4187484D01*
X2553110Y4190355D01*
X2317837Y4320385D01*
X2312234Y4323905D01*
X2106662Y4469766D01*
X2082638Y4508001D01*
X2081804Y4517884D01*
X2081804Y4540113D01*
X2081803Y4540114D01*
X2072013Y4576650D01*
X2056555Y4634343D01*
X2007778Y4718827D01*
X2007777Y4718829D01*
X1938798Y4787808D01*
X1938795Y4787810D01*
X1854314Y4836585D01*
X1854311Y4836587D01*
X1760082Y4861835D01*
X1760081Y4861835D01*
X1712432Y4861835D01*
X1670713Y4879116D01*
X1635688Y4914141D01*
X1618407Y4955860D01*
X1618407Y4995927D01*
X1618406Y4995928D01*
X1614149Y5011815D01*
X1593158Y5090157D01*
X1544381Y5174641D01*
X1544380Y5174643D01*
X1475401Y5243622D01*
X1475398Y5243624D01*
X1390917Y5292399D01*
X1390914Y5292401D01*
X1296685Y5317649D01*
X1296684Y5317649D01*
X1199130Y5317649D01*
X1199128Y5317649D01*
X1104899Y5292401D01*
X1104896Y5292399D01*
X1020415Y5243624D01*
X951432Y5174641D01*
X902657Y5090160D01*
X902655Y5090157D01*
X877407Y4995928D01*
X200500Y4995928D01*
X200500Y14448779D01*
X1129500Y14448779D01*
X1129500Y14351222D01*
X1154748Y14256993D01*
X1154750Y14256990D01*
X1203525Y14172509D01*
X1203527Y14172506D01*
X1272506Y14103527D01*
X1272508Y14103526D01*
X1356992Y14054749D01*
X1451223Y14029500D01*
X1548777Y14029500D01*
X1643008Y14054749D01*
X1727492Y14103526D01*
X1727492Y14103527D01*
X1727494Y14103527D01*
X1796473Y14172506D01*
X1796474Y14172508D01*
X1845251Y14256992D01*
X1870500Y14351223D01*
X1870500Y14448777D01*
X1865272Y14468289D01*
X1871167Y14513059D01*
X1880543Y14525278D01*
X1962398Y14607133D01*
X2052378Y14697114D01*
X2094095Y14714393D01*
X2135814Y14697112D01*
X2151084Y14670666D01*
X2154747Y14656996D01*
X2154750Y14656990D01*
X2203525Y14572509D01*
X2203527Y14572506D01*
X2272506Y14503527D01*
X2272508Y14503526D01*
X2356992Y14454749D01*
X2451223Y14429500D01*
X2548777Y14429500D01*
X2643008Y14454749D01*
X2727492Y14503526D01*
X2727492Y14503527D01*
X2727494Y14503527D01*
X2796473Y14572506D01*
X2796474Y14572508D01*
X2845251Y14656992D01*
X2870500Y14751223D01*
X2870500Y14848777D01*
X2866854Y14862385D01*
X2865272Y14868290D01*
X2871167Y14913061D01*
X2880539Y14925275D01*
X8966569Y21011305D01*
X8990120Y21034854D01*
X8993505Y21037985D01*
X9103528Y21131955D01*
X9111005Y21137387D01*
X9232372Y21211760D01*
X9240615Y21215960D01*
X9372133Y21270437D01*
X9380918Y21273291D01*
X9519339Y21306523D01*
X9528467Y21307968D01*
X9672687Y21319319D01*
X9677316Y21319500D01*
X16906462Y21319500D01*
X16906466Y21319500D01*
X17053956Y21342860D01*
X17195976Y21389005D01*
X17329028Y21456798D01*
X17449837Y21544571D01*
X17502633Y21597367D01*
X17512704Y21607438D01*
X17730534Y21825268D01*
X17738827Y21833561D01*
X17738833Y21833570D01*
X17834337Y21929074D01*
X17878585Y21973319D01*
X17957116Y22081407D01*
X18004391Y22174193D01*
X18038729Y22203519D01*
X18041667Y22204390D01*
X18043008Y22204749D01*
X18127492Y22253526D01*
X18127492Y22253527D01*
X18127494Y22253527D01*
X18196473Y22322506D01*
X18196474Y22322508D01*
X18245251Y22406992D01*
X18270500Y22501223D01*
X18270500Y22598777D01*
X18245251Y22693008D01*
X18196474Y22777492D01*
X18196473Y22777494D01*
X18127494Y22846473D01*
X18127491Y22846475D01*
X18043010Y22895250D01*
X18043007Y22895252D01*
X17948778Y22920500D01*
X17948777Y22920500D01*
X17851223Y22920500D01*
X17851221Y22920500D01*
X17756992Y22895252D01*
X17756989Y22895250D01*
X17672508Y22846475D01*
X17603525Y22777492D01*
X17554750Y22693011D01*
X17554748Y22693008D01*
X17529500Y22598779D01*
X17529500Y22501222D01*
X17554748Y22406993D01*
X17554750Y22406990D01*
X17603524Y22322510D01*
X17603525Y22322509D01*
X17603526Y22322508D01*
X17614268Y22311766D01*
X17631550Y22270048D01*
X17618157Y22232617D01*
X17577931Y22183602D01*
X17574045Y22179313D01*
X17568924Y22174192D01*
X17562015Y22167283D01*
X17558995Y22164263D01*
X17558993Y22164263D01*
X17558994Y22164262D01*
X17466970Y22072237D01*
X17466969Y22072238D01*
X17466967Y22072234D01*
X17249415Y21854682D01*
X17245126Y21850794D01*
X17166198Y21786018D01*
X17162803Y21783232D01*
X17153189Y21776809D01*
X17061829Y21727976D01*
X17051147Y21723551D01*
X16952013Y21693480D01*
X16940671Y21691224D01*
X16842463Y21681551D01*
X16834684Y21680784D01*
X16828902Y21680500D01*
X16302603Y21680500D01*
X16260884Y21697781D01*
X16243603Y21739500D01*
X16260884Y21781219D01*
X16262526Y21782800D01*
X16265274Y21785344D01*
X16266283Y21786018D01*
X16269779Y21789514D01*
X16277244Y21796979D01*
X16277245Y21796979D01*
X16637882Y22157619D01*
X16637886Y22157621D01*
X16646179Y22165914D01*
X16646180Y22165914D01*
X16668478Y22188214D01*
X16695564Y22201551D01*
X16695042Y22203499D01*
X16738602Y22215172D01*
X16793008Y22229749D01*
X16877492Y22278526D01*
X16877492Y22278527D01*
X16877494Y22278527D01*
X16946473Y22347506D01*
X16946474Y22347508D01*
X16995251Y22431992D01*
X17020500Y22526223D01*
X17020500Y22623777D01*
X16995251Y22718008D01*
X16946474Y22802492D01*
X16946473Y22802494D01*
X16877494Y22871473D01*
X16877491Y22871475D01*
X16793010Y22920250D01*
X16793007Y22920252D01*
X16698778Y22945500D01*
X16698777Y22945500D01*
X16601223Y22945500D01*
X16601221Y22945500D01*
X16506992Y22920252D01*
X16506989Y22920250D01*
X16422508Y22871475D01*
X16353525Y22802492D01*
X16304750Y22718011D01*
X16304748Y22718008D01*
X16279500Y22623779D01*
X16279500Y22526222D01*
X16304748Y22431993D01*
X16304749Y22431992D01*
X16317609Y22409717D01*
X16323502Y22364947D01*
X16308232Y22338499D01*
X16050097Y22080365D01*
X16044296Y22075277D01*
X16020204Y22056790D01*
X16006863Y22049088D01*
X15982403Y22038957D01*
X15967529Y22034971D01*
X15941073Y22031488D01*
X15937411Y22031005D01*
X15929710Y22030500D01*
X9585904Y22030500D01*
X9550000Y22030500D01*
X9443228Y22030500D01*
X9372655Y22021209D01*
X9231509Y22002626D01*
X9025247Y21947359D01*
X9025237Y21947355D01*
X8827961Y21865641D01*
X8643016Y21758864D01*
X8473600Y21628866D01*
X8415193Y21570460D01*
X8415191Y21570458D01*
X1625276Y14780544D01*
X1583557Y14763263D01*
X1568288Y14765273D01*
X1548780Y14770500D01*
X1548777Y14770500D01*
X1451223Y14770500D01*
X1451221Y14770500D01*
X1356992Y14745252D01*
X1356989Y14745250D01*
X1272508Y14696475D01*
X1203525Y14627492D01*
X1154750Y14543011D01*
X1154748Y14543008D01*
X1129500Y14448779D01*
X200500Y14448779D01*
X200500Y23605778D01*
X6374763Y23605778D01*
X6374763Y23594223D01*
X6375367Y23581922D01*
X6379500Y23539960D01*
X6379500Y23511815D01*
X6386830Y23465534D01*
X6393443Y23398395D01*
X6395250Y23386215D01*
X6397506Y23374872D01*
X6400499Y23362923D01*
X6405903Y23345105D01*
X6407090Y23337616D01*
X6407092Y23337607D01*
X6423444Y23287281D01*
X6454032Y23186444D01*
X6458181Y23174847D01*
X6462604Y23164169D01*
X6467870Y23153036D01*
X6517114Y23060905D01*
X6541658Y23012736D01*
X6541664Y23012725D01*
X6546216Y23006459D01*
X6554804Y22990393D01*
X6561138Y22979825D01*
X6567561Y22970213D01*
X6574895Y22960325D01*
X6617095Y22908904D01*
X6644290Y22871474D01*
X6645330Y22870043D01*
X6665727Y22849646D01*
X6691887Y22817770D01*
X6700158Y22808644D01*
X6708337Y22800465D01*
X6717463Y22792194D01*
X6749338Y22766035D01*
X6770043Y22745330D01*
X6770046Y22745328D01*
X6770047Y22745327D01*
X6809486Y22716673D01*
X6860018Y22675202D01*
X6869914Y22667863D01*
X6879529Y22661439D01*
X6890089Y22655110D01*
X6905713Y22646759D01*
X6912724Y22641665D01*
X6912735Y22641659D01*
X6966624Y22614202D01*
X7052724Y22568180D01*
X7063848Y22562918D01*
X7074531Y22558492D01*
X7086137Y22554339D01*
X7177398Y22526656D01*
X7237606Y22507093D01*
X7237608Y22507093D01*
X7237616Y22507090D01*
X7246580Y22505671D01*
X7262616Y22500806D01*
X7274565Y22497813D01*
X7285908Y22495557D01*
X7298087Y22493750D01*
X7360915Y22487562D01*
X7411815Y22479500D01*
X7411818Y22479500D01*
X7442762Y22479500D01*
X7484509Y22475388D01*
X7490655Y22474935D01*
X7496438Y22474651D01*
X7502594Y22474500D01*
X11944542Y22474500D01*
X11969874Y22461593D01*
X12137606Y22407093D01*
X12137608Y22407093D01*
X12137616Y22407090D01*
X12311815Y22379500D01*
X12311818Y22379500D01*
X12488181Y22379500D01*
X12488185Y22379500D01*
X12662384Y22407090D01*
X12830123Y22461592D01*
X12987270Y22541662D01*
X12987271Y22541664D01*
X12987275Y22541665D01*
X13065882Y22598777D01*
X13129957Y22645330D01*
X13253466Y22768840D01*
X13281924Y22792194D01*
X13291050Y22800465D01*
X13299229Y22808644D01*
X13307500Y22817770D01*
X13424492Y22960325D01*
X13431829Y22970218D01*
X13438254Y22979834D01*
X13444585Y22990396D01*
X13531513Y23153026D01*
X13536778Y23164157D01*
X13541205Y23174844D01*
X13545355Y23186444D01*
X13598888Y23362923D01*
X13601881Y23374872D01*
X13604137Y23386215D01*
X13605944Y23398394D01*
X13624020Y23581915D01*
X13624624Y23594217D01*
X13624624Y23605783D01*
X13624020Y23618085D01*
X13605944Y23801607D01*
X13604137Y23813786D01*
X13601881Y23825129D01*
X13598888Y23837078D01*
X13545355Y24013557D01*
X13541202Y24025163D01*
X13536776Y24035846D01*
X13531514Y24046970D01*
X13444584Y24209605D01*
X13438255Y24220165D01*
X13431831Y24229780D01*
X13424492Y24239676D01*
X13307500Y24382231D01*
X13299229Y24391357D01*
X13291050Y24399536D01*
X13281924Y24407807D01*
X13139369Y24524799D01*
X13129481Y24532133D01*
X13119869Y24538556D01*
X13109301Y24544890D01*
X12946658Y24631824D01*
X12935523Y24637090D01*
X12924847Y24641512D01*
X12916497Y24644500D01*
X12975766Y24644500D01*
X13122135Y24683719D01*
X13253365Y24759485D01*
X13253365Y24759486D01*
X13253367Y24759486D01*
X13360514Y24866633D01*
X13360515Y24866635D01*
X13436281Y24997865D01*
X13475500Y25144234D01*
X13475500Y25295766D01*
X13436281Y25442135D01*
X13360515Y25573365D01*
X13360514Y25573367D01*
X13253367Y25680514D01*
X13253364Y25680516D01*
X13122137Y25756280D01*
X13122134Y25756282D01*
X12975767Y25795500D01*
X12975766Y25795500D01*
X12824234Y25795500D01*
X12824232Y25795500D01*
X12677865Y25756282D01*
X12677862Y25756280D01*
X12546635Y25680516D01*
X12439484Y25573365D01*
X12363720Y25442138D01*
X12363718Y25442135D01*
X12324500Y25295768D01*
X12324500Y25144233D01*
X12363718Y24997866D01*
X12363720Y24997863D01*
X12439484Y24866636D01*
X12439486Y24866633D01*
X12546633Y24759486D01*
X12546635Y24759485D01*
X12624777Y24714369D01*
X12625259Y24713741D01*
X12514878Y24724612D01*
X12508733Y24725065D01*
X12502950Y24725349D01*
X12496794Y24725500D01*
X11641355Y24725500D01*
X11614725Y24779500D01*
X11554655Y24901311D01*
X11551704Y24908438D01*
X11485766Y25102683D01*
X11483773Y25110125D01*
X11454873Y25255414D01*
X11461644Y25296423D01*
X11480830Y25329654D01*
X11510819Y25381597D01*
X11536579Y25477735D01*
X11536579Y25577265D01*
X11510819Y25673403D01*
X11461054Y25759598D01*
X11461053Y25759600D01*
X11390679Y25829974D01*
X11390676Y25829976D01*
X11304484Y25879739D01*
X11304481Y25879741D01*
X11208345Y25905500D01*
X11208344Y25905500D01*
X11108814Y25905500D01*
X11108812Y25905500D01*
X11012676Y25879741D01*
X11012673Y25879739D01*
X10926481Y25829976D01*
X10856103Y25759598D01*
X10806340Y25673406D01*
X10806338Y25673403D01*
X10780579Y25577267D01*
X10780579Y25477734D01*
X10806338Y25381598D01*
X10806340Y25381595D01*
X10856102Y25295404D01*
X10856103Y25295403D01*
X10856104Y25295402D01*
X10891551Y25259955D01*
X10908461Y25224842D01*
X10915345Y25163737D01*
X10969540Y24926297D01*
X11039803Y24725500D01*
X8920037Y24725500D01*
X8999052Y24916260D01*
X9063166Y25155539D01*
X9080833Y25289738D01*
X9088233Y25311537D01*
X9098693Y25329654D01*
X9127240Y25379097D01*
X9153000Y25475235D01*
X9153000Y25574765D01*
X9127240Y25670903D01*
X9077475Y25757098D01*
X9077474Y25757100D01*
X9007100Y25827474D01*
X9007097Y25827476D01*
X8920905Y25877239D01*
X8920902Y25877241D01*
X8824766Y25903000D01*
X8824765Y25903000D01*
X8725235Y25903000D01*
X8725233Y25903000D01*
X8629097Y25877241D01*
X8629094Y25877239D01*
X8542902Y25827476D01*
X8472524Y25757098D01*
X8422761Y25670906D01*
X8422759Y25670903D01*
X8397000Y25574767D01*
X8397000Y25475234D01*
X8422759Y25379099D01*
X8430934Y25364940D01*
X8437208Y25321667D01*
X8394466Y25143633D01*
X8391605Y25134828D01*
X8320173Y24962375D01*
X8315970Y24954125D01*
X8218437Y24794967D01*
X8212995Y24787478D01*
X8160061Y24725500D01*
X7544748Y24725500D01*
X7515100Y24737781D01*
X7497819Y24779500D01*
X7515100Y24821219D01*
X7560514Y24866633D01*
X7560515Y24866635D01*
X7636281Y24997865D01*
X7675500Y25144234D01*
X7675500Y25295766D01*
X7636281Y25442135D01*
X7560515Y25573365D01*
X7560514Y25573367D01*
X7453367Y25680514D01*
X7453364Y25680516D01*
X7322137Y25756280D01*
X7322134Y25756282D01*
X7175767Y25795500D01*
X7175766Y25795500D01*
X7024234Y25795500D01*
X7024232Y25795500D01*
X6877865Y25756282D01*
X6877862Y25756280D01*
X6746635Y25680516D01*
X6639484Y25573365D01*
X6563720Y25442138D01*
X6563718Y25442135D01*
X6524500Y25295768D01*
X6524500Y25144233D01*
X6563718Y24997866D01*
X6563720Y24997863D01*
X6639484Y24866636D01*
X6639486Y24866633D01*
X6746633Y24759486D01*
X6746635Y24759485D01*
X6877865Y24683719D01*
X6913517Y24674167D01*
X6949342Y24646678D01*
X6955237Y24601908D01*
X6927748Y24566082D01*
X6925036Y24564609D01*
X6912726Y24558337D01*
X6912724Y24558336D01*
X6905714Y24553244D01*
X6890081Y24544887D01*
X6879516Y24538555D01*
X6869914Y24532139D01*
X6860023Y24524803D01*
X6809484Y24483328D01*
X6770047Y24454674D01*
X6770038Y24454666D01*
X6749340Y24433969D01*
X6717460Y24407805D01*
X6708334Y24399534D01*
X6700160Y24391360D01*
X6691889Y24382234D01*
X6665725Y24350354D01*
X6645334Y24329962D01*
X6645326Y24329953D01*
X6617095Y24291098D01*
X6574891Y24239671D01*
X6567555Y24229780D01*
X6561139Y24220178D01*
X6554807Y24209613D01*
X6546217Y24193544D01*
X6541664Y24187276D01*
X6541658Y24187265D01*
X6517109Y24139087D01*
X6467868Y24046961D01*
X6462603Y24035829D01*
X6458184Y24025161D01*
X6454034Y24013564D01*
X6423432Y23912683D01*
X6407092Y23862394D01*
X6407090Y23862385D01*
X6407090Y23862384D01*
X6405905Y23854906D01*
X6402177Y23842614D01*
X6402171Y23842593D01*
X6400493Y23837058D01*
X6397507Y23825135D01*
X6395251Y23813795D01*
X6393443Y23801609D01*
X6386829Y23734466D01*
X6379500Y23688185D01*
X6379500Y23660043D01*
X6375367Y23618079D01*
X6374763Y23605778D01*
X200500Y23605778D01*
X200500Y28062163D01*
X200650Y28066372D01*
X213964Y28252543D01*
X215162Y28260875D01*
X218135Y28274543D01*
X268086Y28504162D01*
X270449Y28512211D01*
X357467Y28745511D01*
X360953Y28753145D01*
X480281Y28971679D01*
X484812Y28978731D01*
X634037Y29178070D01*
X639532Y29184411D01*
X815589Y29360468D01*
X821937Y29365969D01*
X1021266Y29515185D01*
X1028322Y29519720D01*
X1246864Y29639051D01*
X1254494Y29642536D01*
X1432193Y29708814D01*
X1487776Y29729545D01*
X1495853Y29731917D01*
X1495858Y29731918D01*
X1739126Y29784839D01*
X1747456Y29786036D01*
X1933628Y29799350D01*
X1937837Y29799500D01*
X18062162Y29799500D01*
X18066371Y29799350D01*
G37*
%TD.AperFunction*%
%TD*%
%TA.AperFunction,Conductor*%
%TO.N,+5V*%
G36*
X12502577Y24599716D02*
G01*
X12688999Y24581355D01*
X12700341Y24579099D01*
X12788580Y24552333D01*
X12876822Y24525565D01*
X12887498Y24521143D01*
X13050141Y24434209D01*
X13059753Y24427786D01*
X13202308Y24310794D01*
X13210487Y24302615D01*
X13327479Y24160060D01*
X13333903Y24150445D01*
X13420833Y23987810D01*
X13425259Y23977127D01*
X13478792Y23800648D01*
X13481048Y23789305D01*
X13499124Y23605783D01*
X13499124Y23594217D01*
X13481048Y23410696D01*
X13478792Y23399353D01*
X13425259Y23222874D01*
X13420832Y23212187D01*
X13333904Y23049557D01*
X13327479Y23039941D01*
X13210487Y22897386D01*
X13202308Y22889207D01*
X13059753Y22772215D01*
X13050137Y22765790D01*
X12887507Y22678862D01*
X12876820Y22674435D01*
X12700341Y22620902D01*
X12688998Y22618646D01*
X12502577Y22600284D01*
X12496794Y22600000D01*
X7502594Y22600000D01*
X7496811Y22600284D01*
X7310389Y22618646D01*
X7299046Y22620902D01*
X7122567Y22674435D01*
X7111884Y22678861D01*
X6949249Y22765791D01*
X6939634Y22772215D01*
X6797079Y22889207D01*
X6788900Y22897386D01*
X6671908Y23039941D01*
X6665485Y23049553D01*
X6578551Y23212196D01*
X6574128Y23222874D01*
X6520595Y23399353D01*
X6518339Y23410696D01*
X6500263Y23594223D01*
X6500263Y23605778D01*
X6518339Y23789308D01*
X6520595Y23800648D01*
X6522273Y23806183D01*
X6574130Y23977133D01*
X6578549Y23987801D01*
X6665488Y24150453D01*
X6671904Y24160055D01*
X6788902Y24302618D01*
X6797076Y24310792D01*
X6939639Y24427790D01*
X6949241Y24434206D01*
X7111893Y24521145D01*
X7122561Y24525564D01*
X7299046Y24579099D01*
X7310386Y24581355D01*
X7496811Y24599716D01*
X7502594Y24600000D01*
X12496794Y24600000D01*
X12502577Y24599716D01*
G37*
%TD.AperFunction*%
%TD*%
M02*
