%TF.GenerationSoftware,KiCad,Pcbnew,10.0.0-rc1*%
%TF.CreationDate,2026-09-20T17:05:06+01:00*%
%TF.ProjectId,nano-w,6e616e6f-2d77-42e6-9b69-6361645f7063,rev?*%
%TF.SameCoordinates,Original*%
%TF.FileFunction,Soldermask,Top*%
%TF.FilePolarity,Negative*%
%FSLAX46Y46*%
G04 Gerber Fmt 4.6, Leading zero omitted, Abs format (unit mm)*
G04 Created by KiCad (PCBNEW 10.0.0-rc1) date 2026-09-20 17:05:06*
%MOMM*%
%LPD*%
G01*
G04 APERTURE LIST*
G04 Aperture macros list*
%AMRotRect*
0 Rectangle, with rotation*
0 The origin of the aperture is its center*
0 $1 length*
0 $2 width*
0 $3 Rotation angle, in degrees counterclockwise*
0 Add horizontal line*
21,1,$1,$2,0,0,$3*%
%AMFreePoly0*
4,1,13,0.165355,0.285355,0.180000,0.250000,0.180000,-0.250000,0.165355,-0.285355,0.130000,-0.300000,-0.120000,-0.300000,-0.155355,-0.285355,-0.170000,-0.250000,-0.170000,0.250000,-0.155355,0.285355,-0.120000,0.300000,0.130000,0.300000,0.165355,0.285355,0.165355,0.285355,$1*%
%AMFreePoly1*
4,1,13,0.165355,0.285355,0.180000,0.250000,0.180000,-0.250000,0.165355,-0.285355,0.130000,-0.300000,-0.130000,-0.300000,-0.165355,-0.285355,-0.180000,-0.250000,-0.180000,0.250000,-0.165355,0.285355,-0.130000,0.300000,0.130000,0.300000,0.165355,0.285355,0.165355,0.285355,$1*%
%AMFreePoly2*
4,1,13,0.155355,0.285355,0.170000,0.250000,0.170000,-0.250000,0.155355,-0.285355,0.120000,-0.300000,-0.120000,-0.300000,-0.155355,-0.285355,-0.170000,-0.250000,-0.170000,0.250000,-0.155355,0.285355,-0.120000,0.300000,0.120000,0.300000,0.155355,0.285355,0.155355,0.285355,$1*%
%AMFreePoly3*
4,1,13,0.155355,0.285355,0.170000,0.250000,0.170000,-0.250000,0.155355,-0.285355,0.120000,-0.300000,-0.130000,-0.300000,-0.165355,-0.285355,-0.180000,-0.250000,-0.180000,0.250000,-0.165355,0.285355,-0.130000,0.300000,0.120000,0.300000,0.155355,0.285355,0.155355,0.285355,$1*%
%AMFreePoly4*
4,1,13,0.335355,0.685355,0.350000,0.650000,0.350000,-0.650000,0.335355,-0.685355,0.300000,-0.700000,-0.300000,-0.700000,-0.335355,-0.685355,-0.350000,-0.650000,-0.350000,0.650000,-0.335355,0.685355,-0.300000,0.700000,0.300000,0.700000,0.335355,0.685355,0.335355,0.685355,$1*%
G04 Aperture macros list end*
%ADD10C,0.150000*%
%ADD11C,0.000000*%
%ADD12R,0.500000X0.540000*%
%ADD13R,1.400000X1.200000*%
%ADD14R,0.500000X0.500000*%
%ADD15FreePoly0,90.000000*%
%ADD16FreePoly1,90.000000*%
%ADD17FreePoly2,90.000000*%
%ADD18FreePoly3,90.000000*%
%ADD19R,0.370000X0.500000*%
%ADD20R,0.250000X0.500000*%
%ADD21R,1.000000X1.000000*%
%ADD22R,0.540000X0.570000*%
%ADD23C,3.000000*%
%ADD24RotRect,0.500000X0.540000X135.000000*%
%ADD25R,0.570000X0.540000*%
%ADD26R,0.720000X0.250000*%
%ADD27R,0.520000X0.250000*%
%ADD28R,0.850000X0.300000*%
%ADD29R,0.880000X0.200000*%
%ADD30R,0.200000X0.880000*%
%ADD31R,3.400000X3.400000*%
%ADD32RotRect,0.570000X0.540000X225.000000*%
%ADD33R,0.540000X0.500000*%
%ADD34R,0.870000X0.870000*%
%ADD35R,0.900000X0.800000*%
%ADD36R,0.800000X0.900000*%
%ADD37R,1.230000X1.860000*%
%ADD38R,1.000000X1.600000*%
%ADD39O,1.200000X2.000000*%
%ADD40O,1.200000X1.800000*%
%ADD41FreePoly4,180.000000*%
%ADD42R,0.300000X1.300000*%
%ADD43R,0.470000X0.530000*%
%ADD44O,0.610000X0.360000*%
%ADD45R,1.860000X1.230000*%
%ADD46R,1.550000X0.600000*%
%ADD47R,1.800000X1.200000*%
%ADD48RotRect,0.800000X0.860000X135.000000*%
G04 APERTURE END LIST*
D10*
G36*
X4183590Y25643915D02*
G01*
X4181527Y25668621D01*
X4174902Y25688585D01*
X4166553Y25700596D01*
X4155000Y25710203D01*
X4123587Y25722154D01*
X4068735Y25726811D01*
X3445000Y25726811D01*
X3445000Y25608109D01*
X4019764Y25608109D01*
X4031624Y25606504D01*
X4038627Y25601517D01*
X4040769Y25593552D01*
X4040769Y25399770D01*
X4038828Y25364377D01*
X4033056Y25333166D01*
X4024543Y25308322D01*
X4012983Y25286776D01*
X3999547Y25269631D01*
X3983572Y25255211D01*
X3945389Y25234722D01*
X3896514Y25223664D01*
X3860334Y25221717D01*
X3445000Y25221717D01*
X3445000Y25101843D01*
X3860334Y25101843D01*
X3903759Y25103408D01*
X3944369Y25108113D01*
X3979870Y25115400D01*
X4012755Y25125478D01*
X4041616Y25137697D01*
X4067982Y25152473D01*
X4091262Y25169375D01*
X4112057Y25188733D01*
X4146061Y25235001D01*
X4169897Y25292908D01*
X4182301Y25364654D01*
X4183590Y25399770D01*
X4183590Y25643915D01*
G37*
G36*
X3674209Y24947368D02*
G01*
X3738062Y24941791D01*
X3787252Y24927143D01*
X3825701Y24903433D01*
X3841738Y24887420D01*
X3855245Y24868629D01*
X3866792Y24845394D01*
X3875309Y24818738D01*
X3881051Y24785588D01*
X3882988Y24748033D01*
X3882988Y24466909D01*
X3938859Y24466909D01*
X3947853Y24467129D01*
X3985986Y24474191D01*
X4014358Y24490512D01*
X4025198Y24502522D01*
X4033406Y24517255D01*
X4038872Y24535798D01*
X4040769Y24557621D01*
X4040769Y24911578D01*
X4183590Y24911578D01*
X4183590Y24556497D01*
X4183256Y24542210D01*
X4173460Y24483722D01*
X4163992Y24459300D01*
X4151677Y24437570D01*
X4136513Y24418271D01*
X4118783Y24401563D01*
X4097605Y24386728D01*
X4073986Y24374565D01*
X4045802Y24364278D01*
X4015225Y24356919D01*
X3978884Y24352044D01*
X3940263Y24350454D01*
X3593377Y24350454D01*
X3540392Y24353148D01*
X3499603Y24362813D01*
X3472076Y24380354D01*
X3461169Y24394252D01*
X3453164Y24411545D01*
X3446997Y24438753D01*
X3445000Y24472527D01*
X3445000Y24748033D01*
X3589164Y24748033D01*
X3589164Y24499393D01*
X3589990Y24489467D01*
X3598770Y24473778D01*
X3610358Y24468549D01*
X3626960Y24466909D01*
X3765446Y24466909D01*
X3765446Y24745785D01*
X3761305Y24780042D01*
X3747013Y24807353D01*
X3735774Y24817148D01*
X3722082Y24824169D01*
X3702047Y24829302D01*
X3678679Y24830929D01*
X3643107Y24826717D01*
X3615415Y24813331D01*
X3604714Y24802523D01*
X3596666Y24788870D01*
X3591079Y24770357D01*
X3589164Y24748033D01*
X3445000Y24748033D01*
X3445000Y24749156D01*
X3445036Y24754152D01*
X3452683Y24815290D01*
X3471865Y24862027D01*
X3485348Y24881050D01*
X3501389Y24897540D01*
X3520487Y24911936D01*
X3542118Y24923782D01*
X3568171Y24933775D01*
X3596950Y24940971D01*
X3632088Y24945800D01*
X3670314Y24947384D01*
X3674209Y24947368D01*
G37*
G36*
X4183590Y24099519D02*
G01*
X4181527Y24124225D01*
X4174902Y24144189D01*
X4166553Y24156200D01*
X4155000Y24165807D01*
X4123587Y24177757D01*
X4068735Y24182415D01*
X3445000Y24182415D01*
X3445000Y24063713D01*
X4019764Y24063713D01*
X4031624Y24062107D01*
X4038627Y24057121D01*
X4040769Y24049156D01*
X4040769Y23855374D01*
X4038828Y23819980D01*
X4033056Y23788770D01*
X4024543Y23763925D01*
X4012983Y23742380D01*
X3999547Y23725235D01*
X3983572Y23710814D01*
X3945389Y23690326D01*
X3896514Y23679267D01*
X3860334Y23677321D01*
X3445000Y23677321D01*
X3445000Y23557446D01*
X3860334Y23557446D01*
X3903759Y23559012D01*
X3944369Y23563716D01*
X3979870Y23571004D01*
X4012755Y23581082D01*
X4041616Y23593301D01*
X4067982Y23608076D01*
X4091262Y23624979D01*
X4112057Y23644337D01*
X4146061Y23690605D01*
X4169897Y23748511D01*
X4182301Y23820258D01*
X4183590Y23855374D01*
X4183590Y24099519D01*
G37*
G36*
X3853580Y23417808D02*
G01*
X3942913Y23408155D01*
X4015570Y23389132D01*
X4073937Y23361799D01*
X4098423Y23345058D01*
X4119790Y23326354D01*
X4138467Y23305215D01*
X4153897Y23282148D01*
X4166585Y23256015D01*
X4175748Y23227922D01*
X4181633Y23196078D01*
X4183590Y23162213D01*
X4183590Y23037893D01*
X4182434Y23011860D01*
X4170053Y22953724D01*
X4145222Y22904659D01*
X4108389Y22863631D01*
X4085193Y22845871D01*
X4058843Y22830115D01*
X4028537Y22816115D01*
X3994888Y22804371D01*
X3956372Y22794641D01*
X3914216Y22787513D01*
X3866261Y22782936D01*
X3814295Y22781389D01*
X3775348Y22782243D01*
X3686172Y22791912D01*
X3613468Y22811004D01*
X3554959Y22838455D01*
X3530390Y22855269D01*
X3508952Y22874039D01*
X3490214Y22895237D01*
X3474737Y22918343D01*
X3462021Y22944474D01*
X3452842Y22972525D01*
X3446957Y23004231D01*
X3445000Y23037893D01*
X3445000Y23150977D01*
X3589164Y23150977D01*
X3589164Y23049079D01*
X3591525Y23017842D01*
X3604702Y22977413D01*
X3628957Y22946886D01*
X3646240Y22934214D01*
X3666863Y22923653D01*
X3693704Y22914384D01*
X3724888Y22907613D01*
X3766502Y22902839D01*
X3814295Y22901263D01*
X3872439Y22903669D01*
X3935426Y22914458D01*
X3980189Y22932573D01*
X3997613Y22944529D01*
X4011970Y22958496D01*
X4024027Y22975704D01*
X4032761Y22995290D01*
X4038791Y23020583D01*
X4040769Y23049079D01*
X4040769Y23150977D01*
X4038439Y23182040D01*
X4025293Y23222561D01*
X4001053Y23253120D01*
X3983742Y23265814D01*
X3963102Y23276375D01*
X3936124Y23285674D01*
X3904798Y23292454D01*
X3862671Y23297262D01*
X3814295Y23298842D01*
X3756944Y23296553D01*
X3693952Y23286006D01*
X3649458Y23268193D01*
X3632160Y23256381D01*
X3617911Y23242538D01*
X3605901Y23225354D01*
X3597201Y23205725D01*
X3591145Y23180044D01*
X3589164Y23150977D01*
X3445000Y23150977D01*
X3445000Y23162213D01*
X3446129Y23188131D01*
X3458415Y23246470D01*
X3483095Y23295553D01*
X3519733Y23336523D01*
X3542841Y23354254D01*
X3569097Y23369972D01*
X3599361Y23383956D01*
X3632975Y23395680D01*
X3671559Y23405410D01*
X3713809Y23412535D01*
X3762021Y23417119D01*
X3814295Y23418668D01*
X3853580Y23417808D01*
G37*
G36*
X3960840Y22692240D02*
G01*
X3818019Y22692240D01*
X3818019Y22292366D01*
X3960840Y22292366D01*
X3960840Y22692240D01*
G37*
G36*
X4185177Y22248744D02*
G01*
X3600155Y22187146D01*
X3562371Y22181316D01*
X3528393Y22172150D01*
X3504318Y22162081D01*
X3483178Y22149264D01*
X3467006Y22135308D01*
X3453503Y22118755D01*
X3435519Y22078485D01*
X3429368Y22026972D01*
X3431324Y21996554D01*
X3437201Y21969416D01*
X3445916Y21947581D01*
X3457866Y21928267D01*
X3472185Y21912217D01*
X3489425Y21898289D01*
X3533022Y21876414D01*
X3581959Y21863476D01*
X4031182Y21779456D01*
X4044501Y21775511D01*
X4054667Y21769104D01*
X4065877Y21750295D01*
X4067575Y21735785D01*
X4065580Y21720623D01*
X4059436Y21707994D01*
X4051084Y21699897D01*
X4039616Y21694223D01*
X4031182Y21692115D01*
X3581959Y21612589D01*
X3548794Y21605156D01*
X3519718Y21595140D01*
X3497120Y21583883D01*
X3477786Y21570397D01*
X3462451Y21555473D01*
X3450037Y21538412D01*
X3433824Y21497107D01*
X3429368Y21453538D01*
X3431290Y21423804D01*
X3436925Y21397378D01*
X3445523Y21375255D01*
X3457119Y21355869D01*
X3471192Y21339454D01*
X3487816Y21325432D01*
X3529182Y21303725D01*
X3583425Y21289998D01*
X3600155Y21287795D01*
X4185177Y21221703D01*
X4185177Y21350517D01*
X3608520Y21412115D01*
X3587636Y21415997D01*
X3572833Y21423305D01*
X3566044Y21430912D01*
X3562102Y21440938D01*
X3560954Y21452415D01*
X3562894Y21467978D01*
X3568657Y21480058D01*
X3576630Y21487886D01*
X3587329Y21493498D01*
X3601498Y21497209D01*
X4049378Y21576735D01*
X4082947Y21584516D01*
X4112392Y21594977D01*
X4134584Y21606410D01*
X4153577Y21620170D01*
X4168401Y21635260D01*
X4180362Y21652621D01*
X4195614Y21694852D01*
X4199221Y21734662D01*
X4197275Y21764668D01*
X4191470Y21791477D01*
X4182769Y21813380D01*
X4170885Y21832733D01*
X4156601Y21848899D01*
X4139482Y21862871D01*
X4096498Y21884621D01*
X4049378Y21897035D01*
X3601498Y21981054D01*
X3583600Y21986631D01*
X3570787Y21995412D01*
X3561507Y22016056D01*
X3560954Y22024725D01*
X3562920Y22039950D01*
X3568867Y22051382D01*
X3587721Y22063227D01*
X3608520Y22067272D01*
X4185177Y22119931D01*
X4185177Y22248744D01*
G37*
D11*
%TO.C,ART1*%
G36*
X2236099Y22270735D02*
G01*
X2245701Y22269977D01*
X2250223Y22269394D01*
X2254578Y22268680D01*
X2258752Y22267827D01*
X2262749Y22266836D01*
X2266572Y22265700D01*
X2270218Y22264415D01*
X2273697Y22262986D01*
X2277002Y22261402D01*
X2280141Y22259670D01*
X2283101Y22257781D01*
X2285899Y22255731D01*
X2288527Y22253526D01*
X2290989Y22251138D01*
X2293282Y22248606D01*
X2295415Y22245893D01*
X2297377Y22243005D01*
X2299179Y22239952D01*
X2300828Y22236724D01*
X2302306Y22233312D01*
X2303626Y22229716D01*
X2304787Y22225941D01*
X2305790Y22221974D01*
X2306635Y22217825D01*
X2307324Y22213481D01*
X2307858Y22208945D01*
X2308242Y22204204D01*
X2308471Y22199272D01*
X2308547Y22194135D01*
X2308547Y22077517D01*
X2253730Y22077517D01*
X2253730Y22177473D01*
X2253592Y22182046D01*
X2253418Y22184215D01*
X2253171Y22186296D01*
X2252855Y22188304D01*
X2252474Y22190218D01*
X2252018Y22192073D01*
X2251496Y22193843D01*
X2250902Y22195529D01*
X2250233Y22197140D01*
X2249498Y22198678D01*
X2248681Y22200135D01*
X2247803Y22201514D01*
X2246851Y22202831D01*
X2245822Y22204061D01*
X2244729Y22205214D01*
X2243562Y22206297D01*
X2242310Y22207309D01*
X2240998Y22208255D01*
X2239616Y22209118D01*
X2238149Y22209907D01*
X2236613Y22210624D01*
X2235010Y22211279D01*
X2233324Y22211861D01*
X2231572Y22212368D01*
X2229741Y22212816D01*
X2227834Y22213176D01*
X2225854Y22213483D01*
X2223798Y22213712D01*
X2221669Y22213879D01*
X2217188Y22214024D01*
X2024792Y22214024D01*
X2024792Y22270982D01*
X2225787Y22270982D01*
X2236099Y22270735D01*
G37*
G36*
X2431612Y21964660D02*
G01*
X2190851Y21964660D01*
X2190851Y21938330D01*
X2190884Y21930268D01*
X2191002Y21922999D01*
X2191251Y21916439D01*
X2191658Y21910539D01*
X2191934Y21907813D01*
X2192269Y21905222D01*
X2192662Y21902763D01*
X2193120Y21900437D01*
X2193646Y21898218D01*
X2194248Y21896106D01*
X2194928Y21894092D01*
X2195691Y21892175D01*
X2196541Y21890337D01*
X2197483Y21888575D01*
X2198527Y21886883D01*
X2199670Y21885252D01*
X2200920Y21883668D01*
X2202284Y21882127D01*
X2203760Y21880619D01*
X2205363Y21879151D01*
X2207091Y21877697D01*
X2208944Y21876251D01*
X2210938Y21874806D01*
X2213071Y21873360D01*
X2217775Y21870436D01*
X2223101Y21867388D01*
X2308547Y21820087D01*
X2308547Y21758295D01*
X2219331Y21807731D01*
X2214711Y21810351D01*
X2210306Y21812969D01*
X2206120Y21815599D01*
X2202144Y21818270D01*
X2198377Y21820983D01*
X2194803Y21823762D01*
X2191421Y21826624D01*
X2188234Y21829570D01*
X2185222Y21832618D01*
X2182392Y21835794D01*
X2179735Y21839106D01*
X2177238Y21842571D01*
X2174906Y21846212D01*
X2172733Y21850023D01*
X2170699Y21854029D01*
X2168818Y21858251D01*
X2167285Y21853362D01*
X2165512Y21848746D01*
X2163500Y21844387D01*
X2161235Y21840266D01*
X2158729Y21836336D01*
X2155959Y21832608D01*
X2152944Y21829044D01*
X2149677Y21825607D01*
X2146138Y21822277D01*
X2142350Y21819044D01*
X2138295Y21815877D01*
X2133977Y21812761D01*
X2129394Y21809648D01*
X2124533Y21806535D01*
X2119405Y21803403D01*
X2114004Y21800212D01*
X2024792Y21749158D01*
X2024792Y21813107D01*
X2108624Y21860401D01*
X2113885Y21863470D01*
X2118595Y21866477D01*
X2122774Y21869495D01*
X2126466Y21872573D01*
X2129702Y21875792D01*
X2132497Y21879193D01*
X2134891Y21882868D01*
X2136908Y21886867D01*
X2138579Y21891260D01*
X2139930Y21896102D01*
X2140995Y21901463D01*
X2141804Y21907408D01*
X2142380Y21914002D01*
X2142752Y21921311D01*
X2142957Y21929395D01*
X2143021Y21938330D01*
X2143021Y21964660D01*
X2024792Y21964660D01*
X2024792Y22021627D01*
X2431612Y22021627D01*
X2431612Y21964660D01*
G37*
G36*
X2118368Y25354643D02*
G01*
X2120208Y25354480D01*
X2121990Y25354244D01*
X2123725Y25353943D01*
X2125398Y25353582D01*
X2127021Y25353136D01*
X2128589Y25352616D01*
X2130098Y25352024D01*
X2131551Y25351357D01*
X2132947Y25350607D01*
X2134292Y25349781D01*
X2135577Y25348866D01*
X2136794Y25347876D01*
X2137961Y25346800D01*
X2139063Y25345634D01*
X2140098Y25344379D01*
X2141075Y25343037D01*
X2141991Y25341601D01*
X2142844Y25340076D01*
X2143633Y25338452D01*
X2144353Y25336728D01*
X2145009Y25334917D01*
X2145602Y25333002D01*
X2146121Y25330983D01*
X2146577Y25328873D01*
X2146969Y25326650D01*
X2147287Y25324317D01*
X2147536Y25321885D01*
X2147718Y25319344D01*
X2147824Y25316694D01*
X2147858Y25313924D01*
X2147858Y25180105D01*
X2094655Y25180104D01*
X2092808Y25180156D01*
X2091944Y25180224D01*
X2091104Y25180312D01*
X2090294Y25180433D01*
X2089524Y25180578D01*
X2088790Y25180755D01*
X2088078Y25180954D01*
X2087405Y25181188D01*
X2086765Y25181452D01*
X2086154Y25181739D01*
X2085579Y25182063D01*
X2085031Y25182419D01*
X2084511Y25182807D01*
X2084026Y25183217D01*
X2083574Y25183665D01*
X2083144Y25184149D01*
X2082748Y25184666D01*
X2082383Y25185210D01*
X2082043Y25185806D01*
X2081733Y25186419D01*
X2081456Y25187073D01*
X2081201Y25187775D01*
X2080978Y25188492D01*
X2080781Y25189259D01*
X2080608Y25190061D01*
X2080468Y25190905D01*
X2080352Y25191787D01*
X2080257Y25192699D01*
X2080195Y25193663D01*
X2080146Y25195692D01*
X2080146Y25314999D01*
X2080184Y25317620D01*
X2080299Y25320140D01*
X2080493Y25322560D01*
X2080763Y25324884D01*
X2081103Y25327111D01*
X2081523Y25329247D01*
X2082010Y25331286D01*
X2082570Y25333224D01*
X2083203Y25335076D01*
X2083899Y25336842D01*
X2084669Y25338516D01*
X2085501Y25340102D01*
X2086399Y25341595D01*
X2087369Y25343001D01*
X2088389Y25344322D01*
X2089482Y25345562D01*
X2090632Y25346715D01*
X2091845Y25347799D01*
X2093113Y25348779D01*
X2094444Y25349691D01*
X2095835Y25350525D01*
X2097275Y25351279D01*
X2098774Y25351954D01*
X2100320Y25352556D01*
X2101928Y25353085D01*
X2103577Y25353538D01*
X2105286Y25353911D01*
X2107041Y25354226D01*
X2110699Y25354635D01*
X2114537Y25354766D01*
X2118368Y25354643D01*
G37*
G36*
X2118368Y24519490D02*
G01*
X2120208Y24519335D01*
X2121990Y24519108D01*
X2123725Y24518805D01*
X2125398Y24518438D01*
X2127021Y24517988D01*
X2128589Y24517476D01*
X2130098Y24516879D01*
X2131551Y24516213D01*
X2132950Y24515465D01*
X2134293Y24514638D01*
X2135577Y24513730D01*
X2136794Y24512734D01*
X2137961Y24511658D01*
X2139063Y24510490D01*
X2140098Y24509235D01*
X2141075Y24507896D01*
X2141991Y24506457D01*
X2142844Y24504928D01*
X2143633Y24503310D01*
X2144353Y24501595D01*
X2145009Y24499773D01*
X2145602Y24497860D01*
X2146121Y24495847D01*
X2146577Y24493732D01*
X2146970Y24491505D01*
X2147287Y24489180D01*
X2147536Y24486744D01*
X2147718Y24484197D01*
X2147824Y24481551D01*
X2147858Y24478783D01*
X2147858Y24344966D01*
X2094655Y24344966D01*
X2092808Y24345016D01*
X2091944Y24345079D01*
X2091104Y24345169D01*
X2090294Y24345287D01*
X2089524Y24345435D01*
X2088790Y24345616D01*
X2088078Y24345811D01*
X2087405Y24346047D01*
X2086765Y24346311D01*
X2086154Y24346596D01*
X2085579Y24346919D01*
X2085031Y24347279D01*
X2084511Y24347662D01*
X2084026Y24348080D01*
X2083574Y24348521D01*
X2083144Y24349007D01*
X2082748Y24349522D01*
X2082383Y24350078D01*
X2082043Y24350661D01*
X2081733Y24351276D01*
X2081456Y24351935D01*
X2081201Y24352623D01*
X2080978Y24353353D01*
X2080781Y24354117D01*
X2080608Y24354922D01*
X2080468Y24355764D01*
X2080352Y24356639D01*
X2080257Y24357562D01*
X2080195Y24358517D01*
X2080146Y24360553D01*
X2080146Y24479846D01*
X2080182Y24482480D01*
X2080299Y24484999D01*
X2080493Y24487422D01*
X2080763Y24489739D01*
X2081103Y24491975D01*
X2081523Y24494100D01*
X2082010Y24496139D01*
X2082570Y24498088D01*
X2083203Y24499939D01*
X2083899Y24501701D01*
X2084670Y24503369D01*
X2085501Y24504960D01*
X2086399Y24506451D01*
X2087369Y24507855D01*
X2088389Y24509184D01*
X2089482Y24510426D01*
X2090632Y24511579D01*
X2091845Y24512651D01*
X2093113Y24513641D01*
X2094444Y24514553D01*
X2095835Y24515381D01*
X2097276Y24516144D01*
X2098774Y24516811D01*
X2100320Y24517418D01*
X2101928Y24517940D01*
X2103577Y24518396D01*
X2105286Y24518775D01*
X2107041Y24519084D01*
X2110699Y24519487D01*
X2114537Y24519627D01*
X2118368Y24519490D01*
G37*
G36*
X2235125Y21711223D02*
G01*
X2244000Y21710276D01*
X2248250Y21709556D01*
X2252379Y21708666D01*
X2256379Y21707620D01*
X2260252Y21706386D01*
X2263995Y21704989D01*
X2267603Y21703410D01*
X2271073Y21701656D01*
X2274403Y21699718D01*
X2277599Y21697592D01*
X2280649Y21695288D01*
X2283551Y21692798D01*
X2286310Y21690106D01*
X2288922Y21687223D01*
X2291375Y21684143D01*
X2293675Y21680869D01*
X2295822Y21677401D01*
X2297809Y21673718D01*
X2299634Y21669832D01*
X2301300Y21665733D01*
X2302798Y21661426D01*
X2304127Y21656915D01*
X2305281Y21652178D01*
X2306275Y21647227D01*
X2307082Y21642045D01*
X2307719Y21636651D01*
X2308174Y21631030D01*
X2308446Y21625184D01*
X2308547Y21619107D01*
X2308547Y21461632D01*
X2253730Y21461632D01*
X2253730Y21618566D01*
X2253701Y21620984D01*
X2253602Y21623321D01*
X2253445Y21625562D01*
X2253224Y21627712D01*
X2252941Y21629783D01*
X2252595Y21631761D01*
X2252187Y21633657D01*
X2251713Y21635462D01*
X2251175Y21637193D01*
X2250580Y21638833D01*
X2249919Y21640392D01*
X2249188Y21641870D01*
X2248404Y21643266D01*
X2247559Y21644579D01*
X2246646Y21645820D01*
X2245669Y21646980D01*
X2244629Y21648060D01*
X2243525Y21649062D01*
X2242365Y21649996D01*
X2241133Y21650860D01*
X2239847Y21651641D01*
X2238487Y21652344D01*
X2237070Y21652986D01*
X2235588Y21653549D01*
X2234047Y21654049D01*
X2232440Y21654481D01*
X2230772Y21654833D01*
X2229044Y21655131D01*
X2227252Y21655359D01*
X2225395Y21655524D01*
X2223471Y21655610D01*
X2221485Y21655643D01*
X2217864Y21655539D01*
X2214459Y21655212D01*
X2211274Y21654643D01*
X2209766Y21654260D01*
X2208306Y21653808D01*
X2206912Y21653285D01*
X2205566Y21652681D01*
X2204281Y21652007D01*
X2203053Y21651248D01*
X2201876Y21650405D01*
X2200766Y21649501D01*
X2199709Y21648482D01*
X2198715Y21647378D01*
X2197773Y21646188D01*
X2196887Y21644898D01*
X2196064Y21643512D01*
X2195301Y21642021D01*
X2194596Y21640434D01*
X2193952Y21638740D01*
X2193368Y21636929D01*
X2192842Y21635009D01*
X2192380Y21632978D01*
X2191976Y21630835D01*
X2191351Y21626170D01*
X2190975Y21621013D01*
X2190851Y21615337D01*
X2190851Y21548701D01*
X2190748Y21541516D01*
X2190434Y21534665D01*
X2189923Y21528145D01*
X2189222Y21521943D01*
X2188321Y21516059D01*
X2187239Y21510489D01*
X2185978Y21505208D01*
X2184537Y21500228D01*
X2182934Y21495532D01*
X2181155Y21491129D01*
X2179225Y21486971D01*
X2177131Y21483104D01*
X2174899Y21479482D01*
X2172517Y21476109D01*
X2169998Y21472995D01*
X2167339Y21470104D01*
X2164554Y21467444D01*
X2161649Y21465009D01*
X2158616Y21462789D01*
X2155476Y21460782D01*
X2152228Y21458973D01*
X2148876Y21457361D01*
X2145426Y21455932D01*
X2141876Y21454686D01*
X2138248Y21453604D01*
X2134534Y21452707D01*
X2130736Y21451958D01*
X2126864Y21451366D01*
X2118938Y21450597D01*
X2110780Y21450355D01*
X2101486Y21450659D01*
X2092580Y21451618D01*
X2084080Y21453219D01*
X2079999Y21454287D01*
X2076029Y21455508D01*
X2072178Y21456908D01*
X2068447Y21458490D01*
X2064848Y21460250D01*
X2061371Y21462193D01*
X2058029Y21464330D01*
X2054823Y21466648D01*
X2051761Y21469148D01*
X2048841Y21471845D01*
X2046066Y21474745D01*
X2043448Y21477832D01*
X2040984Y21481127D01*
X2038680Y21484619D01*
X2036534Y21488324D01*
X2034560Y21492228D01*
X2032755Y21496352D01*
X2031128Y21500684D01*
X2029666Y21505228D01*
X2028400Y21509999D01*
X2027312Y21514983D01*
X2026412Y21520201D01*
X2025707Y21525635D01*
X2025199Y21531298D01*
X2024893Y21537201D01*
X2024792Y21543323D01*
X2024792Y21708311D01*
X2080146Y21708311D01*
X2080146Y21543323D01*
X2080248Y21538567D01*
X2080580Y21534174D01*
X2080828Y21532106D01*
X2081131Y21530124D01*
X2081496Y21528227D01*
X2081919Y21526416D01*
X2082400Y21524696D01*
X2082941Y21523054D01*
X2083535Y21521493D01*
X2084200Y21520017D01*
X2084921Y21518625D01*
X2085704Y21517305D01*
X2086553Y21516059D01*
X2087465Y21514910D01*
X2088442Y21513827D01*
X2089488Y21512823D01*
X2090598Y21511884D01*
X2091764Y21511035D01*
X2093015Y21510255D01*
X2094320Y21509540D01*
X2095699Y21508899D01*
X2097151Y21508333D01*
X2098666Y21507844D01*
X2100256Y21507411D01*
X2101916Y21507051D01*
X2103646Y21506754D01*
X2105459Y21506530D01*
X2107328Y21506372D01*
X2109288Y21506275D01*
X2111317Y21506245D01*
X2115389Y21506380D01*
X2119159Y21506808D01*
X2120926Y21507125D01*
X2122622Y21507523D01*
X2124249Y21507991D01*
X2125793Y21508537D01*
X2127268Y21509157D01*
X2128670Y21509856D01*
X2130005Y21510628D01*
X2131270Y21511481D01*
X2132453Y21512422D01*
X2133585Y21513436D01*
X2134636Y21514530D01*
X2135634Y21515712D01*
X2136555Y21516978D01*
X2137411Y21518332D01*
X2138212Y21519758D01*
X2138942Y21521279D01*
X2139607Y21522885D01*
X2140214Y21524577D01*
X2140755Y21526359D01*
X2141241Y21528234D01*
X2142029Y21532252D01*
X2142586Y21536648D01*
X2142913Y21541403D01*
X2143021Y21546550D01*
X2143021Y21613727D01*
X2143135Y21620911D01*
X2143470Y21627759D01*
X2144028Y21634265D01*
X2144790Y21640451D01*
X2145765Y21646329D01*
X2146927Y21651883D01*
X2148293Y21657148D01*
X2149834Y21662112D01*
X2151555Y21666783D01*
X2153452Y21671176D01*
X2155513Y21675304D01*
X2157731Y21679150D01*
X2160102Y21682747D01*
X2162627Y21686094D01*
X2165279Y21689196D01*
X2168079Y21692055D01*
X2171002Y21694689D01*
X2174046Y21697099D01*
X2177200Y21699296D01*
X2180468Y21701276D01*
X2183833Y21703061D01*
X2187303Y21704655D01*
X2190851Y21706061D01*
X2194491Y21707292D01*
X2198194Y21708344D01*
X2201983Y21709232D01*
X2209731Y21710552D01*
X2217681Y21711300D01*
X2225787Y21711533D01*
X2235125Y21711223D01*
G37*
G36*
X2175494Y22644349D02*
G01*
X2184028Y22643940D01*
X2192270Y22643255D01*
X2200232Y22642304D01*
X2207898Y22641095D01*
X2215285Y22639625D01*
X2222381Y22637893D01*
X2229193Y22635914D01*
X2235720Y22633677D01*
X2241960Y22631205D01*
X2247917Y22628485D01*
X2253599Y22625527D01*
X2258986Y22622330D01*
X2264099Y22618911D01*
X2268930Y22615253D01*
X2273478Y22611368D01*
X2277750Y22607264D01*
X2281736Y22602941D01*
X2285447Y22598406D01*
X2288874Y22593654D01*
X2292028Y22588698D01*
X2294911Y22583541D01*
X2297508Y22578178D01*
X2299828Y22572618D01*
X2301876Y22566861D01*
X2303649Y22560906D01*
X2305148Y22554783D01*
X2306377Y22548464D01*
X2307324Y22541966D01*
X2307998Y22535293D01*
X2308414Y22528439D01*
X2308547Y22521419D01*
X2308547Y22461765D01*
X2307998Y22447983D01*
X2307324Y22441348D01*
X2306377Y22434875D01*
X2305148Y22428588D01*
X2303649Y22422469D01*
X2301876Y22416535D01*
X2299828Y22410793D01*
X2297508Y22405241D01*
X2294911Y22399876D01*
X2292028Y22394724D01*
X2288874Y22389763D01*
X2285447Y22385013D01*
X2281736Y22380464D01*
X2277750Y22376134D01*
X2273478Y22372020D01*
X2268930Y22368121D01*
X2264099Y22364451D01*
X2258986Y22361012D01*
X2253599Y22357794D01*
X2247917Y22354828D01*
X2241960Y22352090D01*
X2235720Y22349591D01*
X2229193Y22347345D01*
X2222381Y22345349D01*
X2215286Y22343610D01*
X2207898Y22342122D01*
X2200232Y22340897D01*
X2192270Y22339942D01*
X2184028Y22339251D01*
X2175494Y22338839D01*
X2166673Y22338692D01*
X2157848Y22338839D01*
X2149309Y22339251D01*
X2141065Y22339942D01*
X2133107Y22340896D01*
X2125435Y22342122D01*
X2118048Y22343610D01*
X2110955Y22345349D01*
X2104144Y22347346D01*
X2097611Y22349591D01*
X2091373Y22352090D01*
X2085417Y22354828D01*
X2079737Y22357794D01*
X2074343Y22361012D01*
X2069236Y22364451D01*
X2064405Y22368121D01*
X2059857Y22372020D01*
X2055592Y22376134D01*
X2051600Y22380464D01*
X2047886Y22385013D01*
X2044460Y22389763D01*
X2041305Y22394724D01*
X2038428Y22399876D01*
X2035831Y22405241D01*
X2033503Y22410793D01*
X2031462Y22416537D01*
X2029686Y22422471D01*
X2028191Y22428588D01*
X2026967Y22434875D01*
X2026013Y22441348D01*
X2025339Y22447983D01*
X2024925Y22454794D01*
X2024792Y22461768D01*
X2024792Y22516043D01*
X2080146Y22516043D01*
X2080146Y22467140D01*
X2080443Y22458278D01*
X2081352Y22450054D01*
X2082033Y22446163D01*
X2082875Y22442433D01*
X2083881Y22438853D01*
X2085048Y22435421D01*
X2086378Y22432145D01*
X2087876Y22429018D01*
X2089535Y22426037D01*
X2091364Y22423202D01*
X2093373Y22420511D01*
X2095551Y22417974D01*
X2097901Y22415585D01*
X2100433Y22413336D01*
X2103139Y22411229D01*
X2106034Y22409252D01*
X2109109Y22407431D01*
X2112366Y22405752D01*
X2115816Y22404208D01*
X2119453Y22402801D01*
X2123280Y22401532D01*
X2127307Y22400412D01*
X2131519Y22399416D01*
X2135932Y22398556D01*
X2145362Y22397244D01*
X2155602Y22396460D01*
X2166673Y22396197D01*
X2177743Y22396460D01*
X2182968Y22396788D01*
X2188000Y22397244D01*
X2192830Y22397830D01*
X2197451Y22398556D01*
X2201884Y22399416D01*
X2206118Y22400412D01*
X2210159Y22401532D01*
X2214012Y22402801D01*
X2217665Y22404208D01*
X2221139Y22405752D01*
X2224419Y22407431D01*
X2227524Y22409252D01*
X2230441Y22411229D01*
X2233173Y22413336D01*
X2235730Y22415585D01*
X2238108Y22417974D01*
X2240308Y22420511D01*
X2242336Y22423202D01*
X2244192Y22426037D01*
X2245877Y22429018D01*
X2247389Y22432145D01*
X2248746Y22435421D01*
X2249924Y22438853D01*
X2250945Y22442433D01*
X2251806Y22446163D01*
X2252496Y22450054D01*
X2253040Y22454086D01*
X2253423Y22458278D01*
X2253657Y22462635D01*
X2253730Y22467140D01*
X2253730Y22516043D01*
X2253423Y22524991D01*
X2252496Y22533294D01*
X2251806Y22537200D01*
X2250947Y22540949D01*
X2249924Y22544546D01*
X2248746Y22547989D01*
X2247389Y22551274D01*
X2245877Y22554405D01*
X2244192Y22557391D01*
X2242336Y22560220D01*
X2240308Y22562899D01*
X2238108Y22565434D01*
X2235730Y22567813D01*
X2233173Y22570052D01*
X2230441Y22572149D01*
X2227524Y22574097D01*
X2224419Y22575904D01*
X2221139Y22577573D01*
X2217666Y22579099D01*
X2214012Y22580491D01*
X2210159Y22581734D01*
X2206118Y22582856D01*
X2197451Y22584674D01*
X2188000Y22585974D01*
X2177743Y22586731D01*
X2166673Y22586986D01*
X2155602Y22586731D01*
X2150373Y22586410D01*
X2145362Y22585974D01*
X2140545Y22585389D01*
X2135932Y22584674D01*
X2131519Y22583832D01*
X2127307Y22582856D01*
X2123280Y22581734D01*
X2119453Y22580491D01*
X2115816Y22579099D01*
X2112366Y22577573D01*
X2109109Y22575904D01*
X2106034Y22574097D01*
X2103139Y22572149D01*
X2100433Y22570052D01*
X2097901Y22567813D01*
X2095551Y22565434D01*
X2093373Y22562899D01*
X2091364Y22560220D01*
X2089535Y22557391D01*
X2087876Y22554405D01*
X2086378Y22551274D01*
X2085048Y22547989D01*
X2083881Y22544546D01*
X2082875Y22540949D01*
X2082033Y22537200D01*
X2081352Y22533294D01*
X2080817Y22529217D01*
X2080443Y22524991D01*
X2080215Y22520596D01*
X2080146Y22516043D01*
X2024792Y22516043D01*
X2024792Y22521419D01*
X2025339Y22535293D01*
X2026013Y22541969D01*
X2026967Y22548464D01*
X2028191Y22554783D01*
X2029686Y22560906D01*
X2031462Y22566861D01*
X2033503Y22572618D01*
X2035831Y22578178D01*
X2038428Y22583541D01*
X2041305Y22588698D01*
X2044460Y22593656D01*
X2047886Y22598406D01*
X2051600Y22602941D01*
X2055592Y22607264D01*
X2059857Y22611368D01*
X2064405Y22615253D01*
X2069236Y22618911D01*
X2074343Y22622330D01*
X2079737Y22625527D01*
X2085417Y22628487D01*
X2091373Y22631204D01*
X2097611Y22633677D01*
X2104146Y22635914D01*
X2110955Y22637893D01*
X2118048Y22639625D01*
X2125435Y22641095D01*
X2133107Y22642304D01*
X2141065Y22643255D01*
X2149309Y22643940D01*
X2166673Y22644485D01*
X2175494Y22644349D01*
G37*
G36*
X2308547Y23119025D02*
G01*
X2087128Y23093768D01*
X2084887Y23093421D01*
X2082795Y23092986D01*
X2080856Y23092430D01*
X2079938Y23092126D01*
X2079061Y23091781D01*
X2078217Y23091420D01*
X2077416Y23091016D01*
X2076651Y23090595D01*
X2075916Y23090135D01*
X2075226Y23089648D01*
X2074564Y23089129D01*
X2073940Y23088573D01*
X2073360Y23087984D01*
X2072810Y23087368D01*
X2072302Y23086707D01*
X2071824Y23086015D01*
X2071386Y23085281D01*
X2070973Y23084519D01*
X2070609Y23083710D01*
X2070274Y23082864D01*
X2069975Y23081978D01*
X2069717Y23081048D01*
X2069488Y23080077D01*
X2069294Y23079062D01*
X2069137Y23078008D01*
X2069014Y23076913D01*
X2068924Y23075768D01*
X2068862Y23073341D01*
X2068873Y23072159D01*
X2068920Y23071011D01*
X2069003Y23069906D01*
X2069106Y23068851D01*
X2069251Y23067830D01*
X2069424Y23066856D01*
X2069623Y23065908D01*
X2069858Y23065004D01*
X2070125Y23064141D01*
X2070419Y23063308D01*
X2070743Y23062512D01*
X2071097Y23061756D01*
X2071481Y23061028D01*
X2071899Y23060332D01*
X2072346Y23059663D01*
X2072824Y23059035D01*
X2073329Y23058432D01*
X2073861Y23057859D01*
X2074430Y23057315D01*
X2075031Y23056791D01*
X2075652Y23056308D01*
X2076306Y23055834D01*
X2076988Y23055402D01*
X2077697Y23054980D01*
X2078440Y23054585D01*
X2079212Y23054212D01*
X2080845Y23053528D01*
X2082585Y23052917D01*
X2084445Y23052382D01*
X2256416Y23012076D01*
X2263265Y23010280D01*
X2269690Y23008106D01*
X2275694Y23005565D01*
X2281270Y23002620D01*
X2283900Y23001006D01*
X2286425Y22999292D01*
X2288833Y22997465D01*
X2291141Y22995548D01*
X2293338Y22993521D01*
X2295429Y22991390D01*
X2297407Y22989161D01*
X2299275Y22986821D01*
X2301032Y22984378D01*
X2302687Y22981817D01*
X2304215Y22979156D01*
X2305640Y22976378D01*
X2306960Y22973489D01*
X2308160Y22970501D01*
X2309252Y22967386D01*
X2310222Y22964166D01*
X2311841Y22957368D01*
X2312992Y22950108D01*
X2313682Y22942367D01*
X2313918Y22934159D01*
X2313862Y22929987D01*
X2313682Y22925955D01*
X2313398Y22922053D01*
X2312992Y22918290D01*
X2312475Y22914644D01*
X2311841Y22911136D01*
X2311091Y22907744D01*
X2310222Y22904478D01*
X2309249Y22901337D01*
X2308160Y22898304D01*
X2306960Y22895393D01*
X2305640Y22892605D01*
X2304215Y22889930D01*
X2302687Y22887360D01*
X2301032Y22884912D01*
X2299275Y22882559D01*
X2297407Y22880316D01*
X2295429Y22878189D01*
X2293338Y22876159D01*
X2291141Y22874229D01*
X2288833Y22872402D01*
X2286425Y22870668D01*
X2283900Y22869038D01*
X2281270Y22867502D01*
X2278536Y22866057D01*
X2275694Y22864694D01*
X2272744Y22863427D01*
X2269689Y22862251D01*
X2263265Y22860148D01*
X2256416Y22858378D01*
X2084445Y22820218D01*
X2082585Y22819769D01*
X2080845Y22819207D01*
X2079212Y22818543D01*
X2077697Y22817770D01*
X2076990Y22817341D01*
X2076306Y22816886D01*
X2075652Y22816393D01*
X2075031Y22815873D01*
X2074430Y22815323D01*
X2073861Y22814754D01*
X2073329Y22814140D01*
X2072824Y22813503D01*
X2072346Y22812835D01*
X2071899Y22812130D01*
X2071481Y22811399D01*
X2071097Y22810626D01*
X2070743Y22809828D01*
X2070419Y22808992D01*
X2070125Y22808122D01*
X2069858Y22807219D01*
X2069424Y22805315D01*
X2069106Y22803261D01*
X2068920Y22801069D01*
X2068862Y22798727D01*
X2068924Y22796399D01*
X2069014Y22795307D01*
X2069137Y22794255D01*
X2069294Y22793254D01*
X2069488Y22792288D01*
X2069717Y22791363D01*
X2069975Y22790489D01*
X2070274Y22789650D01*
X2070609Y22788845D01*
X2070973Y22788086D01*
X2071386Y22787364D01*
X2071824Y22786668D01*
X2072302Y22786022D01*
X2072810Y22785402D01*
X2073360Y22784817D01*
X2073940Y22784272D01*
X2074564Y22783753D01*
X2075226Y22783265D01*
X2075916Y22782808D01*
X2076651Y22782380D01*
X2077416Y22781984D01*
X2078217Y22781614D01*
X2079061Y22781268D01*
X2080856Y22780655D01*
X2082795Y22780146D01*
X2084887Y22779716D01*
X2087128Y22779378D01*
X2308547Y22749818D01*
X2308547Y22688019D01*
X2083907Y22719725D01*
X2076700Y22720934D01*
X2069826Y22722574D01*
X2063287Y22724641D01*
X2057112Y22727165D01*
X2054165Y22728601D01*
X2051320Y22730163D01*
X2048569Y22731837D01*
X2045919Y22733650D01*
X2043376Y22735585D01*
X2040943Y22737645D01*
X2038625Y22739837D01*
X2036412Y22742166D01*
X2034318Y22744622D01*
X2032337Y22747220D01*
X2030479Y22749960D01*
X2028747Y22752835D01*
X2027135Y22755867D01*
X2025654Y22759040D01*
X2024288Y22762360D01*
X2023070Y22765826D01*
X2021979Y22769446D01*
X2021029Y22773222D01*
X2020221Y22777157D01*
X2019549Y22781250D01*
X2019026Y22785509D01*
X2018652Y22789928D01*
X2018423Y22794511D01*
X2018348Y22799265D01*
X2018563Y22807283D01*
X2018856Y22811117D01*
X2019252Y22814842D01*
X2019756Y22818439D01*
X2020383Y22821934D01*
X2021126Y22825305D01*
X2021977Y22828569D01*
X2022950Y22831718D01*
X2024023Y22834761D01*
X2025220Y22837687D01*
X2026533Y22840505D01*
X2027957Y22843224D01*
X2029492Y22845829D01*
X2031152Y22848330D01*
X2032919Y22850727D01*
X2034801Y22853010D01*
X2036799Y22855197D01*
X2038915Y22857282D01*
X2041144Y22859269D01*
X2043488Y22861159D01*
X2045953Y22862942D01*
X2048522Y22864631D01*
X2051214Y22866223D01*
X2054024Y22867717D01*
X2056946Y22869115D01*
X2059984Y22870423D01*
X2063136Y22871638D01*
X2066413Y22872751D01*
X2069795Y22873779D01*
X2076917Y22875572D01*
X2249430Y22913728D01*
X2250321Y22913954D01*
X2251180Y22914201D01*
X2252008Y22914487D01*
X2252807Y22914805D01*
X2253578Y22915160D01*
X2254309Y22915543D01*
X2255022Y22915958D01*
X2255689Y22916403D01*
X2256338Y22916873D01*
X2256959Y22917381D01*
X2257545Y22917915D01*
X2258099Y22918475D01*
X2258627Y22919057D01*
X2259128Y22919682D01*
X2259597Y22920315D01*
X2260043Y22920985D01*
X2260845Y22922396D01*
X2261532Y22923902D01*
X2262113Y22925499D01*
X2262574Y22927182D01*
X2262938Y22928950D01*
X2263201Y22930793D01*
X2263357Y22932703D01*
X2263405Y22934691D01*
X2263357Y22936760D01*
X2263201Y22938745D01*
X2263084Y22939696D01*
X2262938Y22940634D01*
X2262773Y22941536D01*
X2262574Y22942426D01*
X2262363Y22943284D01*
X2262113Y22944123D01*
X2261833Y22944929D01*
X2261532Y22945715D01*
X2261203Y22946475D01*
X2260845Y22947205D01*
X2260457Y22947912D01*
X2260043Y22948595D01*
X2259597Y22949251D01*
X2259128Y22949876D01*
X2258627Y22950479D01*
X2258099Y22951050D01*
X2257545Y22951595D01*
X2256959Y22952106D01*
X2256338Y22952600D01*
X2255689Y22953055D01*
X2255022Y22953484D01*
X2254310Y22953886D01*
X2253578Y22954259D01*
X2252807Y22954592D01*
X2252008Y22954902D01*
X2251180Y22955184D01*
X2250321Y22955434D01*
X2249430Y22955655D01*
X2076917Y22995951D01*
X2069795Y22997847D01*
X2063136Y23000094D01*
X2056946Y23002725D01*
X2051214Y23005726D01*
X2048522Y23007366D01*
X2045953Y23009110D01*
X2043488Y23010950D01*
X2041144Y23012892D01*
X2038915Y23014941D01*
X2036799Y23017083D01*
X2034801Y23019332D01*
X2032919Y23021681D01*
X2031152Y23024139D01*
X2029496Y23026710D01*
X2027957Y23029383D01*
X2026533Y23032159D01*
X2025220Y23035051D01*
X2024023Y23038054D01*
X2022949Y23041168D01*
X2021977Y23044396D01*
X2020383Y23051198D01*
X2019252Y23058461D01*
X2018563Y23066202D01*
X2018348Y23074415D01*
X2018423Y23079254D01*
X2018652Y23083902D01*
X2019026Y23088353D01*
X2019549Y23092621D01*
X2020221Y23096704D01*
X2021029Y23100608D01*
X2021979Y23104333D01*
X2023073Y23107891D01*
X2024288Y23111274D01*
X2025650Y23114496D01*
X2027135Y23117560D01*
X2028747Y23120464D01*
X2030479Y23123213D01*
X2032337Y23125814D01*
X2034318Y23128266D01*
X2036412Y23130576D01*
X2038625Y23132745D01*
X2040943Y23134791D01*
X2043376Y23136699D01*
X2045919Y23138477D01*
X2048569Y23140134D01*
X2051320Y23141671D01*
X2054165Y23143090D01*
X2057112Y23144398D01*
X2063287Y23146694D01*
X2069826Y23148582D01*
X2076700Y23150101D01*
X2083907Y23151267D01*
X2308547Y23180826D01*
X2308547Y23119025D01*
G37*
G36*
X2187548Y25909427D02*
G01*
X2224631Y25906606D01*
X2261175Y25901954D01*
X2273148Y25899812D01*
X2297130Y25895516D01*
X2332461Y25887363D01*
X2367127Y25877510D01*
X2401062Y25866029D01*
X2434231Y25852929D01*
X2466590Y25838287D01*
X2498083Y25822150D01*
X2528675Y25804553D01*
X2558320Y25785543D01*
X2586967Y25765163D01*
X2614563Y25743470D01*
X2641080Y25720501D01*
X2666448Y25696301D01*
X2690659Y25670926D01*
X2713625Y25644410D01*
X2735316Y25616814D01*
X2755691Y25588161D01*
X2774700Y25558525D01*
X2792299Y25527932D01*
X2808448Y25496431D01*
X2823082Y25464072D01*
X2836171Y25430912D01*
X2847663Y25396967D01*
X2857515Y25362318D01*
X2865680Y25326979D01*
X2872104Y25291019D01*
X2876758Y25254477D01*
X2879581Y25217397D01*
X2880535Y25179823D01*
X2880535Y21770174D01*
X2879581Y21732603D01*
X2876758Y21695519D01*
X2872104Y21658978D01*
X2865680Y21623019D01*
X2857515Y21587681D01*
X2847663Y21553025D01*
X2836171Y21519087D01*
X2823082Y21485924D01*
X2808448Y21453567D01*
X2792299Y21422068D01*
X2774700Y21391474D01*
X2755691Y21361837D01*
X2735316Y21333184D01*
X2713625Y21305589D01*
X2690659Y21279074D01*
X2666448Y21253693D01*
X2641080Y21229498D01*
X2614563Y21206529D01*
X2586967Y21184834D01*
X2558320Y21164454D01*
X2528675Y21145447D01*
X2498083Y21127850D01*
X2466590Y21111709D01*
X2434231Y21097070D01*
X2401062Y21083971D01*
X2367127Y21072489D01*
X2332461Y21062635D01*
X2297130Y21054474D01*
X2261175Y21048046D01*
X2224631Y21043390D01*
X2187548Y21040571D01*
X2149981Y21039619D01*
X2112412Y21040571D01*
X2075329Y21043390D01*
X2038785Y21048046D01*
X2002830Y21054474D01*
X1967500Y21062635D01*
X1932841Y21072489D01*
X1898898Y21083971D01*
X1865729Y21097070D01*
X1833372Y21111709D01*
X1801877Y21127850D01*
X1771287Y21145447D01*
X1741645Y21164454D01*
X1712993Y21184834D01*
X1685397Y21206529D01*
X1658884Y21229498D01*
X1633512Y21253693D01*
X1609304Y21279074D01*
X1586335Y21305589D01*
X1564645Y21333184D01*
X1544270Y21361837D01*
X1525260Y21391468D01*
X1507664Y21422068D01*
X1491514Y21453567D01*
X1476879Y21485924D01*
X1463790Y21519087D01*
X1452301Y21553025D01*
X1442445Y21587681D01*
X1434280Y21623019D01*
X1427856Y21658978D01*
X1423202Y21695519D01*
X1420381Y21732603D01*
X1419425Y21770174D01*
X1419425Y22983105D01*
X1560923Y22983105D01*
X1560923Y21775409D01*
X1561695Y21745113D01*
X1563976Y21715221D01*
X1567720Y21685745D01*
X1572902Y21656752D01*
X1579487Y21628254D01*
X1587427Y21600317D01*
X1596689Y21572946D01*
X1607251Y21546203D01*
X1619051Y21520108D01*
X1632070Y21494713D01*
X1646259Y21470038D01*
X1661584Y21446140D01*
X1678019Y21423041D01*
X1695511Y21400787D01*
X1714028Y21379411D01*
X1733540Y21358942D01*
X1754001Y21339428D01*
X1775379Y21320914D01*
X1797638Y21303421D01*
X1820732Y21286998D01*
X1844636Y21271660D01*
X1869303Y21257473D01*
X1894701Y21244453D01*
X1920791Y21232649D01*
X1947536Y21222101D01*
X1974902Y21212830D01*
X2002848Y21204881D01*
X2031336Y21198304D01*
X2060337Y21193122D01*
X2089801Y21189371D01*
X2119701Y21187093D01*
X2149992Y21186324D01*
X2180286Y21187094D01*
X2210188Y21189371D01*
X2239653Y21193122D01*
X2268654Y21198304D01*
X2297139Y21204881D01*
X2325087Y21212830D01*
X2352454Y21222099D01*
X2379198Y21232649D01*
X2405292Y21244453D01*
X2430685Y21257473D01*
X2455356Y21271660D01*
X2479256Y21286998D01*
X2502355Y21303421D01*
X2524611Y21320914D01*
X2545992Y21339428D01*
X2566457Y21358942D01*
X2585966Y21379411D01*
X2604489Y21400787D01*
X2621980Y21423041D01*
X2638408Y21446140D01*
X2653740Y21470038D01*
X2667936Y21494713D01*
X2680944Y21520108D01*
X2692747Y21546203D01*
X2703301Y21572946D01*
X2712574Y21600317D01*
X2720510Y21628254D01*
X2727094Y21656752D01*
X2732277Y21685745D01*
X2736025Y21715221D01*
X2738303Y21745113D01*
X2739069Y21775409D01*
X2739069Y22983105D01*
X2738487Y23009485D01*
X2736763Y23035570D01*
X2733912Y23061333D01*
X2729963Y23086753D01*
X2724942Y23111806D01*
X2718876Y23136463D01*
X2711781Y23160694D01*
X2703686Y23184495D01*
X2694621Y23207831D01*
X2684602Y23230668D01*
X2673659Y23252989D01*
X2661807Y23274764D01*
X2649088Y23295986D01*
X2635512Y23316614D01*
X2621101Y23336626D01*
X2605894Y23356004D01*
X2589901Y23374718D01*
X2573163Y23392745D01*
X2555685Y23410055D01*
X2537502Y23426634D01*
X2518640Y23442452D01*
X2499121Y23457481D01*
X2478973Y23471707D01*
X2458209Y23485100D01*
X2436860Y23497634D01*
X2414958Y23509272D01*
X2392518Y23520023D01*
X2369569Y23529826D01*
X2346130Y23538685D01*
X2322238Y23546554D01*
X2297900Y23553415D01*
X2273148Y23559256D01*
X2273309Y23560848D01*
X2273451Y23562451D01*
X2273564Y23564060D01*
X2273655Y23565670D01*
X2273731Y23567287D01*
X2273781Y23568916D01*
X2273814Y23570537D01*
X2273823Y23572174D01*
X2273662Y23578556D01*
X2273185Y23584854D01*
X2273148Y23585100D01*
X2272395Y23591057D01*
X2271307Y23597168D01*
X2269918Y23603170D01*
X2268252Y23609059D01*
X2266305Y23614821D01*
X2264085Y23620460D01*
X2261608Y23625952D01*
X2258870Y23631298D01*
X2255887Y23636500D01*
X2252665Y23641536D01*
X2249212Y23646393D01*
X2245533Y23651090D01*
X2241640Y23655587D01*
X2237536Y23659899D01*
X2233240Y23664011D01*
X2228743Y23667913D01*
X2224067Y23671600D01*
X2219208Y23675061D01*
X2214187Y23678290D01*
X2208998Y23681283D01*
X2203660Y23684025D01*
X2198174Y23686513D01*
X2192555Y23688738D01*
X2186800Y23690684D01*
X2180924Y23692360D01*
X2174939Y23693747D01*
X2168845Y23694841D01*
X2162650Y23695629D01*
X2156363Y23696110D01*
X2149992Y23696269D01*
X2143626Y23696110D01*
X2137341Y23695631D01*
X2131148Y23694841D01*
X2125054Y23693747D01*
X2119067Y23692360D01*
X2113187Y23690684D01*
X2107432Y23688738D01*
X2101815Y23686513D01*
X2096326Y23684025D01*
X2090988Y23681283D01*
X2085810Y23678290D01*
X2080781Y23675061D01*
X2075921Y23671600D01*
X2071243Y23667913D01*
X2066748Y23664011D01*
X2062446Y23659899D01*
X2058349Y23655587D01*
X2054458Y23651090D01*
X2050784Y23646393D01*
X2047326Y23641536D01*
X2044103Y23636500D01*
X2041121Y23631298D01*
X2038385Y23625952D01*
X2035904Y23620460D01*
X2033683Y23614822D01*
X2031730Y23609059D01*
X2030068Y23603170D01*
X2028686Y23597168D01*
X2027596Y23591057D01*
X2026812Y23584854D01*
X2026326Y23578556D01*
X2026165Y23572174D01*
X2026179Y23570538D01*
X2026208Y23568915D01*
X2026257Y23567289D01*
X2026329Y23565670D01*
X2026430Y23564061D01*
X2026544Y23562451D01*
X2026681Y23560848D01*
X2026836Y23559256D01*
X2041804Y23562240D01*
X2056902Y23564847D01*
X2072131Y23567059D01*
X2087479Y23568886D01*
X2102943Y23570319D01*
X2118525Y23571344D01*
X2134210Y23571964D01*
X2149992Y23572174D01*
X2165781Y23571964D01*
X2181465Y23571344D01*
X2197044Y23570319D01*
X2212512Y23568886D01*
X2227856Y23567059D01*
X2243083Y23564847D01*
X2258185Y23562240D01*
X2273148Y23559256D01*
X2272412Y23553445D01*
X2271407Y23547725D01*
X2270148Y23542086D01*
X2268632Y23536549D01*
X2266875Y23531132D01*
X2264873Y23525810D01*
X2262645Y23520615D01*
X2260184Y23515541D01*
X2257506Y23510607D01*
X2254618Y23505803D01*
X2251520Y23501152D01*
X2248222Y23496641D01*
X2244729Y23492293D01*
X2241044Y23488103D01*
X2237184Y23484089D01*
X2233152Y23480252D01*
X2228946Y23476598D01*
X2224573Y23473130D01*
X2220045Y23469860D01*
X2215377Y23466790D01*
X2210561Y23463933D01*
X2205610Y23461287D01*
X2200526Y23458868D01*
X2195325Y23456670D01*
X2189994Y23454708D01*
X2184568Y23452985D01*
X2179030Y23451513D01*
X2173395Y23450291D01*
X2167666Y23449331D01*
X2161854Y23448642D01*
X2155959Y23448221D01*
X2149992Y23448079D01*
X2144033Y23448221D01*
X2138137Y23448642D01*
X2132325Y23449331D01*
X2126600Y23450291D01*
X2120963Y23451513D01*
X2115423Y23452985D01*
X2109989Y23454708D01*
X2104665Y23456670D01*
X2099458Y23458868D01*
X2094378Y23461287D01*
X2089425Y23463933D01*
X2084613Y23466790D01*
X2079938Y23469860D01*
X2075409Y23473130D01*
X2071046Y23476598D01*
X2066839Y23480251D01*
X2062804Y23484089D01*
X2058943Y23488103D01*
X2055260Y23492293D01*
X2051775Y23496641D01*
X2048470Y23501152D01*
X2045368Y23505803D01*
X2042483Y23510607D01*
X2039809Y23515541D01*
X2037349Y23520615D01*
X2035119Y23525810D01*
X2033122Y23531132D01*
X2031356Y23536549D01*
X2029840Y23542086D01*
X2028579Y23547725D01*
X2027573Y23553445D01*
X2026836Y23559256D01*
X2002095Y23553415D01*
X1977758Y23546554D01*
X1953857Y23538685D01*
X1930425Y23529826D01*
X1907475Y23520023D01*
X1885034Y23509272D01*
X1863130Y23497634D01*
X1841783Y23485100D01*
X1800874Y23457481D01*
X1762493Y23426634D01*
X1726836Y23392745D01*
X1694105Y23356004D01*
X1664487Y23316613D01*
X1638183Y23274764D01*
X1626337Y23252989D01*
X1615392Y23230668D01*
X1605376Y23207831D01*
X1596310Y23184495D01*
X1588213Y23160694D01*
X1581122Y23136463D01*
X1575053Y23111806D01*
X1570033Y23086753D01*
X1566086Y23061333D01*
X1563231Y23035570D01*
X1561503Y23009485D01*
X1560923Y22983105D01*
X1419425Y22983105D01*
X1419425Y24208461D01*
X2024792Y24208461D01*
X2024792Y24151499D01*
X2245670Y24151499D01*
X2246646Y24151472D01*
X2247562Y24151392D01*
X2248404Y24151267D01*
X2248811Y24151179D01*
X2249191Y24151081D01*
X2249565Y24150974D01*
X2249919Y24150851D01*
X2250260Y24150713D01*
X2250580Y24150560D01*
X2250889Y24150395D01*
X2251175Y24150217D01*
X2251456Y24150026D01*
X2251713Y24149815D01*
X2251956Y24149592D01*
X2252188Y24149360D01*
X2252396Y24149109D01*
X2252595Y24148846D01*
X2252774Y24148566D01*
X2252943Y24148274D01*
X2253090Y24147963D01*
X2253224Y24147639D01*
X2253347Y24147301D01*
X2253445Y24146947D01*
X2253534Y24146582D01*
X2253602Y24146201D01*
X2253662Y24145804D01*
X2253701Y24145386D01*
X2253720Y24144958D01*
X2253730Y24144503D01*
X2253730Y24051536D01*
X2253441Y24040748D01*
X2252580Y24030742D01*
X2251153Y24021498D01*
X2250233Y24017165D01*
X2249170Y24013019D01*
X2247970Y24009059D01*
X2246639Y24005290D01*
X2245165Y24001696D01*
X2243559Y23998287D01*
X2241814Y23995057D01*
X2239935Y23992006D01*
X2237932Y23989139D01*
X2235796Y23986441D01*
X2233522Y23983919D01*
X2231127Y23981574D01*
X2228597Y23979402D01*
X2225940Y23977394D01*
X2223154Y23975563D01*
X2220245Y23973891D01*
X2217210Y23972385D01*
X2214054Y23971054D01*
X2210772Y23969876D01*
X2207362Y23968862D01*
X2203835Y23968007D01*
X2200189Y23967311D01*
X2192532Y23966394D01*
X2184402Y23966086D01*
X2024792Y23966086D01*
X2024792Y23908586D01*
X2149992Y23908586D01*
X2184402Y23908586D01*
X2191659Y23908720D01*
X2198726Y23909136D01*
X2205595Y23909818D01*
X2212265Y23910779D01*
X2218730Y23912016D01*
X2224995Y23913538D01*
X2231053Y23915327D01*
X2236902Y23917389D01*
X2242537Y23919741D01*
X2247965Y23922364D01*
X2253171Y23925267D01*
X2258160Y23928454D01*
X2262932Y23931916D01*
X2267478Y23935657D01*
X2271801Y23939684D01*
X2275901Y23943982D01*
X2279759Y23948579D01*
X2283392Y23953448D01*
X2286795Y23958601D01*
X2289951Y23964033D01*
X2292879Y23969755D01*
X2295556Y23975755D01*
X2297993Y23982043D01*
X2300182Y23988618D01*
X2302120Y23995479D01*
X2303815Y24002625D01*
X2305248Y24010056D01*
X2306425Y24017774D01*
X2307355Y24025784D01*
X2308012Y24034083D01*
X2308416Y24042663D01*
X2308547Y24051536D01*
X2308547Y24168693D01*
X2308418Y24173838D01*
X2308023Y24178578D01*
X2307711Y24180808D01*
X2307333Y24182935D01*
X2306878Y24184974D01*
X2306341Y24186928D01*
X2305729Y24188777D01*
X2305034Y24190537D01*
X2304257Y24192215D01*
X2303389Y24193795D01*
X2302429Y24195290D01*
X2301382Y24196695D01*
X2300244Y24198020D01*
X2299006Y24199262D01*
X2297676Y24200416D01*
X2296239Y24201486D01*
X2294707Y24202480D01*
X2293061Y24203391D01*
X2291318Y24204225D01*
X2289462Y24204977D01*
X2287490Y24205653D01*
X2285420Y24206253D01*
X2283228Y24206782D01*
X2280917Y24207235D01*
X2278490Y24207612D01*
X2275940Y24207921D01*
X2270464Y24208330D01*
X2264476Y24208461D01*
X2024792Y24208461D01*
X1419425Y24208461D01*
X1419425Y24480394D01*
X2024792Y24480394D01*
X2024792Y24347658D01*
X2024976Y24339108D01*
X2025564Y24331403D01*
X2026005Y24327849D01*
X2026548Y24324486D01*
X2027194Y24321313D01*
X2027947Y24318323D01*
X2028809Y24315509D01*
X2029779Y24312871D01*
X2030855Y24310404D01*
X2032050Y24308100D01*
X2033350Y24305957D01*
X2034768Y24303968D01*
X2036310Y24302128D01*
X2037957Y24300423D01*
X2039732Y24298876D01*
X2041626Y24297451D01*
X2043644Y24296157D01*
X2045784Y24295000D01*
X2048053Y24293956D01*
X2050443Y24293031D01*
X2052967Y24292212D01*
X2055623Y24291501D01*
X2058414Y24290890D01*
X2061333Y24290381D01*
X2067581Y24289628D01*
X2074383Y24289205D01*
X2081753Y24289078D01*
X2215034Y24289078D01*
X2224944Y24289409D01*
X2234482Y24290413D01*
X2239104Y24291178D01*
X2243618Y24292122D01*
X2248026Y24293247D01*
X2252321Y24294550D01*
X2256493Y24296041D01*
X2260535Y24297723D01*
X2264449Y24299592D01*
X2264476Y24299610D01*
X2268239Y24301656D01*
X2271887Y24303918D01*
X2275389Y24306386D01*
X2278741Y24309053D01*
X2281951Y24311914D01*
X2284987Y24314992D01*
X2287868Y24318281D01*
X2290581Y24321787D01*
X2293138Y24325500D01*
X2295498Y24329436D01*
X2297683Y24333594D01*
X2299679Y24337972D01*
X2301494Y24342580D01*
X2303103Y24347423D01*
X2304524Y24352491D01*
X2305729Y24357802D01*
X2306732Y24363342D01*
X2307520Y24369125D01*
X2308081Y24375160D01*
X2308427Y24381434D01*
X2308547Y24387960D01*
X2308547Y24558316D01*
X2253730Y24558316D01*
X2253730Y24388496D01*
X2253680Y24385633D01*
X2253533Y24382873D01*
X2253290Y24380219D01*
X2252951Y24377677D01*
X2252518Y24375238D01*
X2251995Y24372901D01*
X2251390Y24370674D01*
X2250697Y24368543D01*
X2249924Y24366518D01*
X2249069Y24364590D01*
X2248133Y24362755D01*
X2247123Y24361026D01*
X2246039Y24359388D01*
X2244888Y24357844D01*
X2243670Y24356404D01*
X2242376Y24355044D01*
X2241023Y24353776D01*
X2239608Y24352605D01*
X2238129Y24351515D01*
X2236591Y24350518D01*
X2235006Y24349612D01*
X2233357Y24348778D01*
X2231673Y24348044D01*
X2229929Y24347384D01*
X2228133Y24346808D01*
X2226299Y24346313D01*
X2222508Y24345562D01*
X2218568Y24345111D01*
X2214501Y24344966D01*
X2193000Y24344966D01*
X2193000Y24479846D01*
X2192650Y24492441D01*
X2192215Y24498359D01*
X2191608Y24504027D01*
X2190826Y24509446D01*
X2189888Y24514629D01*
X2188771Y24519574D01*
X2187493Y24524280D01*
X2186050Y24528754D01*
X2184446Y24532997D01*
X2182685Y24537027D01*
X2180755Y24540828D01*
X2178680Y24544410D01*
X2176445Y24547774D01*
X2174048Y24550939D01*
X2171498Y24553887D01*
X2168811Y24556630D01*
X2165966Y24559176D01*
X2162974Y24561520D01*
X2159833Y24563674D01*
X2156544Y24565629D01*
X2153120Y24567400D01*
X2149553Y24568994D01*
X2145844Y24570396D01*
X2141998Y24571616D01*
X2138014Y24572675D01*
X2129634Y24574275D01*
X2120735Y24575207D01*
X2114537Y24575409D01*
X2111317Y24575521D01*
X2101486Y24575184D01*
X2096763Y24574769D01*
X2092169Y24574188D01*
X2087703Y24573430D01*
X2083373Y24572497D01*
X2079179Y24571389D01*
X2075123Y24570097D01*
X2071211Y24568634D01*
X2067436Y24566981D01*
X2063801Y24565148D01*
X2060320Y24563133D01*
X2056986Y24560925D01*
X2053804Y24558519D01*
X2050775Y24555936D01*
X2047895Y24553149D01*
X2045182Y24550164D01*
X2042625Y24546976D01*
X2040227Y24543598D01*
X2037992Y24540007D01*
X2035930Y24536224D01*
X2034031Y24532219D01*
X2032310Y24528016D01*
X2030753Y24523599D01*
X2029373Y24518967D01*
X2028167Y24514116D01*
X2027148Y24509049D01*
X2026305Y24503771D01*
X2025642Y24498263D01*
X2025167Y24492539D01*
X2024887Y24486576D01*
X2024792Y24480394D01*
X1419425Y24480394D01*
X1419425Y24651296D01*
X2024792Y24651296D01*
X2111317Y24651296D01*
X2431612Y24651296D01*
X2431612Y24708256D01*
X2024792Y24708256D01*
X2024792Y24651296D01*
X1419425Y24651296D01*
X1419425Y24983955D01*
X2024792Y24983955D01*
X2024792Y24781882D01*
X2079605Y24781882D01*
X2079605Y24980727D01*
X2079680Y24983367D01*
X2079912Y24985816D01*
X2080269Y24988093D01*
X2080510Y24989180D01*
X2080784Y24990204D01*
X2081088Y24991196D01*
X2081436Y24992141D01*
X2081807Y24993045D01*
X2082211Y24993902D01*
X2082656Y24994720D01*
X2083136Y24995494D01*
X2083638Y24996228D01*
X2084178Y24996922D01*
X2084744Y24997562D01*
X2085345Y24998163D01*
X2085975Y24998727D01*
X2086639Y24999247D01*
X2087335Y24999725D01*
X2088052Y25000162D01*
X2088809Y25000548D01*
X2089584Y25000905D01*
X2090391Y25001214D01*
X2091225Y25001487D01*
X2092094Y25001708D01*
X2092981Y25001892D01*
X2093892Y25002039D01*
X2094842Y25002141D01*
X2096805Y25002221D01*
X2097653Y25002206D01*
X2098483Y25002156D01*
X2099305Y25002086D01*
X2100107Y25001971D01*
X2100891Y25001831D01*
X2101661Y25001658D01*
X2102411Y25001462D01*
X2103151Y25001235D01*
X2103872Y25000974D01*
X2104583Y25000679D01*
X2105272Y25000357D01*
X2105946Y25000014D01*
X2106609Y24999630D01*
X2107250Y24999228D01*
X2107882Y24998786D01*
X2108494Y24998329D01*
X2109091Y24997836D01*
X2109669Y24997312D01*
X2110785Y24996189D01*
X2111834Y24994947D01*
X2112830Y24993608D01*
X2113755Y24992156D01*
X2114618Y24990597D01*
X2115414Y24988936D01*
X2116152Y24987175D01*
X2149992Y24893951D01*
X2175270Y24824334D01*
X2177420Y24818927D01*
X2179852Y24813778D01*
X2182564Y24808904D01*
X2184025Y24806565D01*
X2185559Y24804309D01*
X2187156Y24802125D01*
X2188824Y24800022D01*
X2190561Y24797991D01*
X2192379Y24796041D01*
X2194253Y24794178D01*
X2196200Y24792397D01*
X2198230Y24790689D01*
X2200328Y24789071D01*
X2202484Y24787544D01*
X2204724Y24786094D01*
X2207029Y24784745D01*
X2209405Y24783475D01*
X2211852Y24782319D01*
X2214377Y24781236D01*
X2216967Y24780261D01*
X2219628Y24779374D01*
X2222361Y24778592D01*
X2225170Y24777905D01*
X2228054Y24777316D01*
X2230992Y24776837D01*
X2234017Y24776459D01*
X2237113Y24776191D01*
X2240281Y24776021D01*
X2243520Y24775973D01*
X2247156Y24776039D01*
X2250716Y24776253D01*
X2254189Y24776598D01*
X2257574Y24777086D01*
X2260880Y24777712D01*
X2264090Y24778477D01*
X2267205Y24779388D01*
X2270231Y24780435D01*
X2273154Y24781633D01*
X2275986Y24782962D01*
X2278712Y24784442D01*
X2281335Y24786055D01*
X2283850Y24787821D01*
X2286261Y24789732D01*
X2288560Y24791780D01*
X2290745Y24793984D01*
X2292815Y24796317D01*
X2294770Y24798804D01*
X2296595Y24801433D01*
X2298314Y24804204D01*
X2299900Y24807136D01*
X2301366Y24810194D01*
X2302702Y24813424D01*
X2303904Y24816782D01*
X2304976Y24820297D01*
X2305907Y24823957D01*
X2306703Y24827767D01*
X2307362Y24831725D01*
X2307871Y24835832D01*
X2308247Y24840088D01*
X2308473Y24844503D01*
X2308547Y24849059D01*
X2308547Y25046831D01*
X2253730Y25046831D01*
X2253730Y24852289D01*
X2253662Y24849561D01*
X2253454Y24847023D01*
X2253113Y24844660D01*
X2252637Y24842492D01*
X2252345Y24841474D01*
X2252031Y24840510D01*
X2251679Y24839579D01*
X2251296Y24838703D01*
X2250875Y24837867D01*
X2250422Y24837076D01*
X2249942Y24836326D01*
X2249430Y24835621D01*
X2248885Y24834970D01*
X2248305Y24834357D01*
X2247707Y24833785D01*
X2247066Y24833256D01*
X2246397Y24832774D01*
X2245701Y24832330D01*
X2244973Y24831932D01*
X2244203Y24831576D01*
X2243419Y24831265D01*
X2242597Y24831000D01*
X2241753Y24830764D01*
X2240873Y24830586D01*
X2239964Y24830435D01*
X2239026Y24830333D01*
X2237070Y24830247D01*
X2235653Y24830291D01*
X2234229Y24830412D01*
X2232808Y24830628D01*
X2231397Y24830939D01*
X2229994Y24831363D01*
X2228604Y24831891D01*
X2227924Y24832209D01*
X2227252Y24832557D01*
X2226577Y24832928D01*
X2225919Y24833338D01*
X2225264Y24833785D01*
X2224626Y24834268D01*
X2223996Y24834790D01*
X2223385Y24835337D01*
X2222781Y24835937D01*
X2222184Y24836570D01*
X2221614Y24837246D01*
X2221047Y24837962D01*
X2220506Y24838718D01*
X2219968Y24839522D01*
X2219458Y24840359D01*
X2218963Y24841257D01*
X2218488Y24842197D01*
X2218032Y24843190D01*
X2217600Y24844213D01*
X2217188Y24845304D01*
X2158606Y25008672D01*
X2157460Y25011695D01*
X2156240Y25014608D01*
X2154929Y25017438D01*
X2153555Y25020156D01*
X2152112Y25022783D01*
X2150583Y25025307D01*
X2149992Y25026210D01*
X2148992Y25027736D01*
X2147331Y25030062D01*
X2145599Y25032288D01*
X2143800Y25034412D01*
X2141936Y25036450D01*
X2140008Y25038386D01*
X2138014Y25040220D01*
X2135959Y25041960D01*
X2133846Y25043601D01*
X2131669Y25045152D01*
X2129440Y25046598D01*
X2127152Y25047953D01*
X2124800Y25049211D01*
X2122398Y25050383D01*
X2119946Y25051444D01*
X2117436Y25052419D01*
X2114883Y25053307D01*
X2112280Y25054092D01*
X2109623Y25054784D01*
X2106930Y25055381D01*
X2104181Y25055891D01*
X2101390Y25056307D01*
X2095688Y25056856D01*
X2089817Y25057040D01*
X2086176Y25056966D01*
X2082619Y25056756D01*
X2079150Y25056399D01*
X2075760Y25055908D01*
X2072461Y25055266D01*
X2069247Y25054482D01*
X2066132Y25053560D01*
X2063106Y25052500D01*
X2060179Y25051290D01*
X2057353Y25049942D01*
X2054625Y25048445D01*
X2052006Y25046811D01*
X2049486Y25045026D01*
X2047081Y25043102D01*
X2044779Y25041043D01*
X2042595Y25038832D01*
X2040522Y25036484D01*
X2038574Y25033990D01*
X2036737Y25031345D01*
X2035023Y25028577D01*
X2033433Y25025645D01*
X2031975Y25022574D01*
X2030640Y25019356D01*
X2029430Y25016002D01*
X2028363Y25012503D01*
X2027427Y25008853D01*
X2026632Y25005063D01*
X2025979Y25001132D01*
X2025464Y24997060D01*
X2025088Y24992829D01*
X2024866Y24988465D01*
X2024792Y24983955D01*
X1419425Y24983955D01*
X1419425Y25179823D01*
X1420381Y25217397D01*
X1423202Y25254477D01*
X1427856Y25291019D01*
X1432237Y25315540D01*
X2024792Y25315540D01*
X2024792Y25182796D01*
X2024976Y25174256D01*
X2025564Y25166545D01*
X2026005Y25162993D01*
X2026548Y25159629D01*
X2027194Y25156446D01*
X2027947Y25153466D01*
X2028809Y25150654D01*
X2029779Y25148015D01*
X2030855Y25145549D01*
X2032050Y25143239D01*
X2033350Y25141098D01*
X2034768Y25139104D01*
X2036310Y25137267D01*
X2037957Y25135563D01*
X2039732Y25134020D01*
X2041626Y25132596D01*
X2043644Y25131300D01*
X2045784Y25130132D01*
X2048053Y25129097D01*
X2050443Y25128166D01*
X2052967Y25127354D01*
X2055623Y25126641D01*
X2058414Y25126038D01*
X2061333Y25125521D01*
X2067581Y25124776D01*
X2074383Y25124350D01*
X2081753Y25124218D01*
X2089817Y25124218D01*
X2215034Y25124218D01*
X2224944Y25124550D01*
X2234482Y25125551D01*
X2239104Y25126317D01*
X2243618Y25127263D01*
X2248026Y25128385D01*
X2252321Y25129695D01*
X2256493Y25131179D01*
X2260535Y25132867D01*
X2264449Y25134732D01*
X2268239Y25136798D01*
X2271887Y25139065D01*
X2275389Y25141517D01*
X2278741Y25144186D01*
X2281951Y25147060D01*
X2284987Y25150131D01*
X2287868Y25153420D01*
X2290581Y25156927D01*
X2293138Y25160637D01*
X2295498Y25164578D01*
X2297683Y25168732D01*
X2299679Y25173116D01*
X2301494Y25177721D01*
X2303103Y25182562D01*
X2304524Y25187630D01*
X2305729Y25192946D01*
X2306732Y25198487D01*
X2307520Y25204268D01*
X2308081Y25210301D01*
X2308427Y25216581D01*
X2308547Y25223100D01*
X2308547Y25393468D01*
X2253730Y25393468D01*
X2253730Y25223635D01*
X2253680Y25220769D01*
X2253533Y25218014D01*
X2253290Y25215361D01*
X2252951Y25212822D01*
X2252518Y25210381D01*
X2251995Y25208045D01*
X2251390Y25205818D01*
X2250697Y25203687D01*
X2249924Y25201666D01*
X2249069Y25199729D01*
X2248133Y25197901D01*
X2247123Y25196171D01*
X2246039Y25194530D01*
X2244888Y25192992D01*
X2243670Y25191541D01*
X2242376Y25190175D01*
X2241023Y25188924D01*
X2239608Y25187746D01*
X2238129Y25186664D01*
X2236591Y25185667D01*
X2235006Y25184755D01*
X2233357Y25183922D01*
X2231673Y25183185D01*
X2229929Y25182524D01*
X2228133Y25181951D01*
X2226299Y25181456D01*
X2222508Y25180693D01*
X2218568Y25180254D01*
X2214501Y25180104D01*
X2193000Y25180105D01*
X2193000Y25314999D01*
X2192650Y25327583D01*
X2192215Y25333502D01*
X2191608Y25339166D01*
X2190826Y25344588D01*
X2189888Y25349763D01*
X2188771Y25354708D01*
X2187493Y25359417D01*
X2186050Y25363894D01*
X2184446Y25368149D01*
X2182685Y25372169D01*
X2180755Y25375969D01*
X2178680Y25379551D01*
X2176445Y25382920D01*
X2174048Y25386080D01*
X2171501Y25389032D01*
X2168811Y25391770D01*
X2165966Y25394312D01*
X2162974Y25396663D01*
X2159833Y25398816D01*
X2156544Y25400767D01*
X2153120Y25402544D01*
X2149553Y25404132D01*
X2145844Y25405542D01*
X2141998Y25406766D01*
X2138014Y25407816D01*
X2129634Y25409416D01*
X2120735Y25410344D01*
X2114537Y25410558D01*
X2111317Y25410657D01*
X2101484Y25410328D01*
X2096763Y25409914D01*
X2092169Y25409329D01*
X2087703Y25408566D01*
X2083373Y25407634D01*
X2079179Y25406532D01*
X2075123Y25405242D01*
X2071211Y25403775D01*
X2067434Y25402125D01*
X2063801Y25400291D01*
X2060320Y25398270D01*
X2056986Y25396065D01*
X2053804Y25393665D01*
X2050775Y25391074D01*
X2047895Y25388287D01*
X2045182Y25385298D01*
X2042625Y25382124D01*
X2040227Y25378739D01*
X2037992Y25375153D01*
X2035930Y25371363D01*
X2034031Y25367363D01*
X2032310Y25363159D01*
X2030753Y25358739D01*
X2029373Y25354107D01*
X2028167Y25349251D01*
X2027148Y25344192D01*
X2026305Y25338907D01*
X2025642Y25333403D01*
X2025167Y25327676D01*
X2024887Y25321724D01*
X2024792Y25315540D01*
X1432237Y25315540D01*
X1434280Y25326979D01*
X1442445Y25362318D01*
X1452301Y25396967D01*
X1463790Y25430912D01*
X1476879Y25464072D01*
X1491514Y25496431D01*
X1507664Y25527932D01*
X1525260Y25558525D01*
X1544270Y25588161D01*
X1564645Y25616814D01*
X1586335Y25644410D01*
X1609304Y25670926D01*
X1633512Y25696301D01*
X1658885Y25720501D01*
X1685397Y25743470D01*
X1712993Y25765163D01*
X1741645Y25785543D01*
X1771287Y25804553D01*
X1801877Y25822150D01*
X1833372Y25838287D01*
X1865729Y25852929D01*
X1898898Y25866029D01*
X1932841Y25877510D01*
X1967500Y25887363D01*
X2002830Y25895516D01*
X2038785Y25901954D01*
X2075329Y25906606D01*
X2111317Y25909341D01*
X2112412Y25909427D01*
X2149981Y25910380D01*
X2149992Y25910380D01*
X2187548Y25909427D01*
G37*
%TD*%
D12*
%TO.C,C21*%
X16130000Y5825000D03*
X16970000Y5825000D03*
%TD*%
%TO.C,C14*%
X7699530Y5614794D03*
X8539530Y5614794D03*
%TD*%
D13*
%TO.C,U2*%
X8400000Y3794794D03*
X6200000Y3794794D03*
X6200000Y2094794D03*
X8400000Y2094794D03*
%TD*%
D14*
%TO.C,L4*%
X16800000Y3675000D03*
X16800000Y4575000D03*
%TD*%
D15*
%TO.C,U5*%
X19289530Y7534794D03*
D16*
X19289530Y7984794D03*
D17*
X19289530Y8434794D03*
D15*
X19289530Y8884794D03*
D18*
X19289530Y9334794D03*
D17*
X19289530Y9784794D03*
D15*
X19289530Y10234794D03*
D18*
X19289530Y10684794D03*
D17*
X19289530Y11134794D03*
D16*
X19289530Y11584794D03*
D18*
X19289530Y12034794D03*
D19*
X19349530Y12714794D03*
D20*
X18839530Y12714794D03*
X18389530Y12714794D03*
X17939530Y12714793D03*
X17489530Y12714793D03*
X17039530Y12714793D03*
X16589530Y12714793D03*
X16139530Y12714793D03*
X15689530Y12714794D03*
D19*
X15169530Y12714794D03*
D18*
X15239530Y12034794D03*
D16*
X15239530Y11584794D03*
D17*
X15239530Y11134794D03*
D18*
X15239530Y10684794D03*
D15*
X15239530Y10234794D03*
D17*
X15239530Y9784794D03*
D18*
X15239530Y9334794D03*
D15*
X15239530Y8884794D03*
D17*
X15239530Y8434794D03*
D16*
X15239530Y7984794D03*
D15*
X15239530Y7534794D03*
D19*
X15169530Y6854794D03*
D20*
X15689530Y6854794D03*
X16139530Y6854795D03*
X16589530Y6854795D03*
X17039530Y6854795D03*
X17489530Y6854795D03*
X17939530Y6854795D03*
X18389530Y6854794D03*
X18839530Y6854794D03*
D19*
X19349530Y6854794D03*
D21*
X18009530Y8784794D03*
X18009530Y10784794D03*
X16509530Y8784794D03*
X16509530Y10784794D03*
%TD*%
D22*
%TO.C,LED3*%
X16650000Y25820000D03*
X16650000Y24960000D03*
%TD*%
D12*
%TO.C,C9*%
X13629530Y12124794D03*
X12789530Y12124794D03*
%TD*%
D14*
%TO.C,L3*%
X18840000Y5825000D03*
X17940000Y5825000D03*
%TD*%
D12*
%TO.C,C3*%
X2099530Y13114794D03*
X2939530Y13114794D03*
%TD*%
D23*
%TO.C,M3*%
X2000000Y28000000D03*
%TD*%
D24*
%TO.C,C7*%
X11946985Y6853015D03*
X11353015Y7446985D03*
%TD*%
D25*
%TO.C,R10*%
X14024530Y10184794D03*
X13164530Y10184794D03*
%TD*%
D26*
%TO.C,J1*%
X560000Y7945008D03*
D27*
X2990000Y7650002D03*
D26*
X560000Y7345008D03*
D27*
X2990000Y7050002D03*
D26*
X560000Y6745008D03*
D27*
X2990000Y6450013D03*
D26*
X560000Y6145008D03*
D27*
X2990000Y5850002D03*
D26*
X560000Y5545008D03*
D27*
X2990000Y5250001D03*
D26*
X560000Y4945008D03*
D28*
X626040Y8654929D03*
X626040Y4234937D03*
%TD*%
D29*
%TO.C,U1*%
X4309530Y15114794D03*
X4309530Y14714794D03*
X4309530Y14314794D03*
X4309530Y13914794D03*
X4309530Y13514794D03*
X4309530Y13114794D03*
X4309530Y12714794D03*
X4309530Y12314794D03*
X4309530Y11914794D03*
X4309530Y11514794D03*
X4309530Y11114794D03*
X4309530Y10714794D03*
X4309530Y10314794D03*
X4309530Y9914794D03*
X4309530Y9514794D03*
D30*
X5089530Y8744794D03*
X5489530Y8744794D03*
X5889530Y8744794D03*
X6289530Y8744794D03*
X6689530Y8744794D03*
X7089530Y8744794D03*
X7489530Y8744794D03*
X7889530Y8744794D03*
X8289530Y8744794D03*
X8689530Y8744794D03*
X9089530Y8744794D03*
X9489530Y8744794D03*
X9889530Y8744794D03*
X10289530Y8744794D03*
X10689530Y8744794D03*
D29*
X11469530Y9514794D03*
X11469530Y9914794D03*
X11469530Y10314794D03*
X11469530Y10714794D03*
X11469530Y11114794D03*
X11469530Y11514794D03*
X11469530Y11914794D03*
X11469530Y12314794D03*
X11469530Y12714794D03*
X11469530Y13114794D03*
X11469530Y13514794D03*
X11469530Y13914794D03*
X11469530Y14314794D03*
X11469530Y14714794D03*
X11469530Y15114794D03*
D30*
X10689530Y15884794D03*
X10289530Y15884794D03*
X9889530Y15884794D03*
X9489530Y15884794D03*
X9089530Y15884794D03*
X8689530Y15884794D03*
X8289530Y15884794D03*
X7889530Y15884794D03*
X7489530Y15884794D03*
X7089530Y15884794D03*
X6689530Y15884794D03*
X6289530Y15884794D03*
X5889530Y15884794D03*
X5489530Y15884794D03*
X5089530Y15884794D03*
D31*
X7889530Y12314794D03*
%TD*%
D32*
%TO.C,R9*%
X18454056Y4804056D03*
X17845944Y4195944D03*
%TD*%
D23*
%TO.C,M1*%
X18000000Y2000000D03*
%TD*%
D33*
%TO.C,C10*%
X6469530Y6444794D03*
X6469530Y7284794D03*
%TD*%
D34*
%TO.C,AE1*%
X13580000Y1730000D03*
X15520000Y1730000D03*
X15520000Y3670000D03*
X13580000Y3670000D03*
%TD*%
D22*
%TO.C,LED1*%
X19175000Y24945000D03*
X19175000Y25805000D03*
%TD*%
%TO.C,R5*%
X7879530Y18664794D03*
X7879530Y19524794D03*
%TD*%
%TO.C,R4*%
X7099530Y18664794D03*
X7099530Y19524794D03*
%TD*%
D35*
%TO.C,C16*%
X6790000Y21240000D03*
X6790000Y22640000D03*
%TD*%
D25*
%TO.C,R6*%
X6499530Y16984794D03*
X5639530Y16984794D03*
%TD*%
D22*
%TO.C,R13*%
X17900000Y23190000D03*
X17900000Y24050000D03*
%TD*%
D25*
%TO.C,R11*%
X14024530Y10934794D03*
X13164530Y10934794D03*
%TD*%
D22*
%TO.C,R2*%
X7719530Y6414794D03*
X7719530Y7274794D03*
%TD*%
D12*
%TO.C,C5*%
X2099530Y15494794D03*
X2939530Y15494794D03*
%TD*%
D33*
%TO.C,C4*%
X6269530Y19524794D03*
X6269530Y18684794D03*
%TD*%
D22*
%TO.C,R14*%
X16650000Y23210000D03*
X16650000Y24070000D03*
%TD*%
D12*
%TO.C,C2*%
X13629530Y12904794D03*
X12789530Y12904794D03*
%TD*%
%TO.C,C6*%
X2099530Y11114794D03*
X2939530Y11114794D03*
%TD*%
D36*
%TO.C,C18*%
X17850000Y21550000D03*
X16450000Y21550000D03*
%TD*%
D37*
%TO.C,SW1*%
X820000Y19034794D03*
X5180000Y19034794D03*
%TD*%
D12*
%TO.C,C15*%
X6979530Y5154794D03*
X6139530Y5154794D03*
%TD*%
D38*
%TO.C,L1*%
X8889530Y19279794D03*
X10889530Y19279794D03*
%TD*%
D39*
%TO.C,USBC1*%
X5670000Y24720000D03*
D40*
X5670000Y28900000D03*
X14330000Y28900000D03*
D39*
X14330000Y24720000D03*
D41*
X13200000Y23960000D03*
X12400000Y23960000D03*
D42*
X11250000Y23960000D03*
X10250000Y23960000D03*
X9750000Y23960000D03*
X8750000Y23960000D03*
D41*
X6800000Y23960000D03*
X7600000Y23960000D03*
D42*
X8250000Y23960000D03*
X9250000Y23960000D03*
X10750000Y23960000D03*
X11750000Y23960000D03*
%TD*%
D43*
%TO.C,C12*%
X10404530Y17054794D03*
X9374530Y17054794D03*
%TD*%
D44*
%TO.C,U3*%
X15530000Y21150000D03*
X15530000Y21800000D03*
X15530000Y22450000D03*
X13470000Y22450000D03*
X13470000Y21800000D03*
X13470000Y21150000D03*
D38*
X14500000Y21800000D03*
%TD*%
D22*
%TO.C,R7*%
X11250000Y21800000D03*
X11250000Y22660000D03*
%TD*%
%TO.C,R1*%
X12509530Y19594794D03*
X12509530Y18734794D03*
%TD*%
D23*
%TO.C,M2*%
X18000000Y28000000D03*
%TD*%
D43*
%TO.C,C13*%
X10404530Y17844794D03*
X9374530Y17844794D03*
%TD*%
D35*
%TO.C,C17*%
X12400000Y21150000D03*
X12400000Y22550000D03*
%TD*%
D12*
%TO.C,C8*%
X13629530Y15114794D03*
X12789530Y15114794D03*
%TD*%
D33*
%TO.C,C1*%
X8519530Y6444794D03*
X8519530Y7284794D03*
%TD*%
D45*
%TO.C,SW2*%
X11100000Y904794D03*
X11100000Y5264794D03*
%TD*%
D22*
%TO.C,R8*%
X8250000Y21800000D03*
X8250000Y22660000D03*
%TD*%
D46*
%TO.C,CN1*%
X15010000Y15300000D03*
X15010000Y16300000D03*
X15010000Y17300000D03*
X15010000Y18300000D03*
D47*
X18890000Y19600000D03*
X18890000Y14000000D03*
%TD*%
D22*
%TO.C,R12*%
X19175000Y23190000D03*
X19175000Y24050000D03*
%TD*%
%TO.C,R3*%
X9300000Y6430000D03*
X9300000Y5570000D03*
%TD*%
D48*
%TO.C,L2*%
X13655025Y6344975D03*
X14644975Y5355025D03*
%TD*%
D33*
%TO.C,C11*%
X12509530Y17124794D03*
X12509530Y17964794D03*
%TD*%
D12*
%TO.C,C22*%
X13374530Y7984794D03*
X14214530Y7984794D03*
%TD*%
D23*
%TO.C,M4*%
X2000000Y2000000D03*
%TD*%
D22*
%TO.C,LED2*%
X17900000Y25800000D03*
X17900000Y24940000D03*
%TD*%
M02*
